<?xml version="1.0" encoding="UTF-8" standalone="no"?>
<!-- Created with Inkscape (http://www.inkscape.org/) -->

<svg
   xmlns:dc="http://purl.org/dc/elements/1.1/"
   xmlns:cc="http://creativecommons.org/ns#"
   xmlns:rdf="http://www.w3.org/1999/02/22-rdf-syntax-ns#"
   xmlns:svg="http://www.w3.org/2000/svg"
   xmlns="http://www.w3.org/2000/svg"
   xmlns:sodipodi="http://sodipodi.sourceforge.net/DTD/sodipodi-0.dtd"
   xmlns:inkscape="http://www.inkscape.org/namespaces/inkscape"
   width="31.204609mm"
   height="32.363827mm"
   viewBox="0 0 31.204609 32.363827"
   version="1.1"
   id="svg8"
   inkscape:version="0.92.2 (unknown)"
   sodipodi:docname="empty_slot.svg">
  <defs
     id="defs2" />
  <sodipodi:namedview
     id="base"
     pagecolor="#ffffff"
     bordercolor="#666666"
     borderopacity="1.0"
     inkscape:pageopacity="0.0"
     inkscape:pageshadow="2"
     inkscape:zoom="1.4"
     inkscape:cx="81.801297"
     inkscape:cy="-39.674767"
     inkscape:document-units="mm"
     inkscape:current-layer="layer1"
     showgrid="false"
     fit-margin-top="0"
     fit-margin-left="0"
     fit-margin-right="0"
     fit-margin-bottom="0"
     inkscape:window-width="2495"
     inkscape:window-height="1416"
     inkscape:window-x="65"
     inkscape:window-y="24"
     inkscape:window-maximized="1" />
  <metadata
     id="metadata5">
    <rdf:RDF>
      <cc:Work
         rdf:about="">
        <dc:format>image/svg+xml</dc:format>
        <dc:type
           rdf:resource="http://purl.org/dc/dcmitype/StillImage" />
        <dc:title></dc:title>
      </cc:Work>
    </rdf:RDF>
  </metadata>
  <g
     inkscape:label="Layer 1"
     inkscape:groupmode="layer"
     id="layer1"
     transform="translate(-7.9097261,-11.253091)">
    <path
       style="fill:#000000;fill-opacity:1;fill-rule:nonzero;stroke:none;stroke-width:0.26458332"
       id="path815"
       d="m 10.859516,11.790902 c 2.288577,1.636769 4.459156,3.432633 6.5869,5.271358 2.74517,2.372283 4.205291,3.678772 6.764805,6.290651 1.11778,1.140648 2.18412,2.330591 3.27618,3.495886 3.705204,4.153543 7.203276,8.543745 9.99731,13.372439 0.246803,0.426529 0.469003,0.86683 0.703506,1.300244 0.32844,0.653949 0.634873,1.318268 0.926118,1.989415 0,0 -2.779545,0.106021 -2.779545,0.106021 v 0 C 36.090373,42.95145 35.826223,42.293627 35.531073,41.648681 35.317866,41.218643 35.11745,40.782025 34.891453,40.358567 32.297721,35.498558 28.891084,31.116325 25.232255,27.019199 24.138327,25.857566 23.071829,24.669478 21.950471,23.534302 19.407666,20.960161 17.852353,19.575065 15.090717,17.270756 12.857409,15.407283 10.560864,13.6051 8.0971654,12.052811 c 0,0 2.7623506,-0.261909 2.7623506,-0.261909 z"
       inkscape:connector-curvature="0" />
    <path
       style="fill:#000000;fill-opacity:1;fill-rule:nonzero;stroke:none;stroke-width:0.26458332"
       id="path823"
       d="m 7.9097261,42.333666 c 0.2145442,-0.303464 0.4200874,-0.613497 0.6436328,-0.910391 1.0362065,-1.376209 2.1155631,-2.719406 3.1791581,-4.07456 2.215882,-2.82331 4.483964,-5.593784 6.790862,-8.343 1.485227,-1.814108 3.083648,-3.532427 4.589927,-5.328388 0.819242,-0.976795 1.604198,-1.985341 2.412427,-2.971593 0.739856,-0.81027 1.374174,-1.715715 2.10267,-2.534206 0.730199,-0.705377 1.278622,-1.561918 1.855311,-2.391408 0.356089,-0.551493 0.756144,-1.072182 1.163465,-1.586233 0.173768,-0.205545 0.402654,-0.354106 0.616075,-0.514989 0.165753,-0.229095 0.425833,-0.343259 0.638968,-0.517322 0.372438,-0.402929 0.840182,-0.700783 1.276906,-1.027872 0.294002,-0.217695 0.608587,-0.406026 0.904965,-0.619922 0.105344,-0.08167 0.203766,-0.171571 0.30272,-0.260691 0,0 2.809798,0.229773 2.809798,0.229773 v 0 c -0.100015,0.09809 -0.202014,0.193819 -0.309157,0.284212 -0.283165,0.243948 -0.60719,0.422332 -0.919893,0.626876 -0.424262,0.314287 -0.871395,0.600139 -1.251151,0.968997 -0.183716,0.269258 -0.426358,0.306195 -0.642138,0.520057 -0.153282,0.227282 -0.415624,0.333296 -0.61821,0.513636 -0.459211,0.468144 -0.835335,1.024438 -1.221711,1.551443 -0.260898,0.371523 -0.530643,0.736893 -0.785762,1.112408 -0.316743,0.466221 -0.611944,0.939765 -1.02289,1.331055 -0.251886,0.222292 -0.438242,0.490501 -0.65958,0.743645 -0.513601,0.587409 -1.04989,1.155288 -1.546243,1.757881 -0.835062,0.987615 -1.641753,2.004409 -2.496888,2.974497 -1.574713,1.786397 -3.255052,3.479728 -4.783026,5.308199 -0.747434,0.87502 -1.506438,1.740287 -2.242303,2.625059 -1.826299,2.195856 -2.795051,3.439861 -4.496222,5.70824 -0.67647,0.90202 -2.214279,3.001287 -2.947947,4.074279 -0.198854,0.290824 -0.378823,0.594124 -0.568235,0.891185 0,0 -2.7755289,-0.140867 -2.7755289,-0.140867 z"
       inkscape:connector-curvature="0" />
  </g>
</svg>
