<?xml version="1.0" encoding="UTF-8" standalone="no"?>
<!-- Created with Inkscape (http://www.inkscape.org/) -->

<svg
   xmlns:dc="http://purl.org/dc/elements/1.1/"
   xmlns:cc="http://creativecommons.org/ns#"
   xmlns:rdf="http://www.w3.org/1999/02/22-rdf-syntax-ns#"
   xmlns:svg="http://www.w3.org/2000/svg"
   xmlns="http://www.w3.org/2000/svg"
   xmlns:sodipodi="http://sodipodi.sourceforge.net/DTD/sodipodi-0.dtd"
   xmlns:inkscape="http://www.inkscape.org/namespaces/inkscape"
   width="73.95359mm"
   height="70.100212mm"
   viewBox="0 0 73.95359 70.100212"
   version="1.1"
   id="svg8"
   sodipodi:docname="icon_swapstatusmode.svg"
   inkscape:version="0.92.2 (unknown)">
  <defs
     id="defs2" />
  <sodipodi:namedview
     id="base"
     pagecolor="#ffffff"
     bordercolor="#666666"
     borderopacity="1.0"
     inkscape:pageopacity="0.0"
     inkscape:pageshadow="2"
     inkscape:zoom="0.35"
     inkscape:cx="-0.3940674"
     inkscape:cy="-100.00215"
     inkscape:document-units="mm"
     inkscape:current-layer="layer1"
     showgrid="false"
     inkscape:window-width="1152"
     inkscape:window-height="915"
     inkscape:window-x="1139"
     inkscape:window-y="524"
     inkscape:window-maximized="0" />
  <metadata
     id="metadata5">
    <rdf:RDF>
      <cc:Work
         rdf:about="">
        <dc:format>image/svg+xml</dc:format>
        <dc:type
           rdf:resource="http://purl.org/dc/dcmitype/StillImage" />
        <dc:title></dc:title>
      </cc:Work>
    </rdf:RDF>
  </metadata>
  <g
     inkscape:label="Layer 1"
     inkscape:groupmode="layer"
     id="layer1"
     transform="translate(-58.635828,-50.921216)">
    <path
       style="fill:#000000;fill-opacity:1;fill-rule:nonzero;stroke:none;stroke-width:0.26458332"
       id="path861"
       d="m 70.394162,76.901857 c -3.023478,-0.05429 -6.076529,0.262435 -9.070435,-0.162875 -1.254487,-0.17821 2.503813,-0.391089 3.754824,-0.592249 7.049225,-1.133499 14.095889,-2.16898 21.183192,-3.036689 6.381906,-0.806363 12.792853,-1.269415 19.220677,-1.439217 6.83548,-0.08474 13.67297,-0.05183 20.50857,-0.05435 0,0 -10.53546,1.66693 -10.53546,1.66693 v 0 c 17.67802,-0.02519 4.37152,-0.02863 0.47631,0.01931 -6.68047,0.112874 -13.35288,0.482862 -19.99579,1.223494 -5.371454,0.608539 -10.727973,1.255856 -16.058041,2.170716 -1.549096,0.26589 -3.092916,0.562501 -4.634312,0.869908 -1.081474,0.215685 -2.133349,0.624382 -3.233579,0.699227 -4.201001,0.285779 -8.417618,0.253116 -12.626427,0.379675 0,0 11.010471,-1.743888 11.010471,-1.743888 z"
       inkscape:connector-curvature="0" />
    <path
       style="fill:#000000;fill-opacity:1;fill-rule:nonzero;stroke:none;stroke-width:0.26458332"
       id="path863"
       d="m 114.47205,50.921216 c -0.3171,2.379022 0.9606,3.767589 2.29089,5.557006 2.19269,3.728061 5.18142,6.864033 8.014,10.099876 1.53231,1.557174 2.92195,3.248747 4.43014,4.827977 0.77442,0.810905 1.62733,1.524412 2.39153,2.343668 1.09051,1.083093 0.97048,2.630014 0.99081,4.056512 -0.0609,0.330785 -0.0675,0.676323 -0.18263,0.992352 -0.74771,2.05291 -3.7421,3.671562 -5.4508,4.836607 -2.1019,1.301321 -4.14516,2.704073 -6.27498,3.960508 -1.32308,0.714174 -2.6531,1.414923 -3.97656,2.128652 0,0 -10.92822,-1.195051 -10.92822,-1.195051 v 0 c 1.31987,-0.667975 2.59587,-1.414399 3.91003,-2.094283 2.20407,-1.218213 4.32343,-2.572234 6.49136,-3.852193 1.31292,-0.891678 2.58292,-1.73823 3.79709,-2.757829 0.24951,-0.209523 1.15952,-0.855847 1.36268,-1.246955 0.11682,-0.224903 0.11163,-0.494424 0.16744,-0.741635 -0.0499,-1.219477 -0.0598,-2.354725 -0.96808,-3.269345 -2.10998,-2.391301 -4.12491,-4.8607 -6.25398,-7.235973 -2.88073,-3.327424 -6.079,-6.395717 -8.41009,-10.161042 -1.39314,-1.91198 -2.68974,-3.772313 -2.63045,-6.248852 0,0 11.22982,0 11.22982,0 z"
       inkscape:connector-curvature="0" />
    <path
       style="fill:#000000;fill-opacity:1;fill-rule:nonzero;stroke:none;stroke-width:0.26458332"
       id="path867"
       d="m 74.852966,102.6021 c 5.790075,0.0934 11.581312,0.0723 17.37194,0.071 5.944812,0.006 11.889564,-0.0196 17.834344,-0.0272 3.72993,-0.0117 7.45978,-0.0194 11.18971,-0.0125 3.72947,0.0156 7.45892,0.011 11.18841,0.008 0,0 -10.54406,1.67001 -10.54406,1.67001 v 0 c -3.76213,-0.003 -7.52423,-0.008 -11.28635,0.008 -3.67745,0.007 -7.35481,-1.7e-4 -11.032243,-0.0125 -5.830279,-0.008 -11.660513,-0.0333 -17.490816,-0.0272 -6.089491,-10e-4 -12.179406,-0.0171 -18.268436,0.071 0,0 11.037501,-1.74816 11.037501,-1.74816 z"
       inkscape:connector-curvature="0" />
    <path
       style="fill:#000000;fill-opacity:1;fill-rule:nonzero;stroke:none;stroke-width:0.26458332"
       id="path869"
       d="m 83.726553,86.194534 c -2.906037,1.684152 -5.714359,3.48185 -8.282971,5.654786 -1.925796,1.808038 -3.870362,3.731382 -5.031195,6.135777 -0.574273,1.501098 -0.648653,3.111583 -0.63187,4.700433 0.03633,0.13306 0.04019,0.27963 0.108979,0.39918 0.203557,0.35376 0.308446,0.0629 0.633233,0.17744 0.281426,0.0992 0.546396,0.25003 0.787241,0.4262 0.927854,0.67872 1.769885,1.46847 2.682137,2.16802 4.104973,2.83048 7.837236,6.09389 11.271207,9.69913 1.665671,1.23408 2.578942,3.4725 4.470993,4.40566 0,0 -11.129521,1.06027 -11.129521,1.06027 v 0 c -1.494567,-1.41609 -2.542479,-3.23304 -4.031003,-4.66125 -3.332229,-3.64077 -7.074342,-6.8291 -11.240344,-9.49219 -0.598781,-0.40707 -1.192168,-0.8222 -1.796344,-1.22122 -1.263859,-0.8347 -2.865331,-1.2217 -2.901267,-2.98054 0.07689,-1.74413 0.168307,-3.497747 0.745627,-5.163987 1.187133,-2.610913 3.300704,-4.613971 5.353384,-6.570712 2.432563,-2.173235 5.064633,-4.079267 7.872452,-5.736019 0,0 11.119262,0.999022 11.119262,0.999022 z"
       inkscape:connector-curvature="0" />
  </g>
</svg>
