<?xml version="1.0" encoding="UTF-8" standalone="no"?>
<!-- Created with Inkscape (http://www.inkscape.org/) -->

<svg
   xmlns:dc="http://purl.org/dc/elements/1.1/"
   xmlns:cc="http://creativecommons.org/ns#"
   xmlns:rdf="http://www.w3.org/1999/02/22-rdf-syntax-ns#"
   xmlns:svg="http://www.w3.org/2000/svg"
   xmlns="http://www.w3.org/2000/svg"
   xmlns:sodipodi="http://sodipodi.sourceforge.net/DTD/sodipodi-0.dtd"
   xmlns:inkscape="http://www.inkscape.org/namespaces/inkscape"
   width="83.585884mm"
   height="69.782967mm"
   viewBox="0 0 83.585884 69.782967"
   version="1.1"
   id="svg8"
   sodipodi:docname="icon_deletetree.svg"
   inkscape:version="0.92.2 (unknown)">
  <defs
     id="defs2" />
  <sodipodi:namedview
     id="base"
     pagecolor="#ffffff"
     bordercolor="#666666"
     borderopacity="1.0"
     inkscape:pageopacity="0.0"
     inkscape:pageshadow="2"
     inkscape:zoom="0.35"
     inkscape:cx="221.22166"
     inkscape:cy="-120.60058"
     inkscape:document-units="mm"
     inkscape:current-layer="layer1"
     showgrid="false"
     inkscape:window-width="1152"
     inkscape:window-height="915"
     inkscape:window-x="1139"
     inkscape:window-y="524"
     inkscape:window-maximized="0" />
  <metadata
     id="metadata5">
    <rdf:RDF>
      <cc:Work
         rdf:about="">
        <dc:format>image/svg+xml</dc:format>
        <dc:type
           rdf:resource="http://purl.org/dc/dcmitype/StillImage" />
        <dc:title></dc:title>
      </cc:Work>
    </rdf:RDF>
  </metadata>
  <g
     inkscape:label="Layer 1"
     inkscape:groupmode="layer"
     id="layer1"
     transform="translate(-47.301769,-47.14146)">
    <path
       style="fill:#000000;fill-opacity:1;fill-rule:nonzero;stroke:none;stroke-width:0.26458332"
       id="path817"
       d="m 86.070984,52.19384 c -0.305991,0.03043 -0.623493,0.0028 -0.917975,0.09129 -4.257471,1.279993 -8.26613,5.827659 -11.017649,9.073747 -4.570846,6.093527 -5.888704,13.47098 -6.661332,20.857078 -0.446247,5.28847 -0.804752,10.763033 1.768186,15.621174 0.474991,0.896864 1.119106,1.693379 1.67866,2.540061 4.685995,5.31501 11.118678,6.36527 17.798332,7.22235 8.081659,0.42719 -3.25901,0.36163 -4.87331,0.17162 -0.77906,-0.0917 1.55638,-0.27432 2.283688,-0.56821 2.535679,-1.02459 3.92965,-3.00014 5.426898,-5.15004 2.192057,-3.784777 3.838273,-7.838003 4.896143,-12.080909 0.49807,-1.997665 0.867709,-4.025199 1.31353,-6.03517 0.974598,-4.114919 1.514318,-8.299516 1.765178,-12.514577 -0.132276,-1.531744 0.416576,-4.058033 -0.118576,-5.494086 -0.09935,-0.26661 -0.290311,-0.489418 -0.435467,-0.734126 -2.303915,-1.572543 -5.319429,-1.530033 -8.005717,-1.662467 -3.814628,0.02331 -7.595291,-0.155064 -11.248599,-1.31663 -1.678686,-0.772509 -0.906865,-0.332801 -2.330985,-1.291506 0,0 10.931459,-1.11334 10.931459,-1.11334 v 0 c 1.326777,0.74902 0.608063,0.401103 2.170044,1.014534 3.643159,0.986753 7.384084,0.993969 11.135638,1.08434 2.95853,0.20838 6.37432,0.271182 8.37697,2.783641 0.14398,0.347276 0.32916,0.68021 0.43194,1.041829 0.52934,1.862442 -0.0573,3.883639 -0.0404,5.769467 -0.38806,4.276145 -1.12796,8.512966 -2.20671,12.670364 -1.53198,6.337689 -2.91811,12.739372 -6.15777,18.486746 -1.45223,2.35447 -2.842753,4.5586 -5.389444,5.88872 -5.3477,2.79308 -12.303863,1.03486 -18.179878,0.52739 -7.026283,-1.0781 -13.167172,-2.33536 -17.917877,-8.10921 -0.564711,-0.91207 -1.215453,-1.776187 -1.694135,-2.736207 -2.521691,-5.057375 -2.175468,-10.678705 -1.64611,-16.127944 0.864716,-7.539511 2.237615,-15.126266 6.736169,-21.447649 3.14039,-3.933859 6.538373,-7.796985 11.037488,-10.219007 0,0 11.091561,1.75673 11.091561,1.75673 z"
       inkscape:connector-curvature="0" />
    <path
       style="fill:#000000;fill-opacity:1;fill-rule:nonzero;stroke:none;stroke-width:0.26458332"
       id="path819"
       d="m 105.84225,49.092738 c -5.51289,9.185545 -12.483914,17.347028 -19.303073,25.565222 -6.554755,7.706161 -12.881183,15.614446 -18.438264,24.078422 -2.484853,3.784668 -3.304567,5.303518 -5.496034,9.076498 -1.728372,2.91034 -3.073942,6.01285 -4.41521,9.11155 0,0 -10.491266,-0.46168 -10.491266,-0.46168 v 0 c 1.584947,-3.12038 3.152463,-6.25583 5.068665,-9.19249 7.536309,-11.629207 15.857498,-22.698019 24.878342,-33.22358 6.40965,-7.930052 13.177911,-15.917291 17.053123,-25.470988 0,0 11.143717,0.517046 11.143717,0.517046 z"
       inkscape:connector-curvature="0" />
    <path
       style="fill:#000000;fill-opacity:1;fill-rule:nonzero;stroke:none;stroke-width:0.26458332"
       id="path821"
       d="m 58.531574,47.14146 c -0.06678,0.761066 -0.187127,1.717908 -0.0145,2.442094 1.466413,6.152075 8.564856,12.255608 12.824354,16.287548 13.655646,11.478281 27.697176,22.532197 42.261442,32.838673 3.30539,2.430845 6.752,4.692135 10.00012,7.202345 1.43327,1.10764 2.69772,2.38833 4.01516,3.62421 0.81099,0.52678 1.23571,1.44732 1.90915,2.09924 0.40342,0.39053 0.93059,0.73055 1.36035,1.10683 0,0 -11.14254,0.93113 -11.14254,0.93113 v 0 c -1.09183,-1.02901 -2.01066,-2.18316 -3.03521,-3.27913 -3.76671,-4.03705 -8.11532,-7.43553 -12.47699,-10.808333 C 90.258499,88.69959 76.574477,77.442128 62.558641,66.607179 57.48734,62.224088 50.011181,56.388415 47.677977,49.702561 c -0.236114,-0.676596 -0.307774,-1.78122 -0.376208,-2.561101 0,0 11.229816,0 11.229816,0 z"
       inkscape:connector-curvature="0" />
  </g>
</svg>
