<?xml version="1.0" encoding="UTF-8" standalone="no"?>
<!-- Created with Inkscape (http://www.inkscape.org/) -->

<svg
   xmlns:dc="http://purl.org/dc/elements/1.1/"
   xmlns:cc="http://creativecommons.org/ns#"
   xmlns:rdf="http://www.w3.org/1999/02/22-rdf-syntax-ns#"
   xmlns:svg="http://www.w3.org/2000/svg"
   xmlns="http://www.w3.org/2000/svg"
   xmlns:sodipodi="http://sodipodi.sourceforge.net/DTD/sodipodi-0.dtd"
   xmlns:inkscape="http://www.inkscape.org/namespaces/inkscape"
   width="55.536301mm"
   height="36.400185mm"
   viewBox="0 0 55.536301 36.400185"
   version="1.1"
   id="svg8"
   sodipodi:docname="icon_removethreat.svg"
   inkscape:version="0.92.2 (unknown)">
  <defs
     id="defs2" />
  <sodipodi:namedview
     id="base"
     pagecolor="#ffffff"
     bordercolor="#666666"
     borderopacity="1.0"
     inkscape:pageopacity="0.0"
     inkscape:pageshadow="2"
     inkscape:zoom="0.98994949"
     inkscape:cx="-213.35993"
     inkscape:cy="-209.92182"
     inkscape:document-units="mm"
     inkscape:current-layer="layer1"
     showgrid="false"
     inkscape:window-width="2495"
     inkscape:window-height="1416"
     inkscape:window-x="65"
     inkscape:window-y="24"
     inkscape:window-maximized="1"
     fit-margin-top="0"
     fit-margin-left="0"
     fit-margin-right="0"
     fit-margin-bottom="0" />
  <metadata
     id="metadata5">
    <rdf:RDF>
      <cc:Work
         rdf:about="">
        <dc:format>image/svg+xml</dc:format>
        <dc:type
           rdf:resource="http://purl.org/dc/dcmitype/StillImage" />
        <dc:title></dc:title>
      </cc:Work>
    </rdf:RDF>
  </metadata>
  <g
     inkscape:label="Layer 1"
     inkscape:groupmode="layer"
     id="layer1"
     transform="translate(-2.7362771,-12.668715)">
    <path
       style="fill:#000000;fill-opacity:1;fill-rule:nonzero;stroke:none;stroke-width:0.26458332"
       id="path865"
       d="m 17.168151,13.637209 c -0.07601,3.171225 -0.08303,6.343951 -0.100436,9.515961 -0.02839,4.793558 -0.02096,9.587213 -0.0043,14.380793 0.02074,2.928858 0.04368,5.857716 0.07608,8.786471 0.0089,0.640231 0.01256,1.280679 0.03023,1.920767 0.0095,0.342553 0.02006,0.404661 0.02129,0.401664 0.05163,-0.125966 0.0696,-0.263226 0.104408,-0.394838 -1.720845,-0.01371 -3.442412,0.01058 -5.162533,-0.04113 -0.282079,-0.0085 0.561213,-0.06004 0.841951,-0.08879 0.422106,-0.04323 0.843823,-0.09077 1.266573,-0.127156 1.807263,-0.155557 3.618959,-0.232482 5.430599,-0.314667 2.382114,-0.102732 4.765748,-0.166687 7.149837,-0.196971 1.01972,0.04348 2.023758,-0.135914 3.031627,-0.253223 0.919488,-0.09936 1.845146,-0.115032 2.769066,-0.126441 3.011244,-0.01582 6.022573,-0.0047 9.033854,-0.0021 1.136629,0.0013 2.27326,5.29e-4 3.409889,-0.0019 2.219632,-0.0016 6.805967,0.01728 -2.878603,-0.01635 0.09369,-0.01156 0.499806,-0.04404 0.609904,-0.115303 0.478438,-0.309679 0.460121,-1.681149 0.496496,-2.157854 0.07939,-1.719715 0.06389,-3.442341 0.04851,-5.163334 -0.01294,-1.206812 -0.02492,-2.413642 -0.03423,-3.620489 -0.0059,-0.806117 -0.007,-1.612257 -0.0076,-2.418392 -0.0058,-1.203058 0.02368,-2.405878 0.04053,-3.608747 0.02477,-2.40532 0.03319,-4.807674 -0.09877,-7.209837 -0.134824,-1.545827 -0.383453,-3.07806 -0.601015,-4.613525 -0.08492,-0.61087 -0.106375,-1.226683 -0.103947,-1.842495 0.0028,-0.664018 0.0021,-1.328032 2.65e-4,-1.992036 0.01963,-0.375223 -0.02671,-0.796539 -0.478462,-0.783877 -0.8343,0.02363 -1.669706,0.01069 -2.504366,0.01093 9.807205,-0.0096 2.154095,0.0053 -0.114398,0.0069 -1.837597,8.21e-4 -3.675194,0.0039 -5.512789,0.0046 -3.012504,0.0032 -6.02501,5.82e-4 -9.037514,0.0034 -1.068641,-6.88e-4 -2.137282,-0.0015 -3.205923,-0.0013 -0.552972,-7.94e-4 -1.105943,2.91e-4 -1.658914,7.14e-4 -0.162619,1.3e-4 -0.650476,5.9e-5 -0.487857,6.7e-5 5.146612,2.5e-4 6.767991,-0.0024 4.67013,7.67e-4 -0.699808,1.39e-4 -1.399613,9.53e-4 -2.099421,5.56e-4 -0.673826,-3.97e-4 -1.347652,-3.71e-4 -2.021477,6.88e-4 0,0 -5.56774,-0.881844 -5.56774,-0.881844 v 0 c 0.676755,0.0011 1.35351,0.0011 2.030265,6.88e-4 0.702184,-3.97e-4 1.404365,4.24e-4 2.106548,5.56e-4 2.853559,0.0042 5.707128,-3.7e-4 8.560691,0.0016 1.073891,2.01e-4 2.147784,-5.82e-4 3.221678,-0.0012 0.415599,4.24e-4 0.489291,4.5e-4 0.916024,0.0011 0.181213,2.59e-4 0.724853,7.93e-4 0.54364,8.46e-4 -9.045537,0.0023 -5.448207,-0.0014 -3.475585,0.0015 1.8454,3.18e-4 3.690799,0.0027 5.536199,-2.59e-4 3.704313,-0.0062 7.408614,-0.0174 11.112942,-0.01272 0.847032,0.0013 1.818156,-0.132622 2.602471,0.241317 0.38808,0.382635 0.532863,0.860912 0.498761,1.406345 -0.0049,0.662153 -0.01122,1.324359 -0.0047,1.986533 0.01127,0.5932 0.02138,1.187226 0.09046,1.777271 0.165357,1.551918 0.3864,3.097871 0.509741,4.654188 0.11862,2.412123 0.122917,4.823771 0.116406,7.238578 0.0168,1.202862 0.04628,2.405671 0.04029,3.608718 -5.3e-4,0.805714 -0.0016,1.611429 -0.0042,2.417138 -0.0038,1.206463 -0.0057,2.41292 -0.0056,3.619389 -7.94e-4,1.7346 0.02016,3.47014 -0.04882,5.203806 -0.04504,0.738968 -0.0071,2.512481 -0.755578,2.976123 -0.106709,0.0661 -0.245129,0.05422 -0.367692,0.08132 -2.744552,0.0333 -5.488445,0.08408 -8.233087,0.07383 -1.123376,-0.0029 -2.246754,-0.0045 -3.370132,-0.0047 -1.999062,-7.93e-4 -5.582825,2.65e-4 3.538251,7.94e-4 0.174834,8e-6 -0.393922,-7.94e-4 -1.030221,1.77e-4 -0.16051,2.31e-4 -0.321016,7.94e-4 -0.481523,0.0011 -0.919234,0.0046 -1.83973,0.0081 -2.756964,0.0751 -1.027194,0.09146 -2.041633,0.323925 -3.07594,0.29925 -2.427676,0.01376 -4.855152,0.06181 -7.281081,0.15722 -1.784797,0.07542 -3.569765,0.146085 -5.350325,0.295892 -0.405441,0.03411 -0.810582,0.07288 -1.21465,0.120581 -0.266455,0.03146 -0.528151,0.110993 -0.796393,0.11684 -1.995926,0.04351 -3.992747,0.02072 -5.98912,0.03109 -0.05562,-0.141957 -0.124469,-0.279421 -0.166867,-0.425874 -0.03728,-0.128785 0.01759,-0.267639 0.02129,-0.401663 0.01767,-0.640088 0.02134,-1.280536 0.03023,-1.920767 0.0324,-2.928755 0.05534,-5.857613 0.07609,-8.786471 0.01667,-4.793581 0.02409,-9.587235 -0.0043,-14.380793 -0.01741,-3.172011 -0.02442,-6.344736 -0.100436,-9.515961 0,0 5.610111,0 5.610111,0 z"
       inkscape:connector-curvature="0" />
    <path
       style="fill:#000000;fill-opacity:1;fill-rule:nonzero;stroke:none;stroke-width:0.26458332"
       id="path867"
       d="m 8.2666278,30.466792 c 2.5755972,0.01042 5.1512262,0.0079 7.7268382,0.0071 2.473429,-0.0013 4.946857,-7.93e-4 7.420285,-0.0016 2.789033,0.0013 5.578063,0.0035 8.367096,0.0029 2.417459,-0.0013 4.834914,-0.0035 7.252372,-0.0037 1.663851,5.29e-4 3.327702,-0.0033 4.991553,-0.0042 1.165497,-5.29e-4 2.330995,7.4e-5 3.496492,-0.0011 1.088403,1.69e-4 2.176804,0.0011 3.265207,1.96e-4 1.037201,-7.94e-4 2.074402,7.94e-4 3.111603,-1.85e-4 0.945862,-0.06095 1.866628,0.04662 2.794479,0.215593 0.520782,0.125587 1.097169,0.01998 1.580026,0.258093 0,0 -5.594893,0.72758 -5.594893,0.72758 v 0 c -0.521295,-0.02961 -1.03724,-0.11589 -1.552511,-0.197051 -0.918697,-0.135628 -1.839614,-0.146283 -2.767264,-0.126741 -1.036415,-7.93e-4 -2.072833,5.29e-4 -3.109251,-1.88e-4 -1.089226,-7.93e-4 -2.178449,3.8e-5 -3.267675,1.96e-4 -1.160606,-0.0013 -2.321209,-7.93e-4 -3.481817,-0.0011 -1.645988,-0.0011 -3.291974,-0.0048 -4.937966,-0.0042 -2.401729,-2.39e-4 -4.803455,-0.0026 -7.205184,-0.0037 -2.801232,-5.29e-4 -5.602461,0.0016 -8.403692,0.0029 -2.466319,-0.0011 -4.932638,-2.64e-4 -7.398956,-0.0016 -2.6056974,-7.94e-4 -5.2114103,-0.0031 -7.8170929,0.0071 0,0 5.5303507,-0.875922 5.5303507,-0.875922 z"
       inkscape:connector-curvature="0" />
  </g>
</svg>
