<?xml version="1.0" encoding="UTF-8" standalone="no"?>
<!-- Created with Inkscape (http://www.inkscape.org/) -->

<svg
   xmlns:dc="http://purl.org/dc/elements/1.1/"
   xmlns:cc="http://creativecommons.org/ns#"
   xmlns:rdf="http://www.w3.org/1999/02/22-rdf-syntax-ns#"
   xmlns:svg="http://www.w3.org/2000/svg"
   xmlns="http://www.w3.org/2000/svg"
   xmlns:sodipodi="http://sodipodi.sourceforge.net/DTD/sodipodi-0.dtd"
   xmlns:inkscape="http://www.inkscape.org/namespaces/inkscape"
   width="72.284866mm"
   height="68.650352mm"
   viewBox="0 0 72.284866 68.650352"
   version="1.1"
   id="svg8"
   inkscape:version="0.92.2 (unknown)"
   sodipodi:docname="icon_restorecharge.svg">
  <defs
     id="defs2" />
  <sodipodi:namedview
     id="base"
     pagecolor="#ffffff"
     bordercolor="#666666"
     borderopacity="1.0"
     inkscape:pageopacity="0.0"
     inkscape:pageshadow="2"
     inkscape:zoom="0.7"
     inkscape:cx="108.79635"
     inkscape:cy="52.0753"
     inkscape:document-units="mm"
     inkscape:current-layer="layer1"
     showgrid="false"
     inkscape:window-width="1149"
     inkscape:window-height="685"
     inkscape:window-x="153"
     inkscape:window-y="447"
     inkscape:window-maximized="0" />
  <metadata
     id="metadata5">
    <rdf:RDF>
      <cc:Work
         rdf:about="">
        <dc:format>image/svg+xml</dc:format>
        <dc:type
           rdf:resource="http://purl.org/dc/dcmitype/StillImage" />
        <dc:title></dc:title>
      </cc:Work>
    </rdf:RDF>
  </metadata>
  <g
     inkscape:label="Layer 1"
     inkscape:groupmode="layer"
     id="layer1"
     transform="translate(-17.924712,-17.94687)">
    <path
       style="fill:#000000;fill-opacity:1;fill-rule:nonzero;stroke:none;stroke-width:0.26458332"
       id="path819"
       d="m 54.372544,21.511759 c -1.653202,2.447137 -3.591327,4.680608 -5.374222,7.033147 -2.187244,2.69345 -4.431792,5.370547 -7.160197,7.532769 -1.592479,1.193896 -3.245199,2.299804 -4.83639,3.496395 -0.966303,0.654534 -1.821079,1.461183 -2.513449,2.400268 -0.321151,0.459322 -0.306107,1.010764 -0.395954,1.538716 -0.100494,0.486331 -0.293854,0.947997 -0.53463,1.380633 -0.110252,0.411649 -0.174615,0.809792 -0.367538,1.197417 -0.264541,0.481412 -0.522682,0.897125 -0.944386,1.25775 -0.403494,0.321011 -0.871397,0.552915 -1.283147,0.858107 -0.02098,0.01532 -0.07273,0.02191 -0.06292,0.04594 0.09902,0.242572 1.092562,1.197774 1.211498,1.302985 0.690779,0.611066 1.420018,1.177229 2.127861,1.768443 2.577401,1.748179 4.798367,3.952235 7.288096,5.807993 1.448972,0.94818 2.765713,2.072722 4.065516,3.211124 0.685146,0.570029 0.907769,1.423879 1.325163,2.16236 0.423106,0.895538 0.853252,1.779828 1.207238,2.705508 0.636204,1.276029 1.284192,2.54386 1.945987,3.808296 0.591785,1.170225 1.063566,2.384792 1.716889,3.523932 0.388591,0.733888 0.844402,1.426237 1.201158,2.176928 0.21626,0.635458 0.343429,1.266473 0.79811,1.777138 0.08307,0.05753 0.355166,0.253407 0.453298,0.29228 0.282014,0.111709 0.639971,0.116247 0.936839,0.145658 -1.685547,-0.02074 -3.371093,-0.04151 -5.05664,-0.06227 0.147942,-0.04481 0.308017,-0.06061 0.443823,-0.134434 0.895545,-0.48686 2.128882,-2.194426 2.733344,-3.02378 1.044429,-1.671757 2.45328,-3.089043 3.944326,-4.363903 1.295773,-1.187469 2.733265,-2.206543 4.07855,-3.333022 0.864407,-0.723816 1.232312,-1.118029 2.03065,-1.905098 1.902172,-1.773172 3.812096,-3.539831 5.701689,-5.326856 0.95278,-1.072793 1.963227,-2.132571 2.68134,-3.384198 0.250577,-0.602486 0.745001,-1.019088 1.117534,-1.535354 0.505098,-0.49734 1.14091,-0.812776 1.69255,-1.261168 0.509749,-0.3664 0.499396,-1.00144 0.549341,-1.57231 0.05265,-0.958514 0.03666,-1.919923 0.0254,-2.879566 -0.0665,-0.443259 0.07581,-0.957877 -0.07572,-1.391656 -0.0679,-0.194373 -0.381381,-0.564983 -0.465518,-0.675187 -1.722411,-2.087552 -3.903406,-3.725913 -6.035625,-5.367753 -2.735932,-2.057921 -5.562602,-3.990295 -8.322992,-6.014072 -2.520498,-1.814756 -5.065827,-3.595253 -7.606988,-5.381037 -1.821124,-1.317051 -3.507724,-2.806613 -5.287214,-4.175637 -0.63128,-0.386733 -1.084876,-1.228279 -1.818248,-1.466004 -0.09866,-0.03198 -0.414832,8.73e-4 -0.311129,0.0025 1.762347,0.02693 3.524766,0.04905 5.28715,0.07357 0,0 -5.530649,-0.761556 -5.530649,-0.761556 v 0 c 6.296943,-0.02437 4.764987,-1.019695 7.724582,1.675255 1.656273,1.428033 3.305352,2.865099 5.068189,4.163327 2.491174,1.820392 5.035291,3.563184 7.518768,5.394256 2.757768,2.009889 5.550109,3.972076 8.273076,6.029865 2.249083,1.71088 4.564306,3.374699 6.478053,5.470573 0.138941,0.179884 0.298352,0.345675 0.416824,0.539654 0.347605,0.569148 0.160439,1.259152 0.190506,1.881775 -0.0037,0.971566 -0.0016,1.943031 -0.01577,2.914444 -0.02336,0.703085 -0.01307,1.500343 -0.516208,2.047999 -0.542877,0.397211 -1.015889,0.876649 -1.682506,1.069007 -0.334272,0.579837 -0.855636,0.935265 -1.171644,1.521563 -0.835671,1.290957 -1.931151,2.374876 -2.960098,3.510999 -1.923137,1.771002 -3.85486,3.532833 -5.77646,5.305711 -0.616357,0.611164 -1.387228,1.396966 -2.045149,1.962005 -1.306719,1.122246 -2.722798,2.122357 -3.965591,3.321462 -1.446549,1.243444 -2.850547,2.620188 -3.869248,4.241223 -0.675436,0.962351 -1.408682,1.870798 -2.167972,2.768018 -0.144825,0.171135 -0.271894,0.358545 -0.431917,0.515559 -0.132138,0.129652 -0.293015,0.226322 -0.439523,0.339485 -1.756849,0.01222 -5.636897,1.102958 -7.339433,-0.809109 -0.388488,-0.577906 -0.525989,-1.248048 -0.785172,-1.887001 -0.36694,-0.724934 -0.767408,-1.431983 -1.137105,-2.155446 -0.600162,-1.15202 -1.016207,-2.376588 -1.609707,-3.531005 -0.714277,-1.271902 -1.368549,-2.573256 -2.045377,-3.864869 -0.384527,-0.899433 -0.808612,-1.78004 -1.263586,-2.646111 -0.353007,-0.702379 -0.63885,-1.440416 -1.242809,-1.980433 -1.199036,-1.154303 -2.487864,-2.208295 -3.834008,-3.186999 -1.030002,-0.830043 -1.961253,-1.746292 -2.963096,-2.608323 -1.335976,-1.149535 -2.750198,-2.20749 -4.193235,-3.217696 -0.886944,-0.671005 -3.685184,-2.460464 -3.843871,-3.685805 -0.01877,-0.144946 0.05005,-0.287996 0.07508,-0.431995 0.247611,-0.153877 0.126397,-0.0625 0.358763,-0.280483 0.305972,-0.205083 0.702571,-0.288702 0.957659,-0.582366 0.583327,-0.258916 0.600805,-0.511834 0.891013,-1.035336 0.298395,-0.299101 0.256384,-0.725659 0.348324,-1.113536 0.168709,-0.427349 0.548227,-0.764865 0.562936,-1.255421 0.157207,-0.587023 0.08238,-1.237573 0.449701,-1.769462 0.716854,-1.003051 1.694067,-1.844918 2.691395,-2.554417 1.64782,-1.195388 3.332723,-2.335104 5.020305,-3.473342 2.845696,-2.050108 5.237183,-4.631568 7.418691,-7.367121 1.64732,-2.288763 3.51889,-4.49049 4.73451,-7.047066 0,0 5.541311,0.326206 5.541311,0.326206 z"
       inkscape:connector-curvature="0" />
    <path
       style="fill:#000000;fill-opacity:1;fill-rule:nonzero;stroke:none;stroke-width:0.26458332"
       id="path821"
       d="m 17.924712,47.856303 c 5.602234,-0.231968 11.215258,-0.199178 16.822083,-0.237545 7.254393,-0.05931 14.509096,-0.04617 21.763653,-0.03907 8.42704,0.07644 16.85558,-0.105366 25.28152,0.06775 2.110446,0.04361 4.218887,0.15248 6.329137,0.201224 0.696069,0.01479 1.392299,0.01336 2.088476,0.01222 0,0 -5.481598,0.866605 -5.481598,0.866605 v 0 c -0.667219,-0.0049 -1.334373,-0.01799 -2.001208,-0.04175 -1.911876,-0.07634 -3.820411,-0.220623 -5.732621,-0.292206 -5.430293,-0.197741 -10.86408,-0.162091 -16.297153,-0.150865 -7.223128,0.01066 -14.446263,0.0226 -21.669346,0.051 -5.196631,0.03804 -10.398731,0.04241 -15.58839,0.342929 0,0 -5.514553,-0.780299 -5.514553,-0.780299 z"
       inkscape:connector-curvature="0" />
    <path
       style="fill:#000000;fill-opacity:1;fill-rule:nonzero;stroke:none;stroke-width:0.26458332"
       id="path823"
       d="m 56.080067,17.94687 c -0.226317,2.681102 -0.283179,5.374376 -0.322009,8.06371 -0.05847,4.177616 -0.01693,8.356159 0.0258,12.533787 -0.03245,3.815787 0.01087,7.631562 0.01037,11.447261 0.01109,3.929455 -0.04429,7.858427 -0.04149,11.787955 0.03048,3.590639 0.100434,7.17841 -0.03249,10.767375 -0.107842,2.594417 -0.128834,5.190786 -0.126135,7.787037 -3.7e-5,1.321617 0.02824,2.643396 0.07485,3.964074 0.01397,0.682321 0.0226,1.364819 0.02864,2.047227 0.0026,0.0838 0.0052,0.167598 0.0078,0.251399 0,0 -5.578099,5.29e-4 -5.578099,5.29e-4 v 0 c 0.0024,-0.08378 0.0049,-0.167552 0.0073,-0.25133 0.0048,-0.682644 0.01119,-1.36539 0.02439,-2.047954 0.04767,-1.32424 0.08745,-2.648892 0.129103,-3.973468 0.09672,-2.600005 0.249402,-5.197372 0.365673,-7.796532 0.137509,-3.581586 0.175263,-7.163964 0.182758,-10.748275 0.0028,-3.929528 -0.05257,-7.8585 -0.04149,-11.787954 -5.29e-4,-3.8157 0.04282,-7.631475 0.01037,-11.447262 0.04274,-4.177628 0.08428,-8.356171 0.0258,-12.533787 -0.03883,-2.689334 -0.09569,-5.382608 -0.322006,-8.06371 0,0 5.570847,0 5.570847,0 z"
       inkscape:connector-curvature="0" />
  </g>
</svg>
