<?xml version="1.0" encoding="UTF-8" standalone="no"?>
<!-- Created with Inkscape (http://www.inkscape.org/) -->

<svg
   xmlns:dc="http://purl.org/dc/elements/1.1/"
   xmlns:cc="http://creativecommons.org/ns#"
   xmlns:rdf="http://www.w3.org/1999/02/22-rdf-syntax-ns#"
   xmlns:svg="http://www.w3.org/2000/svg"
   xmlns="http://www.w3.org/2000/svg"
   xmlns:sodipodi="http://sodipodi.sourceforge.net/DTD/sodipodi-0.dtd"
   xmlns:inkscape="http://www.inkscape.org/namespaces/inkscape"
   width="45.911156mm"
   height="50.812134mm"
   viewBox="0 0 45.911156 50.812134"
   version="1.1"
   id="svg8"
   inkscape:version="0.92.2 (unknown)"
   sodipodi:docname="icon_lowesthp.svg">
  <defs
     id="defs2" />
  <sodipodi:namedview
     id="base"
     pagecolor="#ffffff"
     bordercolor="#666666"
     borderopacity="1.0"
     inkscape:pageopacity="0.0"
     inkscape:pageshadow="2"
     inkscape:zoom="0.98994949"
     inkscape:cx="221.19793"
     inkscape:cy="-189.3829"
     inkscape:document-units="mm"
     inkscape:current-layer="layer1"
     showgrid="false"
     fit-margin-top="0"
     fit-margin-left="0"
     fit-margin-right="0"
     fit-margin-bottom="0"
     inkscape:window-width="2495"
     inkscape:window-height="1416"
     inkscape:window-x="65"
     inkscape:window-y="24"
     inkscape:window-maximized="1" />
  <metadata
     id="metadata5">
    <rdf:RDF>
      <cc:Work
         rdf:about="">
        <dc:format>image/svg+xml</dc:format>
        <dc:type
           rdf:resource="http://purl.org/dc/dcmitype/StillImage" />
        <dc:title></dc:title>
      </cc:Work>
    </rdf:RDF>
  </metadata>
  <g
     inkscape:label="Layer 1"
     inkscape:groupmode="layer"
     id="layer1"
     transform="translate(-38.650886,-28.339137)">
    <path
       style="fill:#000000;fill-opacity:1;fill-rule:nonzero;stroke:none;stroke-width:0.26458332"
       id="path815"
       d="m 42.553014,32.376184 c 4.189166,4.609245 8.259095,9.328441 12.057858,14.266552 1.094468,1.422731 2.154375,2.871714 3.231563,4.307571 3.734268,5.072665 6.888358,10.523278 10.176179,15.88391 0,0 -3.843845,0.202682 -3.843845,0.202682 v 0 C 61.185861,61.603805 58.165523,56.175994 54.485373,51.167503 53.399906,49.735266 52.335234,48.287032 51.228974,46.870794 47.329076,41.878138 43.121082,37.128555 38.650886,32.639875 c 0,0 3.902128,-0.263691 3.902128,-0.263691 z"
       inkscape:connector-curvature="0" />
    <path
       style="fill:#000000;fill-opacity:1;fill-rule:nonzero;stroke:none;stroke-width:0.26458332"
       id="path817"
       d="m 48.134134,31.826811 c 2.614002,0.01397 5.228051,0.0089 7.842073,0.0078 2.599201,-0.04946 5.19018,0.0069 7.778787,0.246404 2.33081,0.243922 4.639876,0.643959 6.957774,0.980614 2.262476,0.296225 4.547145,0.330748 6.825261,0.364718 1.158703,0.01267 2.31748,0.01683 3.476246,0.01656 0.30108,-6.9e-5 1.20432,-0.0011 0.90324,-0.0016 -2.73663,-0.0044 -4.295534,0.0021 -2.561484,-0.0042 1.574416,-0.0083 2.97828,-0.0181 4.679193,0.04559 0.08781,0.0033 0.178253,0.05247 0.234874,0.11966 0.252827,0.300014 0.256283,0.841256 0.291943,1.201235 -0.03794,0.228754 -0.0491,0.463598 -0.113831,0.686258 -0.223941,0.770353 -0.548198,1.280528 -0.954646,1.986153 -0.749051,1.300422 -1.569855,2.557619 -2.365108,3.829838 -1.190106,1.852089 -2.373415,3.71284 -3.300494,5.712902 -0.08914,0.270396 -0.183767,0.539046 -0.267425,0.811189 -0.2462,0.800883 -0.271098,1.026366 -0.547447,1.821095 -0.311515,0.895853 -0.685347,1.773293 -1.026401,2.658287 -0.413816,1.223635 -1.158816,2.26227 -1.941425,3.27314 -0.992923,0.94543 -1.459971,2.203958 -1.937877,3.454365 -0.250777,0.731062 -0.644133,1.410184 -0.882708,2.145739 -0.09637,0.297127 -0.236718,0.872993 -0.310655,1.164466 -0.126778,0.493696 -0.232307,0.992264 -0.334219,1.491528 0,0 -3.956971,-0.0845 -3.956971,-0.0845 v 0 c 0.115152,-0.502047 0.228629,-1.004578 0.359751,-1.502783 0.09844,-0.40472 0.168476,-0.816861 0.287158,-1.216112 0.221477,-0.745048 0.690356,-1.402101 0.930963,-2.140146 0.476244,-1.262999 0.886552,-2.636499 1.909643,-3.579209 0.799939,-0.959821 1.521889,-1.978311 1.971987,-3.153013 0.351221,-0.873464 0.727157,-1.741564 1.037405,-2.630765 0.298019,-0.854142 0.287393,-0.950924 0.538641,-1.82163 0.0833,-0.288674 0.174509,-0.575006 0.261763,-0.86251 0.950955,-2.02116 2.171102,-3.885943 3.387543,-5.755971 0.790908,-1.261618 1.597649,-2.51207 2.328574,-3.810002 0.362511,-0.643726 0.677508,-1.153256 0.879972,-1.854867 0.05394,-0.186923 0.05975,-0.384487 0.08962,-0.576728 -0.02236,-0.158412 -0.04385,-0.505108 -0.149579,-0.66597 -0.06727,-0.102356 -0.470498,-0.116303 -0.348023,-0.117917 1.08617,-0.01431 5.12784,-0.01394 3.138274,-0.01384 -3.174053,-2.65e-4 -6.348347,0.0098 -9.522254,-0.02862 -2.290506,-0.04058 -4.587888,-0.08589 -6.859611,-0.410774 -2.300052,-0.347329 -4.594905,-0.735988 -6.911216,-0.964266 -2.590406,-0.216193 -5.182925,-0.246649 -7.781607,-0.211804 -2.646897,-0.0011 -5.293815,-0.0059 -7.940691,0.0078 0,0 3.90299,-0.618172 3.90299,-0.618172 z"
       inkscape:connector-curvature="0" />
    <path
       style="fill:#000000;fill-opacity:1;fill-rule:nonzero;stroke:none;stroke-width:0.26458332"
       id="path819"
       d="m 64.516888,28.339137 c -0.139689,4.016957 -0.121835,8.037563 -0.104886,12.056305 0.06475,3.362071 -0.05537,6.726936 0.179943,10.083081 0.179549,2.215208 0.518337,4.416718 0.62321,6.637438 0.06038,2.086292 0.0592,4.173812 0.08862,6.260761 -0.0078,1.977895 -0.0241,3.955711 -0.01283,5.933651 -0.07278,1.501387 0.15781,2.989358 0.418856,4.462026 0,0 -3.959085,0.06286 -3.959085,0.06286 v 0 c -0.214349,-1.498444 -0.390866,-3.008482 -0.352798,-4.525156 0.01405,-1.977588 0.0027,-3.955116 -0.0051,-5.932688 0.02204,-2.080382 0.02188,-4.161608 -0.07712,-6.240346 -0.135551,-2.214549 -0.348424,-4.422389 -0.545473,-6.632123 -0.230119,-3.365529 -0.111665,-6.738448 -0.100137,-10.109499 0.01696,-4.018742 0.0348,-8.039348 -0.104886,-12.056305 0,0 3.95164,0 3.95164,0 z"
       inkscape:connector-curvature="0" />
    <path
       style="fill:#000000;fill-opacity:1;fill-rule:nonzero;stroke:none;stroke-width:0.26458332"
       id="path821"
       d="m 59.536483,69.778186 c 2.015855,0.0077 4.031739,0.0077 6.047607,0.0074 1.567236,-0.0033 3.134463,-0.0051 4.701702,-0.0042 1.057015,0.103529 2.335487,-0.20892 3.34251,0.154054 0.06271,0.0633 0.153514,0.107783 0.188127,0.189884 0.218154,0.517477 -0.351917,1.111596 -0.601644,1.490591 -0.456049,0.69212 -0.404979,0.624091 -0.869112,1.383207 -0.62653,1.180782 -1.343874,2.309109 -2.097333,3.412045 -0.64498,0.753499 -1.402411,1.42444 -2.174878,2.046939 -1.633688,1.128196 -2.755741,0.632428 -5.248605,0.229856 -0.211617,-0.03417 -0.290203,-0.315703 -0.429086,-0.478983 -0.187629,-0.220593 -0.36681,-0.448236 -0.550217,-0.672354 -0.8964,-1.078865 -1.656013,-2.263944 -2.531827,-3.358403 -0.186555,-0.23313 -1.099415,-1.277562 -1.321316,-1.532499 -0.614555,-0.70032 -1.221822,-1.408089 -1.806455,-2.133264 -0.176634,-0.243903 -0.278062,-0.528373 -0.374918,-0.810453 0,0 3.987443,-0.134085 3.987443,-0.134085 v 0 c 0.08638,0.242416 0.187873,0.477414 0.356643,0.676066 0.567954,0.713687 1.124865,1.43642 1.722524,2.125815 0.290568,0.343782 1.043239,1.229898 1.303811,1.557626 0.871776,1.09646 1.636922,2.275398 2.559868,3.33153 0.192603,0.211982 0.373803,0.434917 0.577813,0.635948 0.138155,0.136136 0.638209,0.344712 0.446365,0.373279 -1.186378,0.176676 -2.399183,0.03522 -3.597108,0.09592 -0.102468,0.0052 0.197585,0.08342 0.299453,0.07119 0.08414,-0.01011 0.630047,-0.319961 0.669856,-0.341805 0.787492,-0.555604 1.478153,-1.244632 2.152843,-1.928736 0.80269,-1.069006 1.544825,-2.18554 2.159087,-3.374713 0.420939,-0.729223 0.414798,-0.741309 0.843571,-1.405178 0.184957,-0.286366 0.405368,-0.549658 0.578951,-0.843058 0.03412,-0.05767 -0.383154,-0.127923 -0.182266,-0.08477 -1.08085,-0.163764 -2.190544,-0.0021 -3.278016,-0.06209 -1.549384,7.94e-4 -3.098757,-7.93e-4 -4.648139,-0.0042 -2.047195,-2.64e-4 -4.094403,-9e-5 -6.141582,0.0074 0,0 3.914328,-0.619969 3.914328,-0.619969 z"
       inkscape:connector-curvature="0" />
  </g>
</svg>
