<?xml version="1.0" encoding="UTF-8" standalone="no"?>
<!-- Created with Inkscape (http://www.inkscape.org/) -->

<svg
   xmlns:dc="http://purl.org/dc/elements/1.1/"
   xmlns:cc="http://creativecommons.org/ns#"
   xmlns:rdf="http://www.w3.org/1999/02/22-rdf-syntax-ns#"
   xmlns:svg="http://www.w3.org/2000/svg"
   xmlns="http://www.w3.org/2000/svg"
   xmlns:sodipodi="http://sodipodi.sourceforge.net/DTD/sodipodi-0.dtd"
   xmlns:inkscape="http://www.inkscape.org/namespaces/inkscape"
   version="1.1"
   id="svg2"
   xml:space="preserve"
   width="77.857628"
   height="110.73087"
   viewBox="0 0 77.857628 110.73086"
   sodipodi:docname="icon_7.svg"
   inkscape:version="0.92.2 (unknown)"><metadata
     id="metadata8"><rdf:RDF><cc:Work
         rdf:about=""><dc:format>image/svg+xml</dc:format><dc:type
           rdf:resource="http://purl.org/dc/dcmitype/StillImage" /><dc:title></dc:title></cc:Work></rdf:RDF></metadata><defs
     id="defs6"><clipPath
       clipPathUnits="userSpaceOnUse"
       id="clipPath479"><rect
         style="fill:#ffffff;stroke-width:0.00104443"
         id="rect481"
         width="0.069357209"
         height="0.13559325"
         x="0.61693102"
         y="-0.36917371"
         ry="0.0034221329" /></clipPath><clipPath
       clipPathUnits="userSpaceOnUse"
       id="clipPath483"><rect
         style="fill:#ffffff;stroke-width:0.00104443"
         id="rect485"
         width="0.069357209"
         height="0.13559325"
         x="0.61693102"
         y="-0.36917371"
         ry="0.0034221329" /></clipPath><clipPath
       clipPathUnits="userSpaceOnUse"
       id="clipPath487"><rect
         style="fill:#ffffff;stroke-width:0.00104443"
         id="rect489"
         width="0.069357209"
         height="0.13559325"
         x="0.61693102"
         y="-0.36917371"
         ry="0.0034221329"
         transform="scale(1,-1)" /></clipPath><clipPath
       clipPathUnits="userSpaceOnUse"
       id="clipPath491"><rect
         style="fill:#ffffff;stroke-width:0.00104443"
         id="rect493"
         width="0.069357209"
         height="0.13559325"
         x="0.61693102"
         y="-0.36917371"
         ry="0.0034221329"
         transform="scale(1,-1)" /></clipPath></defs><sodipodi:namedview
     pagecolor="#ffffff"
     bordercolor="#666666"
     borderopacity="1"
     objecttolerance="10"
     gridtolerance="10"
     guidetolerance="10"
     inkscape:pageopacity="0"
     inkscape:pageshadow="2"
     inkscape:window-width="2495"
     inkscape:window-height="1416"
     id="namedview4"
     showgrid="false"
     inkscape:zoom="2.3119122"
     inkscape:cx="-112.49422"
     inkscape:cy="132.70594"
     inkscape:window-x="65"
     inkscape:window-y="24"
     inkscape:window-maximized="1"
     inkscape:current-layer="g12" /><g
     id="g10"
     inkscape:groupmode="layer"
     inkscape:label="scan_symbols_1"
     transform="matrix(1.3333333,0,0,-1.3333333,-692.54207,301.48201)"><g
       id="g12"
       transform="scale(841.92,612.48)"><path
         style="fill:#000000;stroke-width:0.00033422"
         d="m 0.46484852,0.23357358 c -0.0145635,0.0254171 0.0438173,0.006306 0.0385174,0.0461285 4.2722e-4,0.0555034 -0.071814,-0.01853 -0.0468621,0.0314619 -0.00876,0.0365709 0.0222513,0.0483096 0.0382736,0.0357483 -0.0332663,0.0143079 -0.0410621,-0.0522724 -0.0359323,-0.0452962 0.0490795,0.0341573 0.0708501,-0.0620148 0.006003,-0.0680408 z m 0.002572,0.004216 -5.7057e-4,-6.6213e-4 z M 0.1700105,0.23386548 c -0.0217285,0.0186133 0.0177469,0.0693293 -0.0118556,0.092483 0.0314292,0.031822 -0.001049,-0.0507556 0.0188677,-0.0666889 0.008865,-0.008747 -0.001626,-0.0189817 -0.007012,-0.0257941 z m 0.00288,0.007697 c 0.0188717,0.0277535 -0.0306208,0.004221 0,0 z m -4.208e-4,0.0839421 c 0,0 0,0 0,0 z M 0.08996732,0.23492849 c -0.02449411,0.0247765 0.02396212,-0.0112837 0.0258999,0.0247432 -0.002856,0.0296811 0.004692,0.0283384 0.003106,-2.658e-4 0.002796,-0.0132638 -0.0177503,-0.0262203 -0.0290059,-0.0244774 z m 0.12238321,0.00198 c -0.0134417,0.0191726 0.0101979,0.0192849 0.009408,0.0169974 0.0420664,0.0472633 0.006749,-0.0102984 -0.009408,-0.0169974 z m 0.003195,0.005709 -2.7435e-4,0.008956 z m 0.0532677,5.2685e-4 c -0.0114648,0.0159488 -0.0554223,0.006247 -0.0134952,0.0146817 0.007669,-0.002323 0.0305725,0.001003 0.0134952,-0.0146817 z m 0.2922422,8.6051e-4 c 0.0325051,0.001118 0.028142,0.0444101 0.0255565,0.0564969 0.0200999,-0.0148373 0.002412,-0.0631012 -0.0255565,-0.0564969 z m -0.17027702,0.003252 c -2.2126e-4,0.0323999 -0.005707,0.0658016 -0.0310544,0.0482463 0.009262,0.0116522 0.0147262,0.0530624 0.0294532,0.0546984 -0.004379,-0.016612 -0.0340302,-0.0676121 -0.0038,-0.0377512 0.007875,0.027421 0.008331,-0.0301208 0.0308159,-0.003663 0.0291663,-0.0306625 -0.0377054,0.0124331 -0.0241393,-0.028509 -0.007104,-0.0120939 0.0161318,-0.0252659 -0.001275,-0.0330215 z m 0.0303606,0.0553492 7.3855e-4,-0.001258 z M 0.30573384,0.24763133 c -0.0163595,0.0293459 0.0246146,-0.001711 0.0260622,0.0359546 -0.0206506,0.0471228 0.0336404,-0.00229 -0.0260622,-0.0359546 z m 1.3845e-4,0.005525 c 0,0 0,0 0,0 z M 0.07867731,0.248351 C 0.06425491,0.2738887 0.07972051,0.36920733 0.11313805,0.3211302 0.12291005,0.2958776 0.11027905,0.276554 0.10978205,0.3140052 0.07663193,0.36276096 0.08118677,0.2619537 0.07867731,0.248351 Z M 0.7400244,0.249902 c 0.0143581,0.0215921 0.0239832,0.0275902 0.009612,0.005172 z M 0.55360269,0.254095 c -0.001773,0.0239936 0.016229,0.0266628 0,0 z m 0.25789906,7.9056e-4 c -0.0209992,0.0216868 0.0299173,0.0228478 0.0270761,0.0549433 0.0164689,0.0120954 -0.02425,-0.0453663 -0.0270761,-0.0549433 z m -0.1633402,8.638e-5 c -0.0106177,0.018454 0.0118932,0.0940795 0.006656,0.0376216 -0.00985,-0.007342 0.006449,-0.0278688 -0.006656,-0.0376216 z m 0.003943,0.0126606 -0.00468,0.003647 z m 0.0650132,-0.0118226 0.004221,0.005241 z m -0.1641868,0.002128 c -0.009605,0.024486 0.009504,0.0801116 0.0238153,0.084711 -0.007474,-0.0150644 -0.0239748,-0.0405499 -0.0107195,-0.0438993 -0.0206138,-0.0105576 -0.00708,-0.0283931 -0.0130958,-0.0408117 z m 0.0185208,0.008845 c -0.0128926,0.0196243 0.0245922,0.007225 0,0 z m 0.16329635,3.484e-4 c -0.0177558,0.0197046 0.0201261,0.0118698 0,0 z m -0.0130687,4.0404e-4 -3.7425e-4,0.006383 z m -0.48527579,0.002931 0.006391,0.00795 z m -0.14468556,0.006606 c -0.01787088,0.0155988 0.02343937,0.0274518 0,0 z m 0.0038916,0.008837 -0.0045195,0.002394 z m 0.14299451,-0.007512 c 0.001648,0.00878 0.0181003,0.00873 0,0 z m 0.47184297,8.8492e-4 0.003519,0.002007 z m -0.46807297,0.007604 c 0.0131009,0.0250037 0.007851,-0.003339 0,0 z m 0.46914236,6.9804e-4 c 0.00874,0.012012 0.023988,0.0149778 0,0 z m -0.40924384,0.001187 c -0.0104794,0.0183733 0.0562669,0.0393037 0.0110377,0.0525003 -0.0354258,-0.0196841 -0.0105847,0.0192879 0.0153139,0.002234 0.0135203,-0.0308188 -0.0139635,-0.0399443 -0.0263516,-0.0547343 z m 0.44380744,2.5122e-4 0.002306,0.001106 z m -0.17967684,0.003055 c 0.009038,0.0236746 0.0237563,7.3833e-4 0,0 z m 0.14622256,9.761e-5 c 0.007855,0.0187267 0.041447,0.0479092 0.0387356,0.0506956 -0.001215,-0.033313 -0.027851,-0.0340723 -0.0387356,-0.0506956 z m -0.46900238,0.001001 c 0.004085,0.011499 0.0195679,0.009416 0,0 z m 0.5009599,0.00188 c -2.2713e-4,0.0149019 0.0189539,0.007246 0,0 z m -0.002972,0.005324 c -0.0133189,0.006973 -0.0189532,0.002364 -0.001141,0.012006 l -3.6218e-4,-0.005511 z m -0.49598199,0.001605 c 0.004124,0.0271303 0.0156651,0.0325542 0,0 z m 0.59045895,0.0110491 c 0.008208,0.0231266 0.016142,0.008039 0,0 z m -0.0264068,0.001813 c 0.004315,0.0118476 0.0196915,0.00861 0,0 z m -0.15853691,0.002078 c 0.006294,0.0244532 0.0182174,0.013353 0,0 z m 0.007028,0.0110891 -0.001104,-9.9998e-4 z m 0.0650421,-0.0104393 c 0,0 0,0 0,0 z m 0.1092247,-9.875e-5 c 0.005745,0.025181 0.0215135,0.0362282 0.005532,0.005828 z m -0.0101168,9.8646e-4 0.002631,3.6453e-4 z m -0.00286,2.6513e-4 0.001744,4.3311e-4 z m -0.0995698,4.0619e-4 c 0.008113,0.0219374 0.007652,0.002075 0,0 z m 0.0862951,7.5811e-4 c -0.0264785,0.007009 0.0110645,0.0298311 -0.009298,0.009465 0.006901,0.0112904 0.0256245,-0.006124 0.009298,-0.009465 z m -0.00171,0.004645 0.003495,0.00362 z m -0.0866198,-0.002732 0.005697,0.007582 z m -0.50431571,0.001222 c -0.0212398,0.0535059 0.02969,0.010783 0,0 z m 0.00327,0.006712 c 0.0116551,0.0279057 -0.0191479,0.002817 0,0 z m 0.49684115,-0.006604 c -0.0185521,0.0235642 0.0327803,0.0666857 1.5187e-4,0.0292794 0.0116966,-5.6336e-4 -0.0105357,-0.0244118 0.005104,-0.0186676 l -0.002166,-0.006593 z m -0.0612253,0.004169 c 0.0201001,0.0197748 -0.002275,0.0445519 -0.0137263,0.0186063 -0.0225884,0.009327 0.004886,0.001857 0.001362,0.0125189 0.0170702,0.004214 0.0380249,0.007705 0.0405256,0.003923 -0.0105349,-0.0104425 -0.015168,-0.0267186 -0.0281613,-0.0350482 z m -0.009937,0.0269683 -0.004737,0.004773 z M 0.24317582,0.33067582 c -0.021918,0.0101329 -0.021283,0.0143504 0.001687,0.007683 z m 0.5497167,0.001089 c 0.0137292,0.0192577 0.0122071,0.005933 0,0 z m 0.027233,0.004825 c -0.0204842,0.0194771 0.0225282,0.009836 0,0 z m -0.30747528,5.83e-4 c -0.0396382,0.0222089 0.0346825,0.0202211 0,0 z m 0.003277,0.004656 -6.4775e-4,-5.269e-4 z m 0.21450635,-0.003073 0.00256,0.009367 -0.002561,-0.009367 z m -0.007389,8.8059e-4 1.829e-5,0.009039 z m 0.0736108,-8.1634e-4 c 0.004321,0.0284367 0.0517224,0.0320179 0.009383,0.0122068 l -0.004202,-0.005296 z m 0.0415289,0.005289 c -0.003899,0.0230034 0.009884,7.605e-5 0,0 z m -0.25475587,5.8832e-4 c -0.0170171,0.0311706 0.0258313,0.0187466 0,0 z m 0.16208138,3.9062e-4 c -0.0164653,0.0256551 0.0135302,0.027457 0,0 z m -0.0352634,0.009089 c 0.007712,0.0169546 0.0155327,0.0113619 0,0 z m 0.12163109,8.8253e-4 c -0.009729,0.0194441 0.0210802,0.007826 0,0 z m -0.0949904,0.003812 c -0.0157598,0.007476 0.009329,0.020535 0,0 z M 0.1380238,0.38624044 c 0.006139,0.0115095 -0.009165,0.0504456 -0.0100698,0.0191533 -0.008174,-0.008715 -0.0091,0.0421005 -0.0154762,0.0108943 -0.009113,-0.0234408 -0.01593561,0.0325752 -0.04513731,0.016175 -0.02271483,0.008751 0.0188509,0.0608621 -0.01722249,0.0654195 0.02463694,-0.004023 0.0037193,0.0289199 -0.0069375,0.007308 -0.0059134,0.0151804 0.03493953,0.0185976 0.0050717,0.0321847 -0.0277212,-8.453e-5 0.0059871,0.0150739 0.0091252,0.009935 -0.0078116,0.006923 -0.03269192,0.0247258 -0.0128585,0.0228222 0.01852536,-0.0227875 0.0220611,0.0208266 -0.0047321,0.0109578 0.0080319,0.0345242 0.0048865,-0.001641 0.02458924,0.003959 -0.01698357,0.011888 -0.0063915,0.0348246 0.0023863,0.008837 -0.0012411,0.0205702 -0.0029419,0.0253471 0.01358583,0.008592 -7.5904e-4,0.0303113 0.04512623,0.0130701 0.04089293,0.0558676 0.012434,0.011172 0.0258147,-0.0476754 0.0306522,-0.0226799 4.8413e-4,-0.0346348 0.0311237,0.021413 0.0176908,-0.0101405 -0.007465,-0.0199181 0.0260423,0.0161307 0.007287,-0.013887 0.0189701,0.019745 0.005158,0.0109284 0.0253564,0.009326 -0.0187978,-0.0136613 -0.0149253,-0.0167807 0.002726,-0.0172102 -0.0240331,-0.0165358 -3.6739e-4,-0.0324409 -5.3352e-4,-0.0370751 -0.0293355,-0.009269 0.0267621,-0.0166916 -0.003493,-0.0213309 -0.002933,-0.0277402 0.001839,-0.0788091 0.0120422,-0.0901612 -0.0100336,0.0247287 -0.0196177,0.0532813 -0.0270553,0.008993 -0.0350437,-0.0391193 0.0671832,-0.0102262 0.008854,-0.0219426 -0.030852,0.002545 -0.0249689,-0.0285261 -0.0386838,-0.0299655 0.008837,-0.0220804 -0.0286125,0.0296591 -0.0112676,-0.003004 0.009015,-0.0156994 7.431e-4,-0.0134577 -0.006793,-0.0230275 z m 0.002357,0.0375887 c 0.0232482,-7.6062e-4 0.0431453,0.0238397 0.007166,0.0131625 -0.0258883,0.002682 -0.06474614,-0.005841 -0.0178407,-0.0123305 l 0.005211,-0.001415 z m -0.06127406,0.0116742 c 0.0110683,0.0150742 -0.02065506,0.0422111 -0.0190245,0.00594 0.0018727,-0.011677 0.01269796,-0.002149 0.0190245,-0.00594 z m 0.01801593,0.001801 c 0.04158996,-0.00691 0.10982986,0.00771 0.08837489,0.0569159 -0.0164008,-0.0120526 -8.0173e-4,-0.0287814 -0.0124971,-0.006934 -0.0149159,-0.009526 -0.0195976,-0.0527189 -0.0258309,-0.0239392 -0.0164514,-0.005327 -0.0106254,-0.0283306 -0.0217201,-0.0107318 -0.0102765,0.0378117 -0.0148403,-0.0253155 -0.0130988,0.002172 -0.0109477,0.0201483 -0.03460591,0.001087 -0.0102983,0.0193237 -0.0080472,0.0340029 -0.02834656,0.0226404 -0.02641277,-0.006447 0.0098504,0.0454238 -0.01323799,0.008 0.0059408,-0.0106863 -0.02523177,0.0312201 0.0066228,-0.0231436 0.01554228,-0.0196733 z m -0.01637998,0.0118468 c -0.005644,0.0111968 -0.01967988,0.0288906 0,0 z m 0.04945007,0.006688 c 0.0308713,0.004749 -0.0227809,0.0168477 0,0 z m 0.0257366,0.008505 c 0.0214923,0.0197808 -0.0135722,0.0105625 0,0 z m -0.052024,0.001436 c -0.02093631,0.00322 -0.01262732,-0.002178 0,0 z m 0.0399854,4.54e-4 c 0.0259691,0.0139006 0.0312885,0.0323632 -7.0119e-4,0.018308 -0.0215607,-0.0123231 -0.06548894,0.0339076 -0.036638,-0.005206 0.007923,-0.014362 0.0230292,-0.0143348 0.0373392,-0.013102 z m -0.0291289,0.001403 c -0.0110448,0.0232559 -0.01832049,6.2857e-4 0,0 z m -0.04366352,0.0140444 c 0.01873677,0.0265268 -0.02203037,0.0672979 -0.00767,0.0185806 0.0039055,-0.005663 1.6871e-4,-0.0154298 0.00767,-0.0185806 z m 0.09908433,0.003651 c 0.0183787,0.0124676 0.009357,0.032786 0,0 z m -0.0392201,0.001006 c 0.049154,-0.007996 0.012746,0.08835 0.0213701,0.0255302 -0.0172082,-0.0501973 -0.0513698,0.0140258 -0.0385598,0.0189597 -0.008836,-0.0159738 -0.004557,-0.0416441 0.0171897,-0.0444899 z m -0.0139435,0.002131 C 0.09589476,0.50548869 0.11686803,0.54569118 0.08863656,0.5108979 0.09603604,0.50090151 0.106188,0.4909326 0.11701907,0.48846954 Z m 0.0417607,0.00195 c 0.0419006,0.002143 0.00402,0.0654698 0.002985,0.0215099 0.00257,6.434e-4 -0.0138658,-0.0286258 -0.002985,-0.0215099 z m 0.0228094,0.003213 c 0.0196975,0.003801 -0.00356,0.0348747 0,0 z m -0.0890589,0.002117 c -0.0043267,0.011973 -0.01315945,0.0133529 0,0 z m 0.05342451,0.004641 0.002264,0.008927 z m 0.0499089,0.003702 c 0.00596,0.0244007 -0.0249122,0.0208342 0,0 z m -0.11643736,0.008332 c 0.01106255,0.0254755 -0.0305115,0.047356 -0.01341205,0.014268 l 0.0063321,-0.007776 z m 0.11828712,0.003882 c 0.007393,0.0414954 -0.0108136,-0.001009 0,0 z m -0.10749088,0.001092 c 0.01422533,0.0378956 0.06389758,0.035166 0.08459269,0.021571 0.006152,0.054325 -0.0619592,0.0827028 -0.08102933,0.0204422 -0.0015354,-0.007486 -0.01689428,-0.0460403 -0.0035634,-0.0420132 z m 0.0010452,0.0115238 c 0.0050852,0.0241844 0.06444946,0.0370331 0.05147017,0.0276558 -0.0220276,0.005285 -0.0365113,-0.0157922 -0.05147017,-0.0276558 z m 0.0075216,0.0239443 c 0.01226857,0.0266673 0.07790248,0.0154941 0.02320548,0.0140509 -0.008729,-0.002731 -0.016544,-0.007861 -0.02320548,-0.0140509 z m 0.01352458,0.0264388 c 0.0277671,0.0108572 0.0328591,0.002246 0,0 z m 0.0693233,-0.0585109 c -0.0107824,0.0290195 -0.0626035,0.0248511 -0.0135745,0.008949 l 0.007808,-0.004683 z m 0.00293,0.001792 c 0.0199554,0.0294891 -0.0408527,0.0918788 -0.0129541,0.0324991 0.002659,-0.010496 0.008731,-0.0288522 0.0129541,-0.0324991 z m 0.003375,6.753e-4 c 0.009812,0.0167058 -0.005341,0.0246245 0,0 z m -0.0380111,2.199e-4 c 0,0 0,0 0,0 z m -0.06897484,0.005712 c 0.01716962,0.0427573 -0.02369673,0.0333232 0,0 z m 0.1142848,0.007248 c 0.002377,0.0228979 -0.006773,0.0116161 0,0 z m -0.10891063,0.001952 c 0.0073893,0.0205115 0.01008014,0.0522342 -3.6999e-4,0.0138298 L 0.08489798,0.541395 Z m -0.02435107,0.005998 c 0.01733635,0.0227282 -0.0089259,0.0246054 0,0 z M 0.13923117,0.543544 0.13786217,0.54338286 Z m 0.0494857,0.008669 -0.001494,0.007691 z M 0.07097826,0.556284 c 0.04087938,0.0293599 -0.02602887,0.0293719 0,0 z m 0.0086104,0.00275 c 0.01063128,0.009534 0.01908325,0.0189811 0,0 z m 0.11617458,-9.7578e-4 -0.003483,0.008247 z m -0.004232,0.007283 c 2.6307e-4,0.0362623 -0.0221839,0.006471 0,0 z m -0.1003118,0.007228 0.0010494,0.004865 z m 0.08869838,0.001931 c -0.009608,0.029637 -0.0166015,-2.1192e-4 0,0 z m -0.11073106,0.001691 c 0.02870385,9.0785e-4 0.02176327,0.0506794 0.0042884,0.0131334 l -0.0047755,-0.006057 z m 0.01909573,7.99e-4 0.0017969,0.006014 z m 0.01155318,0.003292 6.6594e-4,0.004003 z m -0.04609499,0.001205 -0.0092891,0.004867 z m 0.1324072,0.002368 c 0.005185,0.0220753 -0.0194189,0.003403 0,0 z m -0.13141633,0.00211 c -0.01252916,0.0199286 -0.0077275,6.7394e-4 0,0 z m 0.03848344,4.1624e-4 c 0.03202507,0.0219309 -0.01945923,0.0368141 0,0 z m 0.08523378,-6.9082e-4 c 0.005058,0.0333201 -0.0432376,0.0259482 -0.0115575,0.003625 0.003826,-0.001292 0.007697,-0.002443 0.0115575,-0.003625 z m -0.11072076,0.003329 c -0.0039543,0.0178663 -0.01217376,0.005222 0,0 z m 0.03960511,0.00347 c 0.0324729,0.005177 0.00622,0.0175561 0,0 z m -0.002883,0.001975 c 0.0169915,0.0103654 -0.0068259,0.0147478 0,0 z m 0.0504221,-6.4828e-4 c -0.007331,0.0242084 -0.0369923,-0.003941 0,0 z m -0.0253112,0.006496 c 0.0397047,0.008325 -0.0135783,0.0378158 -0.0103213,0.002155 l 0.0103195,-0.002153 z m -0.0158626,0.005229 c 0.0343948,0.0240308 -0.02110581,0.0163946 -3e-6,1.9e-7 z m -0.008762,0.001787 c 0.0164939,0.0223612 -0.0221351,0.007641 0,0 z m 0.0449828,0.00202 c -0.0169033,0.040928 -0.0122895,-0.008104 0,0 z m 0.003925,3.25e-6 c 0.0141885,0.017051 -0.0219332,0.0112906 0,0 z m -0.06497312,0.003895 -8.1086e-4,0.008475 z m 0.02522377,0.013456 c 0.0326277,-0.006917 0.0315467,0.0134705 0.0102813,0.0317104 -0.00126,-0.009813 -0.0127988,-0.0243448 -0.0102813,-0.0317104 z m 0.41118216,-0.1996258 c 0.006298,0.001927 0.001011,-0.001908 0,0 z m -0.0163309,0.003641 0.001244,-4.358e-5 z m 0.0335282,3.2181e-4 c -0.048762,1.2361e-4 -0.0883411,0.0406024 -0.0909533,0.0912749 6.6196e-4,0.0465812 0.006038,0.0946863 0.0340788,0.1327249 0.0150415,0.0211335 0.0526825,0.0305389 0.0212661,7.9302e-4 -0.008562,-0.0204344 -0.0259752,-0.0659803 -0.0116885,-0.0822703 0.0101555,0.0264446 0.0720132,0.033534 0.0704405,0.0444407 -0.0208475,-0.0302456 0.0638718,-0.019058 0.0431078,-0.0582241 0.0184449,-0.002642 -0.0264516,-0.003779 0.001919,-0.010957 -0.0156842,0.003164 -0.018902,0.001165 -0.007852,-0.013342 -0.0243127,0.0100542 0.0291668,-0.050558 -0.001454,-0.0689798 -0.0110737,-0.0243363 -0.0375319,-0.0263376 -0.0588644,-0.0354603 z m 0.007266,0.006978 c 0.0128846,0.007541 0.0321994,0.007508 0.0329511,0.0224094 0.0261079,-0.0149891 0.0355821,0.0876735 0.005806,0.0295747 -0.0192684,-0.0381098 -0.0686412,-0.005751 -0.085721,0.001766 -0.0120875,0.0306583 -0.0237249,0.0788463 -0.0153748,0.10103634 -0.0108025,-0.009865 0.0194233,0.067089 0.012349,0.0661004 -0.0146915,-0.0170552 -0.0390509,-0.059062 -0.0253581,-0.0691667 -0.0236743,-0.0198434 -0.001245,-0.0335512 -0.0162488,-0.0618415 0.007898,-0.0139341 0.001145,-0.0321244 0.017999,-0.0367133 -0.0176734,-0.0369183 0.0541657,-0.0499025 0.0735976,-0.0531653 z m -0.0158156,0.0213262 c -0.005496,0.0236398 0.0252155,-0.005801 0,0 z m 0.006556,0.003798 -7.349e-4,-4.7101e-4 z m -0.0470872,-0.001656 c 0.0132331,0.0299437 0.0156936,-0.003083 0,0 z m 0.006802,0.0391572 c 0,0 0,0 0,0 z m -0.0175853,0.0102917 c -0.0276079,-4.4779e-4 -0.00167,0.0267301 0,0 z m 0.0721204,-0.0338574 c 0.0163767,0.0184279 0.014449,-0.00737 0.035036,0.0190289 0.0325217,0.0238304 -0.0454245,0.0630046 -0.0327433,0.0292621 -0.005786,-0.0125296 -0.0188269,0.0300776 -0.0309224,0.0185447 0.001058,0.0208934 -0.0262839,0.0526276 -0.0293873,0.0164953 0.0278959,-0.0130013 0.004843,-0.008729 -0.004392,-0.0170132 0.0134887,0.0119107 -0.009172,0.0348407 -4.386e-5,0.007409 -0.0104876,0.0178498 0.009186,-0.0770371 0.0170434,-0.016715 0.0306129,0.0202275 -0.0288598,-0.0427365 0.0142492,-0.048109 0.0224334,-0.0174874 0.0206316,0.0319851 0.0205134,-0.008487 z m -0.0267395,0.0483669 c -0.0106837,0.0459275 0.0205466,-0.0105441 0,0 z m 0.0634107,0.006595 c 0.0111802,0.0287129 -0.0272358,0.001188 2.06e-6,-7e-7 z m -0.0228448,0.009137 c 0.0334269,0.001177 0.052494,0.042842 0.00988,0.0395611 0.005381,-0.0154737 -0.00155,-0.0266099 -0.00988,-0.0395611 z m -0.0223774,6.759e-4 c 0.0505113,-0.008343 0.0138075,0.0876679 0.0244058,0.024919 -0.0181546,-0.0446742 -0.0454261,0.0143052 -0.037738,0.0240803 -0.0240335,-0.0120475 -0.003229,-0.0442289 0.0133322,-0.0489993 z m 0.0212477,0.0232939 -0.004864,0.004651 z m 0.0417521,0.006278 c -0.00662,0.0262506 -0.0732184,0.0342455 -0.0234885,0.0123603 0.009068,-0.001862 0.0150161,-0.009318 0.0234885,-0.0123603 z m -0.13674453,0.0191904 -0.006196,0.004746 z m 0.0703709,0.008275 c 0.0268793,0.003608 -0.0111804,0.006183 0,0 z m -0.0367208,0.0640237 2.5681e-4,0.002402 z M 0.32012576,0.43449125 c -0.0522628,0.0103445 -0.050507,0.0776172 -0.0297385,0.1134967 0.041507,0.0349822 -0.0170123,0.0915681 0.0262779,0.11291322 0.0565798,0.0179057 0.0540238,-0.0805659 0.003368,-0.073894 -0.0114327,-0.0161322 0.0475131,0.0245955 0.0458816,-0.0147994 0.0288565,-0.0427042 0.0357712,-0.11958002 -0.0261543,-0.1353993 l -0.009618,-0.002729 z m 0.0127178,0.001847 c 0.031639,0.001016 0.0658221,0.0566567 0.0474317,0.064489 -0.007522,-0.0304722 -0.0473303,-0.042298 -0.0787828,-0.0201114 0.003892,-0.0302493 -0.0196576,0.0458432 -0.0134088,-0.005081 0.002859,-0.040677 0.0306078,-0.0178142 0.0531109,-0.0218728 -0.0204189,0.006412 -0.0428392,-0.0229297 -0.008351,-0.0174238 z m -0.0358568,0.009531 -0.003786,0.003747 z m 0.0363656,0.0278837 c -0.0283981,0.003996 -0.030428,0.0577739 -0.0372885,0.0161535 0.0103208,-0.008897 0.0230983,-0.0169701 0.0372885,-0.0161535 z m 0.004733,4.32e-4 c 0.0456235,0.001676 0.012488,0.065101 0.009674,0.0480123 0.037549,-0.0353447 -0.0359554,-0.0447898 -0.0274164,-0.0186644 0.0138708,0.050164 -0.027653,-0.0212578 0.011602,-0.0252966 z m 0.0288059,0.0151959 c 0.0493501,0.029587 -0.052702,0.0588941 -0.004323,0.0323033 0.0260092,-0.008738 -0.009341,0.001752 0.005005,-0.0247185 l -0.001889,-0.007694 z m -0.0848385,0.0087 c 0.0204262,0.0121702 0.0112243,0.0257007 0.030576,0.0306782 -0.003283,0.0113994 0.0359239,0.0185547 0.0285819,0.0497082 -0.0432613,-0.002867 -0.051619,-0.0443869 -0.0591579,-0.0803864 z m 0.10351319,0.0184748 c -6.7175e-4,0.0322636 -0.0374318,0.0736908 -0.0462178,0.022255 0.0107647,0.009723 0.008548,-0.004099 0.0240885,0.001064 0.0089,-0.0110729 0.008855,0.007138 0.016336,-0.0165273 z m -0.0492033,0.007794 c 0.003203,0.0207195 -0.011882,0.004197 0,0 z m -0.0172954,0.006124 0.00575,0.004373 z m 0.0162541,0.008709 c 0.0195765,0.0340175 0.002573,0.0270299 0,0 z m 0.0118,0.0335551 -0.001422,-6.4103e-4 z m -0.0357587,0.004363 c 0.0294829,0.004206 0.0431229,0.0125233 0.005575,0.003038 l -0.009353,-0.002162 z m 0.038094,0.002716 -0.001669,-7.4083e-4 z m -0.0349161,0.0109341 0.005365,0.001975 z m -7.096e-4,0.003057 c 0.0270285,0.001566 0.0453099,0.0131168 0.005968,0.003935 l -0.006667,-0.002402 z m 0.0276762,0.001504 0.008042,0.0039 z m -0.0263085,0.006174 c 0.0174587,2.4539e-4 0.0133563,0.004902 0,0 z m 0.0213225,0.00276 c 0.0263221,0.011028 0.0173059,0.0107836 0,0 z m -0.0138778,0.001311 c 0.021387,-0.004178 0.0425695,0.0263151 0.0102612,0.00818 -0.003178,-0.003213 -0.033879,-8.2366e-4 -0.0102612,-0.00818 z m -0.001543,0.0104704 c -0.007323,-4.636e-4 -0.002119,-1.3416e-4 0,0 z m 0.002164,0.003664 c 0.0449248,-2.6168e-4 -0.0113947,0.0177413 0,0 z m 0.0212948,6.5014e-4 0.007889,0.006127 z m -0.0203698,0.0110679 c 0.0277608,-0.006014 0.0441214,0.0195464 0.008446,0.003195 -0.0128492,0.002238 -0.0337478,0.00129 -0.008446,-0.003195 z m 0.003626,0.005829 c 0.0642891,-0.002034 -0.023547,0.026739 0,0 z m 0.0105028,0.013277 c 0.0304424,3.7079e-4 -0.0166795,0.0180116 0,0 z M 0.78047796,0.43431642 c -0.0319594,0.003371 -0.0499457,0.0123828 -0.008024,0.001998 5.7732e-4,-8.8728e-4 0.021646,-3.7674e-4 0.008024,-0.001998 z m -0.47631604,0.002979 c -0.0174518,9.9146e-4 -0.0764569,0.002022 -0.0711305,0.003761 0.0231549,-0.001199 0.0499283,5.1648e-4 0.0711305,-0.003761 z m 0.47766331,0.0135275 c -0.0257557,-0.003231 -0.0792878,0.0149383 -0.0271766,0.003006 0.0213306,-0.007556 0.0964801,0.0161111 0.0391582,-0.001796 l -0.006329,-7.2982e-4 z m 0.0338601,0.0113421 3.1218e-4,3.1628e-4 z M 0.71534479,0.4623593 c -0.0108189,0.0260806 0.008906,0.0327649 -0.023681,0.0530792 -0.0194193,0.0234437 -0.0181572,0.0357374 -9.1065e-4,0.004572 0.0104727,-0.0167853 0.0470766,-0.0340672 0.0182216,-0.006587 -0.0181392,0.0236897 -0.0219178,0.0232112 -0.02546,0.0567051 0.009509,0.0315357 0.0513172,0.0554497 0.0164365,0.0824558 0.0146668,0.0224265 0.0299288,-0.0295456 0.0531759,-0.006275 0.0340439,0.001569 0.062624,-0.0307283 0.0815245,0.007391 0.0303035,-0.021727 -0.0348123,-0.038674 -0.0125227,-0.0462919 0.0175861,-0.0364984 0.007765,-0.0839371 -0.0293039,-0.1043855 -0.0143006,-0.0200474 -0.0858027,0.008837 -0.0346641,-0.0150645 0.0519468,-0.0201187 0.0860347,0.0458306 0.0972196,0.0747909 -0.001743,-0.0286809 -0.0504287,-0.0599711 -0.008318,-0.077473 -0.008125,-0.0266772 -0.0369281,0.0185015 -0.0594249,-0.001743 -0.027965,-0.004189 -0.0571932,0.0226199 -0.0659521,-0.0172728 l -0.007628,-0.002319 z m 0.0039,0.006982 c 0.0269845,0.0313596 -7.2264e-4,0.0322905 0,0 z m 0.1227766,0.0125457 c -0.0107434,0.0282556 -0.0324794,0.002692 0,0 z m -0.0844934,0.0197372 c 0.0474288,-0.006913 0.0770017,0.0509557 0.0638297,0.0911519 -0.011294,0.0544597 -0.0838097,0.0324853 -0.0709965,0.026771 -0.008486,-0.004262 0.006341,-0.006995 -0.0159331,-0.0106445 0.0224718,7.8332e-4 -0.0264611,-0.0204939 -0.003051,-0.0292383 -0.0240927,-0.001958 -0.004387,-0.0209757 -0.0105787,-0.0289886 0.0202594,0.005049 -0.007262,-0.009091 0.0178074,-0.009574 -0.0401611,-0.004792 0.0193603,-0.005137 -0.0135513,-0.00871 0.0125758,-0.001453 9.7295e-4,-0.027718 0.0279951,-0.020022 -0.0202498,1.49e-6 -0.0119881,-0.002663 0.004478,-0.0107455 z m -0.029942,0.001161 c -0.0154299,0.0115532 -0.0258546,0.0640799 -0.0125917,0.10058816 0.005981,0.0257465 0.0689487,0.0556238 0.0930911,0.0163717 -0.0275564,0.0498888 -0.0982093,0.0150127 -0.1123036,-0.0300061 -0.0231813,-0.0303255 0.005149,-0.0704865 0.0318042,-0.0869538 z m -0.0391584,0.0177641 c -0.00856,0.0147152 -0.0108387,0.0138666 0,0 z m 0.005875,0.0172966 c -0.006614,0.0215997 -0.0101847,0.0152245 0,0 z M 0.8221405,0.6189001 c 0.0266725,0.0182421 0.008358,0.0291572 -0.008851,0.005124 z M 0.7267744,0.6302917 c 0.004355,0.0297536 -0.0371369,0.0201366 -0.003544,0.002934 z m 0.0950612,0.008058 0.003085,0.006394 z M 0.77374769,0.4686522 c 0.0605256,-0.001524 -0.0822312,0.0144015 -0.008191,0.005192 0.0242308,-0.005595 0.0789552,0.008768 0.0244266,-0.005887 l -0.008199,2.7137e-4 z m -0.0170261,2.9533e-4 0.001495,0.001227 z m 0.0974548,0.007634 -0.004827,0.008271 z m -0.16703272,0.01004 c -0.0157006,0.009446 -0.026153,0.0308467 -0.007242,0.006837 z m 0.01937,0.001961 c -0.025936,0.006847 -0.0535783,0.0685053 -0.0216004,0.0163574 0.005212,-0.008479 0.0166609,-0.008445 0.0216004,-0.0163574 z m 0.14183296,3.7348e-4 c 0.0141914,0.009095 0.0381683,0.043864 0.0141946,0.009283 -0.003016,-0.005695 -0.009015,-0.006873 -0.0141946,-0.009283 z m -0.005688,0.006124 c 0.0189776,0.0133541 0.0366848,0.069595 0.0163983,0.0174317 -0.004391,-0.005888 -0.007201,-0.0170027 -0.0163983,-0.0174317 z m -0.00429,0.004483 c 0.0141069,0.013201 0.0154862,0.009539 0,0 z M 0.8359,0.50727422 c 0.01822,0.0189538 0.0322726,0.0633656 0.0131382,0.0151541 C 0.8452672,0.51693732 0.8417262,0.51089852 0.8359,0.50727422 Z m -0.78116796,0.0174134 -0.0068303,0.003966 z m 0.62739196,0.0286516 -0.002365,0.004608 z m -0.003491,0.0178854 c 0.002416,0.0221292 0.0357264,0.0666878 0.0107901,0.0243123 -0.003438,-0.008168 -0.006285,-0.0166365 -0.0107901,-0.0243123 z m 0.1791203,0.002364 c -0.019117,0.0186259 -0.0370398,0.0597821 -0.007829,0.0161163 0.002038,-0.005486 0.008495,-0.009644 0.007829,-0.0161163 z m -0.006762,0.0110917 c -0.0102612,0.0164453 -0.0218961,0.0265248 0,0 z m -0.24979445,0.001853 c -0.001237,0.0224997 0.0187918,0.013582 0,0 z m 0.0727293,0.001224 c -2.9833e-4,0.0181389 0.0319183,0.0525926 0.007032,0.0167529 l -0.004519,-0.009357 z m 0.17773318,0.007349 c -0.015117,0.0217574 -0.008893,0.0286824 0,0 z M 0.518407,0.59748538 c -0.0228483,7.606e-4 -0.003266,0.0228442 0.003108,0.0118394 l 4.3575e-4,-0.006695 z m 0.001243,0.005059 -0.001673,0.006781 z m 0.0592319,-0.002773 c -0.0133933,0.0334577 0.0423348,0.004691 0,0 z m 0.28913322,0.001468 c -0.008632,0.0166855 -0.0337943,0.0340771 -0.005796,0.013016 l 0.004085,-0.007705 z m -0.33584061,0.002307 c -0.003259,0.0210855 -0.001501,0.0433452 0.001145,0.0683067 0.002527,-0.0223113 0.008159,-0.0495294 -0.001145,-0.0683067 z m -0.45257986,5.1711e-4 -0.0010439,0.004851 z m 0.47008617,0.001481 c -0.005118,0.0173162 0.0143787,0.0388795 0,0 z m 0.12820778,0.0108682 c 0.0140405,0.0226023 0.0191964,0.0246404 0,0 z m 0.18927211,0.008195 c -0.0173152,0.007887 -0.003321,0.008881 0,0 z m -0.72776507,0.0204657 c -0.0145834,0.0307697 -0.0227085,0.0494757 0,0 z m 0.59568606,0.00174 c 0.0191464,0.0174786 0.0780904,-7.997e-5 0.0216423,0.006273 -0.007202,-0.001968 -0.0150217,-0.002459 -0.0216423,-0.006273 z m -0.0100315,0.0124316 c 0.0207295,0.0208337 0.0996261,-7.8001e-4 0.0361352,0.008823 -0.0114669,-0.004662 -0.0251956,-0.001755 -0.0361352,-0.008823 z m 0.00533,0.006908 c 0.0166984,0.0115168 0.0645429,0.002809 0.0210186,0.004756 l -0.010587,-0.002062 z m 0.004387,0.0101405 c 0.0182741,0.0161382 0.0655417,-1.2483e-4 0.019457,0.006561 l -0.0101959,-0.002031 z m -0.68008385,0.0208217 c -0.01311002,0.008234 -0.01476907,0.0326424 0.0029455,0.0117322 0.01371493,0.0255956 0.00137,-0.0107732 -0.0029455,-0.0117322 z m 0.31133737,0.001547 c -0.009981,0.039407 0.0405101,0.004482 0,0 z m 0.0379846,0.005361 c -0.0134503,0.0412145 0.0348878,2.2101e-4 0,0 z m -0.13821584,0.005299 c 0.0225899,0.003156 -0.009274,0.0344163 0.0170265,0.0137015 0.0283389,0.0236135 0.004367,-0.017378 -0.013323,-0.008693 z m -0.0973171,0.006589 c -0.0554566,0.001632 -0.008998,0.11481972 0.0243359,0.0542976 0.009688,-0.0209171 0.001421,-0.0512267 -0.0243359,-0.0542976 z m 4.37e-6,0.004408 c 0.0399187,-0.008645 0.009299,0.0785205 0.0242806,0.0384719 -0.0155569,0.0725702 -0.073963,-0.0252933 -0.0242806,-0.0384719 z m 0.0249964,0.0186122 0.001356,0.0107021 z M 0.06415228,0.72607806 c 0.0239583,0.007257 0.02561285,0.007807 0,0 z m -0.02432727,0.004715 c -0.01924509,0.0190934 -0.0012881,0.0321845 0,0 z m 0.31442275,3.968e-4 c -0.005836,0.0340392 0.0335835,0.00495 0,0 z m -0.28604618,7.9713e-4 c 0.002846,0.0114787 0.012871,0.0277424 0.006328,0.005255 z m 0.06188079,0.002676 c -0.0201304,0.0316471 0.0318963,0.00659 0,0 z m 0.006072,0.002504 -0.003886,0.001499 z m 0.13821849,-0.00218 c -0.0612725,0.007233 -0.0148048,0.10551896 0.0279975,0.0560683 0.0155884,-0.0214961 0.003238,-0.0620065 -0.0279975,-0.0560683 z m 0.010191,0.00275 c 0.063326,0.0227322 -0.0204575,0.10405865 -0.0358037,0.0358963 6.6335e-4,-0.0207394 0.0152363,-0.0342322 0.0358037,-0.0358963 z m 0.004776,7.2255e-4 0.006452,0.003081 z m 0.094274,0.008129 c 3.02e-5,0.0318703 0.0307604,0.004328 0,0 z m -0.35934569,0.0116273 0.0035787,0.003308 z m 0.05314754,0.004191 c 0.0081897,0.0146574 0.02048984,0.0268483 -8.1672e-4,0.0276775 0.02753324,0.0140388 0.01440198,-0.0251309 8.1672e-4,-0.0276775 z m -0.05532381,0.001307 c 6.1402e-4,0.0130634 -0.02026942,0.025382 0.0049291,0.0266151 -0.015173,-0.005453 0.01256736,-0.0241985 -0.0049291,-0.0266151 z m 0.40152995,0.001149 c -0.0400569,0.003828 0.0185743,0.0392799 0,0 z m -0.0765906,0.0103867 c 0.003476,0.0478276 0.0396347,0.008138 0,0 z m -0.20029506,0.006522 c 0.009231,0.008347 0.0162906,8.4958e-4 0,0 z m -0.10269287,0.007303 c 0.0140403,0.0137084 0.02280019,-0.0111409 0,0 z m 0.75623338,0.007465 c -0.001799,0.0376457 0.0160624,0.11513033 -0.047527,0.0898298 0.0451257,-0.008628 0.0562582,0.0251855 0.0451549,0.0633303 0.003107,-0.0299362 -0.007083,-0.0743976 0.0383029,-0.0551065 0.0697602,-0.0102943 -0.0603742,0.0147611 -0.0350241,-0.0327927 1.3087e-4,-0.0217532 5.5678e-4,-0.043539 -9.067e-4,-0.0652609 z m -0.27604635,0.0105697 c -0.0279598,-0.0117345 -0.078694,0.0542122 -0.0306746,0.0104872 0.0263481,-0.0256623 0.0759896,0.0126406 0.0789671,0.0144439 -0.00656,-0.0188116 -0.0301591,-0.0259896 -0.0482925,-0.0249311 z m 0.0287836,0.006371 c 0.0197631,0.0171365 0.0207958,0.0234528 0,0 z m -0.16735593,0.004474 c -0.0257738,-0.005526 -0.0725657,0.0379809 -0.0296224,0.0103014 0.0213558,-0.0208742 0.0678164,0.004675 0.0719867,0.002857 -0.0105766,-0.0119143 -0.0275272,-0.0134335 -0.0423643,-0.0131584 z m 0.0283242,0.005062 -0.001424,-3.291e-4 z m -0.246366,-0.002189 c -0.0263806,0.0238079 -0.050668,0.0527897 -0.0160988,0.0809706 0.0152669,0.0436391 0.0408503,-0.0250949 0.0483395,-0.0264952 -0.0126201,-0.0170748 -0.014463,-0.043319 -0.0322407,-0.0544754 z m 0.002271,0.006733 c 0.0180464,0.0284714 0.0301082,0.0571896 -0.001689,0.0808637 -0.0326496,-0.0286278 -0.0243271,-0.0494268 0.001689,-0.0808637 z m -0.0199429,0.0208921 -9.2581e-4,1.7297e-4 z m -0.011213,0.025427 3.1286e-4,0.00503 z m 0.0284043,0.037252 c 0.0125523,-0.008896 0.0116131,-0.00452 0,0 z m 0.0862862,-0.0849944 c -0.0230681,0.0131742 -0.004025,0.0626195 -0.0121487,0.083506 0.0232363,0.0155392 0.0915783,0.0211631 0.0687346,-0.0292917 0.00536,-0.0349485 -2.4173e-4,-0.0695365 -0.0455666,-0.0530051 z m 0.0232874,0.002746 c 0.046927,-0.008626 0.0343583,0.0794258 0.0174353,0.0883194 -0.0606412,0.0173 -0.050947,-0.0555742 -0.0427706,-0.0883512 0.008431,-0.00123 0.0168954,-2.4886e-4 0.0253353,3.18e-5 z m -0.22340218,0.001055 c -0.02245867,0.032863 -0.06328191,0.10265884 0.008355,0.0880768 0.06446395,0.0148326 -0.0049817,-0.0592759 -0.008355,-0.0880768 z m 5.9388e-4,0.009795 c 0.0094445,0.0323266 0.06134383,0.0891709 -0.0035496,0.0744888 -0.0554558,0.0153396 -0.0019481,-0.0557001 0.0035496,-0.0744888 z m -0.0143467,0.0197792 c -0.0063459,0.0214763 -0.0058361,0.003459 0,0 z m 0.55986163,0.0220283 c 0.0305916,0.005253 0.097021,0.006946 0.1054044,0.006141 -0.0348284,-0.00581 -0.0702864,-0.004074 -0.1054044,-0.006141 z m -0.40528731,0.0106228 -0.002928,0.003997 z m 0.1431017,0.0163424 c 0.009231,0.0431297 0.0815606,0.0490816 0.0969974,0.0100033 -0.0248752,0.0357941 -0.0792121,0.0293441 -0.0969974,-0.0100033 z m 0.13291103,0.001903 c 0.00886,0.0511836 0.10401037,0.0426557 0.10377647,0.0142762 -0.022059,0.025937 0.008843,-0.0155064 -0.0143985,0.0121194 -0.0311345,0.0227045 -0.0762094,5.5012e-4 -0.089378,-0.0263956 z m -0.39162051,0.0340917 c -0.0016305,0.0226874 0.0030369,0.0469664 0.0027049,0.008586 z m -0.04399231,0.005875 C 0.00324202,0.9703364 0.04911317,1.0017971 0.0440262,0.966302 L 0.0387801,0.956535 Z m 0.0016659,0.005939 c 0.02381922,0.0350361 -0.03202387,0.0268742 0,0 z m 0.03324294,-2.982e-4 -0.001608,0.004588 z m 0.07081517,4.6699e-4 c -0.0169178,0.0123675 -0.004204,0.0278245 0,0 z m 0.0518817,9.13e-6 c -0.0315413,0.0428018 0.0279291,0.038226 0,0 z m -0.001527,0.0147067 c -0.011917,0.0129067 -9.9708e-4,0.004295 0,0 z m 0.002677,1.03e-4 c 0.008419,0.022778 -0.005493,0.006997 0,0 z m 0.002059,0.001053 0.001889,0.009282 z M 0.2140573,0.9587303 c -0.0208181,0.0625653 0.0486949,0.0149861 0,0 z m 0.003344,0.002531 0.004252,0.004648 z m -0.004516,0.002962 -4.7828e-4,-0.00137 z m 0.010176,0.003995 c 0.01748,0.0213455 -0.0236334,0.0198145 -0.006948,0.00396 0.019619,0.0151726 -0.004409,-0.003772 0.006948,-0.00396 z M 0.1513679,0.9604403 c -0.0150176,0.0422627 0.006358,0.00567 0,0 z m 0.092377,0.001981 c 0.0107291,0.0102445 0.0178329,-2.8234e-4 0,0 z m 0.0605595,0.002211 c -0.0176278,0.0115718 -0.002835,0.0326021 -0.003585,7.9469e-4 0.004581,-0.003094 0.0231771,0.005098 0.003585,-7.9469e-4 z m -0.24063747,0.002799 c -0.01041388,0.0203801 0.0066954,0.008852 0,0 z m 0.02740129,0.002063 6.8733e-4,0.008103 z m 0.15147647,0.003143 c -0.004655,0.020601 0.001121,0.0171546 0,0 z m 0.0135435,0.002638 c -0.016723,0.0211432 -7.898e-5,0.0174045 0,0 z"
         id="path24"
         inkscape:connector-curvature="0"
         clip-path="url(#clipPath491)" /><path
         style="fill:#000000;stroke-width:0.00033422"
         d=""
         id="path20"
         inkscape:connector-curvature="0"
         clip-path="url(#clipPath487)" /><rect
         style="fill:#ffffff;stroke-width:0.00104443"
         id="rect42"
         width="0.016759645"
         height="0.0068442747"
         x="0.1318159"
         y="-0.72029763"
         transform="scale(1,-1)"
         ry="0.0034221373"
         clip-path="url(#clipPath483)" /><rect
         style="fill:#ffffff;stroke-width:0.00104443"
         id="rect124"
         width="0.086311199"
         height="0.11175849"
         x="0.23084258"
         y="-0.92796612"
         ry="0.0034221329"
         transform="scale(1,-1)"
         clip-path="url(#clipPath479)" /></g></g></svg>