<?xml version="1.0" encoding="UTF-8" standalone="no"?>
<!-- Created with Inkscape (http://www.inkscape.org/) -->

<svg
   xmlns:dc="http://purl.org/dc/elements/1.1/"
   xmlns:cc="http://creativecommons.org/ns#"
   xmlns:rdf="http://www.w3.org/1999/02/22-rdf-syntax-ns#"
   xmlns:svg="http://www.w3.org/2000/svg"
   xmlns="http://www.w3.org/2000/svg"
   xmlns:sodipodi="http://sodipodi.sourceforge.net/DTD/sodipodi-0.dtd"
   xmlns:inkscape="http://www.inkscape.org/namespaces/inkscape"
   width="67.038635mm"
   height="38.575134mm"
   viewBox="0 0 67.038635 38.575134"
   version="1.1"
   id="svg8"
   inkscape:version="0.92.2 (unknown)"
   sodipodi:docname="icon_clear.svg">
  <defs
     id="defs2" />
  <sodipodi:namedview
     id="base"
     pagecolor="#ffffff"
     bordercolor="#666666"
     borderopacity="1.0"
     inkscape:pageopacity="0.0"
     inkscape:pageshadow="2"
     inkscape:zoom="0.35"
     inkscape:cx="-157.35356"
     inkscape:cy="-156.03608"
     inkscape:document-units="mm"
     inkscape:current-layer="layer1"
     showgrid="false"
     inkscape:window-width="1074"
     inkscape:window-height="703"
     inkscape:window-x="1375"
     inkscape:window-y="192"
     inkscape:window-maximized="0" />
  <metadata
     id="metadata5">
    <rdf:RDF>
      <cc:Work
         rdf:about="">
        <dc:format>image/svg+xml</dc:format>
        <dc:type
           rdf:resource="http://purl.org/dc/dcmitype/StillImage" />
        <dc:title></dc:title>
      </cc:Work>
    </rdf:RDF>
  </metadata>
  <g
     inkscape:label="Layer 1"
     inkscape:groupmode="layer"
     id="layer1"
     transform="translate(-19.332535,-68.973654)">
    <path
       style="fill:#000000;fill-opacity:1;fill-rule:nonzero;stroke:none;stroke-width:0.26458332"
       id="path815"
       d="m 30.56033,68.973654 c -0.380929,3.335742 -0.379532,6.705468 -0.440362,10.058892 -0.03853,4.793665 -0.08318,9.590207 0.09304,14.381668 0.08287,2.070703 0.03457,1.095002 0.138912,2.927392 0,0 -10.810973,0 -10.810973,0 v 0 c 0.104346,-1.83239 0.05604,-0.856689 0.13891,-2.927392 0.176216,-4.791461 0.131568,-9.588003 0.09304,-14.381668 -0.06083,-3.353424 -0.05943,-6.72315 -0.440362,-10.058892 0,0 11.227803,0 11.227803,0 z"
       inkscape:connector-curvature="0" />
    <path
       style="fill:#000000;fill-opacity:1;fill-rule:nonzero;stroke:none;stroke-width:0.26458332"
       id="path817"
       d="m 33.786296,70.847981 c 1.285531,0.01236 2.571184,0.01611 3.856784,0.02058 2.927138,0.781367 3.458771,1.276567 4.227721,4.226636 0.525844,2.842398 0.566611,5.741236 0.583595,8.622535 0.0379,2.610716 0.02352,5.221529 -0.0029,7.832268 -0.01532,2.08648 0.267716,4.365704 -0.943298,6.211673 -0.262805,0.4006 -0.61554,0.734369 -0.923311,1.101553 -2.032511,1.966744 -4.801518,2.645214 -7.531991,2.962264 0,0 -10.753688,-1.65011 -10.753688,-1.65011 v 0 c 2.620295,0.0409 5.387311,-0.522259 7.515831,-2.114196 0.284638,-0.277278 0.605483,-0.521698 0.853916,-0.831832 1.291161,-1.611849 0.925719,-3.775363 0.985901,-5.683427 -0.0066,-2.60676 0.02103,-5.212823 0.05045,-7.819377 -0.02922,-2.774465 0.0051,-5.592736 -0.662834,-8.303812 -0.873236,-2.336568 -1.797397,-2.652631 -4.229174,-2.838916 -1.372215,0.0046 -2.744464,0.0086 -4.116621,0.02058 0,0 11.089569,-1.756415 11.089569,-1.756415 z"
       inkscape:connector-curvature="0" />
    <path
       style="fill:#000000;fill-opacity:1;fill-rule:nonzero;stroke:none;stroke-width:0.26458332"
       id="path821"
       d="m 55.506757,76.533178 c -0.419833,3.473008 -0.397759,6.987897 -0.436092,10.481665 -0.0472,4.44773 -7.93e-4,8.89468 0.125863,13.340627 -0.08415,2.74254 0.770895,3.82661 3.342304,4.43775 4.388188,-0.18627 -0.890755,0.0523 -9.29163,-0.1287 -0.196972,-0.004 0.390147,-0.0609 0.580133,-0.11308 0.490945,-0.13481 0.839074,-0.43827 1.219944,-0.75712 0,0 11.088719,0.83386 11.088719,0.83386 v 0 c -3.159945,4.08903 -9.98506,2.60851 -14.484763,1.51455 -2.601833,-1.20514 -3.316284,-2.94164 -3.062049,-5.78726 0.126534,-4.445947 0.173061,-8.892897 0.125862,-13.340627 -0.03833,-3.493768 -0.01627,-7.008657 -0.436094,-10.481665 0,0 11.227803,0 11.227803,0 z"
       inkscape:connector-curvature="0" />
    <path
       style="fill:#000000;fill-opacity:1;fill-rule:nonzero;stroke:none;stroke-width:0.26458332"
       id="path823"
       d="m 52.509925,96.581842 c -0.249696,-1.349504 -0.499735,-2.686751 -0.214456,-4.043955 0.396952,-1.054536 1.224331,-1.546534 2.249215,-1.852437 0,0 11.006497,1.542631 11.006497,1.542631 v 0 c -0.755393,0.04088 -1.57617,0.08921 -2.160449,0.62493 -0.46151,1.07631 -0.03286,2.312644 0.335158,3.367831 0,0 -11.215965,0.361 -11.215965,0.361 z"
       inkscape:connector-curvature="0" />
    <path
       style="fill:#000000;fill-opacity:1;fill-rule:nonzero;stroke:none;stroke-width:0.26458332"
       id="path825"
       d="m 61.778924,75.653325 c 1.524281,0.230973 2.980614,0.718849 4.503807,0.980249 1.541327,0.233291 3.101707,0.26714 4.657388,0.284901 0,0 -10.892056,1.700654 -10.892056,1.700654 v 0 c -1.557677,-0.05028 -3.117046,-0.156874 -4.646261,-0.476382 -1.58959,-0.347226 -3.170912,-0.736986 -4.757227,-1.091414 0,0 11.134349,-1.398008 11.134349,-1.398008 z"
       inkscape:connector-curvature="0" />
    <path
       style="fill:#000000;fill-opacity:1;fill-rule:nonzero;stroke:none;stroke-width:0.26458332"
       id="path827"
       d="m 77.429378,71.997463 c -0.276432,2.770902 -0.31504,5.563442 -0.364946,8.34634 -0.05496,4.120538 -0.01077,8.241538 0.0378,12.361918 -0.04706,2.985637 0.114248,5.967571 0.149868,8.951559 0.109374,0.63393 -0.158186,3.90169 0.195906,4.25767 0.09264,0.0931 0.26262,-0.007 0.39393,-0.011 -2.154145,-0.19415 5.066091,-0.0525 3.001722,-0.0573 -17.140219,-0.0399 -11.208483,0.0427 -7.465661,-0.0661 0.676828,0.007 1.337085,-0.0592 1.999269,-0.18608 0,0 10.993905,1.46819 10.993905,1.46819 v 0 c -0.726223,0.21846 -1.421167,0.47871 -2.198692,0.39453 -4.686213,0.14364 -9.272485,0.0808 -14.026555,0.0594 -0.510717,-0.002 -1.890842,-0.0591 -2.418797,-0.21985 -0.343199,-0.1045 -0.643382,-0.31762 -0.965073,-0.47643 -0.132755,-0.24752 -0.313029,-0.47492 -0.398261,-0.74254 -0.350645,-1.10101 0.219485,-3.23469 0.01505,-4.42051 0.03562,-2.983989 0.19693,-5.965922 0.149866,-8.95156 0.04856,-4.12038 0.09276,-8.241379 0.0378,-12.361918 -0.04991,-2.782898 -0.08851,-5.575437 -0.364943,-8.346339 0,0 11.227803,0 11.227803,0 z"
       inkscape:connector-curvature="0" />
  </g>
</svg>
