<?xml version="1.0" encoding="UTF-8" standalone="no"?>
<!-- Created with Inkscape (http://www.inkscape.org/) -->

<svg
   xmlns:dc="http://purl.org/dc/elements/1.1/"
   xmlns:cc="http://creativecommons.org/ns#"
   xmlns:rdf="http://www.w3.org/1999/02/22-rdf-syntax-ns#"
   xmlns:svg="http://www.w3.org/2000/svg"
   xmlns="http://www.w3.org/2000/svg"
   xmlns:sodipodi="http://sodipodi.sourceforge.net/DTD/sodipodi-0.dtd"
   xmlns:inkscape="http://www.inkscape.org/namespaces/inkscape"
   width="57.326134mm"
   height="33.393101mm"
   viewBox="0 0 57.326134 33.393101"
   version="1.1"
   id="svg8"
   inkscape:version="0.92.4 (unknown)"
   sodipodi:docname="falsus.svg">
  <defs
     id="defs2" />
  <sodipodi:namedview
     id="base"
     pagecolor="#ffffff"
     bordercolor="#666666"
     borderopacity="1.0"
     inkscape:pageopacity="0.0"
     inkscape:pageshadow="2"
     inkscape:zoom="1.979899"
     inkscape:cx="-31.393386"
     inkscape:cy="-143.95091"
     inkscape:document-units="mm"
     inkscape:current-layer="layer1"
     showgrid="false"
     inkscape:window-width="2495"
     inkscape:window-height="1416"
     inkscape:window-x="65"
     inkscape:window-y="24"
     inkscape:window-maximized="1"
     fit-margin-top="0"
     fit-margin-left="0"
     fit-margin-right="0"
     fit-margin-bottom="0" />
  <metadata
     id="metadata5">
    <rdf:RDF>
      <cc:Work
         rdf:about="">
        <dc:format>image/svg+xml</dc:format>
        <dc:type
           rdf:resource="http://purl.org/dc/dcmitype/StillImage" />
        <dc:title></dc:title>
      </cc:Work>
    </rdf:RDF>
  </metadata>
  <g
     inkscape:label="Layer 1"
     inkscape:groupmode="layer"
     id="layer1"
     transform="translate(-5.6370677,-10.738673)">
    <path
       style="fill:#000000;fill-opacity:1;fill-rule:nonzero;stroke:none;stroke-width:0.26458332"
       id="path12"
       d="m 7.3575655,14.304289 c 0.00656,-0.650032 -0.00901,-1.299911 0.079597,-1.945264 0.075099,-0.405933 0.2594565,-0.783109 0.604067,-1.019057 0.3312898,-0.156372 0.7013813,-0.155481 1.0601129,-0.16247 0.4977371,0.02125 0.9986636,0.0036 1.4932116,0.06375 0.06145,0.0075 0.360564,0.340596 0.367705,0.349068 0.241316,0.286348 0.429165,0.616559 0.639113,0.925607 0.336798,0.594743 0.626917,1.233043 1.110973,1.729437 0.08747,0.0897 0.188115,0.165514 0.282173,0.248271 0.674678,0.494575 1.514968,0.572796 2.322525,0.645403 1.216309,0.07407 2.435824,0.06521 3.653843,0.06579 -0.204942,-2.58e-4 -0.455979,0.128721 -0.614824,-7.68e-4 -0.149304,-0.121716 0.385604,-0.0092 0.577111,-0.02997 0.433641,-0.04704 0.898316,-0.162362 1.265263,-0.41012 0.10685,-0.07214 0.194979,-0.168731 0.292468,-0.253096 0.505375,-0.566245 0.585421,-1.30293 0.63715,-2.02836 -0.02206,-0.417898 0.105389,-0.989802 -0.05237,-1.384006 -0.01598,-0.02333 -0.07609,-0.07281 -0.04795,-0.06999 0.421712,0.04222 0.865592,0.02854 1.257027,0.191031 0.09666,0.04013 -0.03767,0.206037 -0.05015,0.309951 -0.05254,0.437256 -0.05637,0.879994 -0.06772,1.319559 -0.01536,1.031257 -0.0088,2.062684 -0.01035,3.094023 -0.0016,0.353684 -0.0098,1.086814 0.01062,1.425872 0.01977,0.327737 0.157781,1.506556 0.18966,1.796711 0.130425,1.187076 0.09292,0.83829 0.203479,2.043623 0.143947,1.63249 0.216119,3.269989 0.260371,4.907838 -0.08246,0.428877 -0.0774,0.679266 -0.367067,1.039067 -0.37225,0.462378 -0.971284,0.785014 -1.482813,1.033018 -1.170522,0.567511 -1.572509,0.628979 -2.863902,1.020612 -0.611795,0.130961 -1.220041,0.279773 -1.835388,0.39288 -2.632847,0.483947 -5.453235,0.776756 -8.1281449,0.668274 -0.3733213,-0.01513 -0.7399703,-0.104098 -1.1099554,-0.156147 -1.0316946,-0.33116 -0.5719588,-0.118493 -1.396333,-0.599585 0,0 1.2771281,-0.134871 1.2771281,-0.134871 v 0 c 0.8005358,0.446325 0.3544128,0.248488 1.3543942,0.555966 0.4315528,0.05708 0.8627776,0.179353 1.2971692,0.151064 2.4688368,-0.160788 4.9366358,-0.455012 7.3457348,-1.031103 1.302026,-0.392178 1.639181,-0.433348 2.814803,-0.998921 0.448127,-0.215585 1.087766,-0.557805 1.436635,-0.96524 0.285177,-0.333049 0.282521,-0.566808 0.368574,-0.972375 -0.02276,-1.634817 -0.08109,-3.269642 -0.224344,-4.898853 -0.102422,-1.086012 -0.08537,-0.968973 -0.209953,-2.040626 -0.03808,-0.327573 -0.181474,-1.449401 -0.206188,-1.808482 -0.02106,-0.30599 -0.02268,-1.103527 -0.0251,-1.428478 -0.0055,-1.032428 -0.01043,-2.064933 0.0032,-3.097325 0.0095,-0.445051 0.01231,-0.891648 0.05519,-1.33517 0.01074,-0.111092 -0.06219,-0.292055 0.04195,-0.33219 1.290344,-0.497276 1.193068,-0.619608 1.434953,-0.123772 0.136165,0.460904 0.0211,0.965084 0.03494,1.437117 -0.0557,0.755808 -0.140467,1.5228 -0.645188,2.127298 -0.09895,0.09458 -0.18707,0.201974 -0.296841,0.283744 -1.012167,0.753977 -2.689448,0.450016 -3.790044,0.502386 -1.223303,-7.4e-4 -2.448539,0.0089 -3.669611,-0.07582 C 13.209121,15.24501 12.359593,15.144075 11.6932,14.60208 11.59907,14.51322 11.498831,14.430417 11.410823,14.335492 10.937596,13.825072 10.647529,13.187246 10.29956,12.593816 10.092957,12.290807 9.9042994,11.963307 9.6526275,11.694105 9.5897085,11.626805 9.5226671,11.562607 9.4493,11.506879 c -0.049995,-0.03797 -0.2265897,-0.08397 -0.1643277,-0.09204 0.3712038,-0.04809 0.7483077,-0.0214 1.1224607,-0.0321 -0.351483,0.0016 -0.7092321,-0.005 -1.0495439,0.09584 -0.3543316,0.164082 -0.5285351,0.530346 -0.6058432,0.899401 -0.097799,0.63796 -0.088192,1.282473 -0.073407,1.926308 0,0 -1.3210402,0 -1.3210402,0 z"
       inkscape:connector-curvature="0" />
    <path
       style="fill:#000000;fill-opacity:1;fill-rule:nonzero;stroke:none;stroke-width:0.26458332"
       id="path14"
       d="m 16.392847,20.527974 c 0.200099,-0.04039 0.403115,-0.06833 0.600295,-0.121157 1.628791,-0.43634 3.196783,-1.264721 4.690574,-2.029457 1.308569,-0.682843 2.630183,-1.334418 3.891691,-2.102204 0.575163,-0.325966 1.07223,-0.760067 1.557912,-1.203135 0,0 1.307497,0.109578 1.307497,0.109578 v 0 c -0.496901,0.444565 -0.992267,0.896959 -1.577419,1.225999 -1.274718,0.773667 -2.613153,1.421553 -3.936488,2.106776 -1.685402,0.862635 -3.389721,1.759567 -5.239695,2.212299 0,0 -1.294367,-0.198699 -1.294367,-0.198699 z"
       inkscape:connector-curvature="0" />
    <path
       style="fill:#000000;fill-opacity:1;fill-rule:nonzero;stroke:none;stroke-width:0.26458332"
       id="path16"
       d="m 23.890808,24.816691 c 0.152232,4.24e-4 0.304465,0.001 0.456698,0.0013 0.364066,7.14e-4 0.839838,8.73e-4 1.200522,0.001 0.219416,8.6e-5 0.824116,0.143824 0.658248,1.89e-4 -0.125674,-0.10883 -1.439283,0.08154 -0.170706,-0.07816 0.869835,-0.220899 1.279529,-0.576116 1.608522,-1.396109 0.235302,-0.827506 -0.09797,-1.174173 1.426242,-0.517504 0.09666,0.04164 -0.0496,0.204632 -0.07042,0.307804 -0.02574,0.127548 -0.04615,0.256114 -0.06922,0.384172 -0.15299,0.978559 -0.18305,1.970286 -0.206272,2.958721 0.04115,0.411343 -0.165312,1.071732 0.208864,1.392751 0.0401,0.0344 0.09192,0.05211 0.13788,0.07816 0.07161,0.01392 0.14256,0.03179 0.214826,0.04176 0.298886,0.04122 0.81267,0.05067 0.639466,0.04483 -0.304041,-0.01027 -0.614839,0.02974 -0.911947,-0.03562 -0.137462,-0.03024 0.278206,-0.04387 0.415795,-0.07353 0.133713,-0.02883 0.265015,-0.06789 0.397523,-0.101838 0.507535,-0.191501 1.083022,-0.387985 1.455635,-0.807493 0.06492,-0.07309 0.114707,-0.158332 0.172058,-0.2375 0.346189,-0.680927 0.344609,-1.468776 0.368964,-2.215818 -0.0085,-0.132023 -0.0011,-0.266048 -0.02556,-0.396068 -0.09468,-0.503632 -0.550535,-1.239901 -0.865172,-1.636236 -0.101277,-0.127571 -0.218744,-0.241401 -0.328118,-0.362102 -0.422558,-0.375792 -0.935024,-0.674269 -1.502569,-0.763165 -0.115495,-0.01809 -0.466722,-0.02458 -0.350506,-0.01191 0.336203,0.03665 0.674073,0.05595 1.011113,0.08392 -0.298982,0.256999 -0.169781,0.104711 -0.379436,0.463674 0,0 -1.307831,-0.06542 -1.307831,-0.06542 v 0 c 0.211974,-0.413365 0.08193,-0.228003 0.385133,-0.55956 0.528236,-0.03929 1.055447,-0.09633 1.584704,-0.117859 0.670332,-0.02726 1.384413,0.446365 1.852892,0.87639 0.475637,0.548949 1.072545,1.352045 1.203939,2.084087 0.0241,0.134328 0.01669,0.272438 0.02503,0.408657 -0.02696,0.771535 -0.02657,1.579292 -0.362919,2.290646 -0.05791,0.0878 -0.107539,0.181658 -0.173733,0.26339 -0.364889,0.450543 -0.953915,0.661059 -1.471364,0.872617 -0.994007,0.276125 -1.187198,0.227111 -2.487178,0.237797 -0.296775,0.0024 -0.605195,-0.03764 -0.877486,-0.158551 -0.04683,-0.0407 -0.10038,-0.07477 -0.140475,-0.122116 -0.337711,-0.398815 -0.163901,-1.01037 -0.186015,-1.477097 0.02604,-0.994431 0.0562,-1.99161 0.1979,-2.977663 0.02114,-0.129709 0.04065,-0.259689 0.06338,-0.389126 0.01847,-0.105159 -0.04129,-0.281439 0.0602,-0.314596 1.63191,-0.533159 1.443964,-0.557836 1.335521,0.0039 -0.09203,0.476748 -0.0026,0.09896 -0.13149,0.596521 -0.322013,0.838055 -0.750374,1.281346 -1.635794,1.532235 -1.118891,0.167017 -0.373676,0.07998 -2.379297,0.09386 -0.782395,0.0054 -1.564886,-0.0038 -2.347287,0.0025 0,0 1.299737,-0.205858 1.299737,-0.205858 z"
       inkscape:connector-curvature="0" />
    <path
       style="fill:#000000;fill-opacity:1;fill-rule:nonzero;stroke:none;stroke-width:0.26458332"
       id="path18"
       d="m 33.134405,23.491838 c -0.0278,1.230713 -0.02445,2.461876 -0.01767,3.6928 0.02958,0.349319 -0.08051,1.375714 0.204851,1.641144 0.03834,0.03566 0.09073,0.05232 0.136089,0.07849 0.463261,0.134414 2.567979,0.08506 0.399076,0.07946 0.436099,0.0028 0.877157,-0.0026 1.284954,-0.178218 0.223488,-0.09622 0.37719,-0.214643 0.577938,-0.350485 0.533098,-0.390046 0.939662,-0.892728 1.25041,-1.470451 0.266128,-0.567142 0.424712,-1.177447 0.553778,-1.788251 0.277807,-0.814088 0.418997,-1.654791 0.50342,-2.507814 0.08967,-1.110687 0.137107,-2.223801 0.200702,-3.336046 0.0855,-1.391565 0.117885,-2.78552 0.136057,-4.179344 0.0051,-0.517333 0.008,-1.034691 0.0074,-1.552051 -5.29e-4,-0.329038 0.0021,-0.62696 -0.07673,-0.94602 -0.34761,-0.269281 -0.784281,-0.573465 1.05338,-7.41e-4 0.09035,0.02816 -0.133728,0.136816 -0.1807,0.218971 -0.07337,0.128334 -0.126341,0.267756 -0.176982,0.406639 -0.164023,0.449832 -0.203042,0.68967 -0.312603,1.163951 -0.247573,1.229033 -0.307279,2.483041 -0.340712,3.732858 -0.02625,1.429105 -0.01804,2.858557 -0.02172,4.287832 -1.9e-5,0.04436 -0.0013,1.650764 0.0016,1.70735 0.03912,0.7582 0.171654,1.542971 0.378675,2.273386 0.06193,0.218493 0.144425,0.430622 0.216638,0.645935 0.279022,0.787418 0.601374,1.61068 1.195665,2.221971 0.07629,0.07847 0.165301,0.143478 0.247952,0.215217 0.501944,0.344578 1.107289,0.351205 1.69332,0.365874 0.889159,0.0019 -0.498888,0.0083 -0.748133,1.69e-4 -0.0444,-0.0013 0.198675,0.03181 0.419685,-0.113165 0.207893,-0.136374 0.225477,-0.216662 0.362995,-0.428955 0.381013,-0.77378 0.64262,-1.608709 0.879268,-2.437175 0.212482,-0.785967 0.295296,-1.596184 0.335971,-2.406704 -0.0013,-0.423674 0.0552,-0.853404 -0.01334,-1.274786 -0.02143,-0.131701 -0.133263,-0.545174 -0.165804,-0.669247 -0.166135,-0.515092 -0.137433,-1.185584 -0.583793,-1.561649 0.409287,0.01916 0.820526,0.01321 1.227866,0.05748 0.03174,0.0035 -0.05293,0.03991 -0.06672,0.06871 -0.02734,0.0571 -0.04214,0.11995 -0.05343,0.182237 -0.04826,0.266229 0.01079,0.50149 0.0736,0.758889 0.228637,0.644381 0.730131,1.089911 1.262399,1.488604 0.952669,0.652243 1.806363,1.431399 2.705148,2.152617 0.506073,0.425009 1.033174,0.860373 1.27853,1.494923 0.03787,0.09795 0.06123,0.200903 0.09184,0.301355 0.06546,0.385429 0.219972,1.20891 0.06317,1.564071 -0.04843,0.109694 -0.135691,0.197736 -0.203536,0.296603 -0.429006,0.4289 -0.997902,0.599147 -1.563669,0.763524 0,0 -1.290661,-0.168695 -1.290661,-0.168695 v 0 c 0.550214,-0.146035 1.109118,-0.292952 1.547418,-0.678813 0.06588,-0.08009 0.150593,-0.147846 0.197634,-0.240263 0.158853,-0.312076 0.0024,-1.147143 -0.0617,-1.496647 -0.08094,-0.251685 -0.08842,-0.321744 -0.223586,-0.552625 -0.277461,-0.473929 -0.714767,-0.813837 -1.122662,-1.16838 -0.894834,-0.727295 -1.754121,-1.500821 -2.711349,-2.148177 -0.551958,-0.424849 -1.061982,-0.894431 -1.281962,-1.577155 -0.08385,-0.354762 -0.140184,-0.681712 -0.03027,-1.038841 0.01955,-0.06354 0.0074,-0.17817 0.0735,-0.185389 0.466749,-0.05099 0.938919,0.01567 1.408377,0.02351 0.383077,0.463043 0.420492,1.070008 0.571426,1.630602 0.04375,0.167175 0.140224,0.518669 0.167473,0.690562 0.06784,0.427964 0.01794,0.863765 0.01376,1.293949 -0.04613,0.820149 -0.136022,1.639539 -0.348797,2.435336 -0.233066,0.83997 -0.502055,1.680922 -0.867691,2.472611 -0.139041,0.24702 -0.28204,0.515601 -0.562808,0.632304 -0.07169,0.0298 -0.151064,0.0423 -0.228679,0.04423 -0.668142,0.01656 -1.221449,0.0056 -1.846742,-0.0048 -0.603557,-0.02476 -1.211913,-0.06333 -1.703279,-0.457941 -0.731544,-0.701159 -1.107712,-1.552493 -1.41936,-2.505093 -0.07097,-0.219184 -0.152037,-0.435348 -0.212918,-0.657545 -0.2033,-0.741986 -0.333457,-1.533928 -0.370483,-2.30241 -0.01352,-0.280873 2.46e-4,-0.562399 -2.4e-4,-0.843597 -5.3e-4,-0.287911 -0.0019,-0.57582 -0.0027,-0.86373 -0.0078,-1.430458 -0.01479,-2.861084 0.0043,-4.291481 0.03415,-1.258472 0.09918,-2.51955 0.343887,-3.757837 0.125981,-0.574658 0.727647,-3.776962 2.218034,-1.789383 0.06705,0.33035 0.06277,0.638301 0.05947,0.975717 -0.0051,0.517841 -0.0098,1.035694 -0.01937,1.553478 -0.02751,1.395266 -0.06724,2.790351 -0.137041,4.184221 -0.05744,1.114302 -0.104407,2.228932 -0.188148,3.341774 -0.08348,0.856581 -0.214685,1.703853 -0.492609,2.522032 -0.128357,0.623325 -0.288827,1.243987 -0.553434,1.825121 -0.311079,0.597239 -0.718267,1.121656 -1.258017,1.532257 -0.184491,0.132604 -0.375796,0.281737 -0.580636,0.383884 -0.405686,0.202304 -0.845815,0.233331 -1.29181,0.222764 -0.547137,0.0013 -1.094271,0.0031 -1.641411,0.0038 -0.454224,5.29e-4 -0.94978,0.04052 -1.367264,-0.164713 -0.04622,-0.04297 -0.100626,-0.07855 -0.138673,-0.128895 -0.272418,-0.36054 -0.143592,-1.29001 -0.172281,-1.712804 0.0068,-1.230924 0.01013,-2.462087 -0.01767,-3.692799 0,0 1.322316,0 1.322316,0 z"
       inkscape:connector-curvature="0" />
    <path
       style="fill:#000000;fill-opacity:1;fill-rule:nonzero;stroke:none;stroke-width:0.26458332"
       id="path22"
       d="m 49.435932,21.535272 c 0.0045,1.000927 0.387263,1.941594 0.800478,2.835628 0.320871,0.657773 0.74022,1.258881 1.113306,1.886239 0.321591,0.540771 0.624184,1.091837 0.950667,1.629992 0.268361,0.441862 0.605742,0.831786 0.967359,1.197014 0.207528,0.162237 0.35248,0.377061 0.515956,0.581205 0.220548,0.329258 0.424566,0.668526 0.619757,1.013325 0.36608,0.327369 0.98334,0.381519 -1.107154,0.06695 -0.0475,-0.0071 0.04259,-0.08705 0.05342,-0.13385 0.04633,-0.20012 0.06093,-0.500187 0.07645,-0.692137 0.05563,-1.077481 0.05321,-2.156976 0.05062,-3.235579 -0.0038,-0.699167 -0.0069,-1.39834 -0.01111,-2.097504 -5.29e-4,-0.444492 -0.004,-0.888979 -0.0041,-1.33347 -0.0053,-0.177531 -0.0013,-0.352864 0.01495,-0.529542 0,0 1.323083,0.0128 1.323083,0.0128 v 0 c -0.01775,0.172312 -0.0213,0.343364 -0.01696,0.516713 1.4e-5,0.444436 -0.003,0.888869 -0.0024,1.333307 -0.0021,0.699302 -0.0021,1.398612 -0.0066,2.097905 -0.0061,1.081503 -0.006,2.163374 -0.04409,3.244345 -0.0029,0.04995 -0.05541,0.940144 -0.109746,0.950169 -0.939811,0.173395 -1.172221,0.347557 -1.540656,-0.132935 -0.186007,-0.341757 -0.385384,-0.676065 -0.614529,-0.991041 -0.162316,-0.201092 -0.323188,-0.39809 -0.519377,-0.567677 -0.360902,-0.369308 -0.665747,-0.791197 -0.935982,-1.230397 -0.317426,-0.539404 -0.615423,-1.090586 -0.934847,-1.628615 -0.375547,-0.632566 -0.795819,-1.239722 -1.12145,-1.901373 -0.426391,-0.913297 -0.805068,-1.870041 -0.835548,-2.891477 0,0 1.318487,0 1.318487,0 z"
       inkscape:connector-curvature="0" />
    <path
       style="fill:#000000;fill-opacity:1;fill-rule:nonzero;stroke:none;stroke-width:0.26458332"
       id="path24"
       d="m 59.660768,22.483888 c -0.713864,-0.03443 -1.23584,0.252017 -1.63403,0.847574 -0.09787,0.146375 -0.17059,0.308079 -0.255886,0.462118 -0.401373,0.884106 -0.521359,1.845774 -0.581946,2.804302 0.0084,0.428826 0.106529,0.577522 0.529876,0.667134 0.280786,0.05944 0.460057,0.06267 0.752245,0.08551 0.454837,0.01849 0.420282,0.0205 0.877699,0.02532 0.136457,0.0013 0.545857,0.0013 0.409393,0.0013 -0.316053,-2.28e-4 -1.263767,-0.01844 -0.948156,-0.0019 1.896782,0.10033 1.035214,-0.112763 1.820762,0.100364 0.470726,0.279061 0.508564,0.827924 0.55584,1.322708 0.01061,0.458179 0.0676,0.924917 -0.03454,1.375841 -0.09329,0.291478 -0.311558,0.475091 -0.579123,0.60239 -0.250129,0.104108 -0.509918,0.176639 -0.775621,0.226867 -0.161724,0.0312 -0.32635,0.03431 -0.490434,0.03559 -0.663959,0.0044 -1.327894,-7.93e-4 -1.991842,-0.0019 -0.168291,-1.95e-4 -0.336581,-1.16e-4 -0.504872,-2.64e-4 0,0 1.311494,-0.207677 1.311494,-0.207677 v 0 c 0.167992,-6.9e-5 0.335981,1.72e-4 0.503971,5.29e-4 0.527904,0.0013 1.674333,0.0044 -0.631188,0.0016 0.162489,5.29e-4 0.32547,0.0043 0.487262,-0.01384 0.26497,-0.03967 0.525643,-0.09641 0.774938,-0.19758 0.248373,-0.08405 0.471517,-0.224756 0.572839,-0.47788 0.116591,-0.431787 0.04823,-0.889844 0.04139,-1.331275 -0.04287,-0.447844 -0.07191,-0.964626 -0.545253,-1.159838 -0.07816,-0.01611 -0.31396,-0.04106 -0.234487,-0.04836 0.335954,-0.03087 1.348996,-0.01085 1.011848,-0.02307 -0.972116,-0.03525 -1.948963,0.03889 -2.920584,-0.03715 -0.478245,-0.04962 -1.174285,-0.05943 -1.285608,-0.657764 -0.0181,-0.09721 -0.0098,-0.197504 -0.01474,-0.296257 0.07675,-0.975522 0.197784,-1.954254 0.596924,-2.859 0.367784,-0.699611 0.728733,-1.323494 1.584417,-1.451735 0.09646,-0.01446 0.19508,-4.23e-4 0.292619,-6.61e-4 0,0 1.304776,0.206656 1.304776,0.206656 z"
       inkscape:connector-curvature="0" />
    <path
       style="fill:#000000;fill-opacity:1;fill-rule:nonzero;stroke:none;stroke-width:0.26458332"
       id="path28"
       d="m 61.000052,30.021456 c -1.062628,0.525375 -2.201834,0.848087 -3.330766,1.193884 -1.34993,0.370795 -2.626465,0.940261 -3.904051,1.501974 -1.461889,0.644763 -3.033408,0.956955 -4.581292,1.31804 -1.590588,0.377695 -3.10102,1.00039 -4.585049,1.673336 -0.85157,0.399685 -1.733399,0.732144 -2.659555,0.910714 -0.805505,0.155308 -1.201817,0.170493 -2.041869,0.250127 -3.410135,0.186341 -6.827816,0.171588 -10.241978,0.180507 -1.847361,0.0473 -3.703757,-0.112893 -5.544866,0.09773 -0.842311,0.09636 -1.077695,0.185447 -1.867939,0.391718 -0.882352,0.313743 -1.686809,0.817147 -2.024409,1.729899 -0.04739,0.128114 -0.07431,0.26289 -0.111471,0.394332 -0.154696,0.813562 -0.118634,1.646984 -0.109233,2.470754 0.01455,0.381415 0.002,0.764339 0.02244,1.145587 0.0044,0.0826 7.41e-4,0.167386 0.02285,0.247095 0.0437,0.15763 0.113048,0.177286 0.233826,0.264784 0.07178,0.02119 0.142205,0.04769 0.215338,0.06361 0.09063,0.01974 0.36763,0.04066 0.274906,0.04312 -0.319741,0.0085 -0.643283,0.02482 -0.959234,-0.025 -0.12059,-0.01902 0.242812,-0.03392 0.359575,-0.06955 0.335937,-0.102523 0.447264,-0.199096 0.746408,-0.384114 0.955439,-0.762654 1.729505,-1.729743 2.466132,-2.698417 0.796744,-1.113686 1.02598,-2.306605 1.170234,-3.635679 0.08019,-0.92906 0.0786,-1.862291 0.06847,-2.793915 -0.0057,-0.478647 -0.0058,-0.957329 -0.01108,-1.435979 -0.0011,-0.09716 -0.01407,-0.194847 -0.0038,-0.291475 0.0089,-0.08429 0.04055,-0.164605 0.06082,-0.246909 0.05083,-0.06684 0.08912,-0.145423 0.152492,-0.200509 0.361471,-0.314188 1.394579,-0.331301 1.836593,-0.334508 0.677641,-0.0049 1.355286,0.0093 2.032926,0.01402 2.17955,0.15912 4.327835,0.63876 6.393405,1.346729 0.684263,0.23453 1.356053,0.503984 2.034082,0.755976 0.791512,0.346876 1.589691,0.678923 2.374538,1.04063 3.11187,1.434139 2.617274,1.359765 6.058916,2.83293 3.087412,1.321544 5.782442,2.335546 8.973394,3.416332 1.497245,0.507122 3.012485,0.95948 4.518726,1.43922 1.307888,0.382884 2.615779,0.76577 3.92367,1.148654 0,0 -1.003694,0.129497 -1.003694,0.129497 v 0 c -1.290304,-0.385857 -2.580608,-0.771715 -3.870913,-1.15757 -1.49997,-0.4816 -3.008002,-0.938784 -4.499914,-1.444797 -3.125303,-1.060011 -6.030563,-2.137688 -9.07067,-3.412823 -3.851206,-1.615342 -2.721076,-1.271133 -6.150322,-2.820599 -0.795462,-0.35942 -1.605031,-0.68676 -2.407544,-1.030139 -0.685805,-0.248806 -1.36534,-0.515626 -2.057413,-0.746422 -2.093796,-0.698256 -4.271571,-1.161153 -6.475984,-1.30063 0.165513,-0.0054 0.661535,-0.03021 0.496535,-0.01614 -0.460023,0.03926 -1.381484,-0.01408 -1.791644,0.235339 -0.0585,0.03557 -0.100163,0.09336 -0.150245,0.140044 -0.02155,0.07031 -0.0552,0.138004 -0.06467,0.210931 -0.01251,0.09633 -6.35e-4,0.194273 -5.82e-4,0.29141 3.44e-4,0.478705 0.0072,0.957347 0.0099,1.436036 4.76e-4,0.93685 -0.0026,1.874986 -0.08964,2.808727 -0.149709,1.348578 -0.376073,2.568448 -1.176884,3.704614 -0.736891,0.978923 -1.515571,1.947899 -2.451141,2.74498 -0.285923,0.192424 -0.422982,0.310272 -0.74607,0.430363 -0.116281,0.04322 -0.236567,0.08641 -0.360469,0.09255 -0.771236,0.03824 -1.472831,0.175786 -2.141305,-0.169752 -0.04869,-0.05189 -0.107681,-0.09576 -0.146059,-0.155683 -0.220429,-0.34417 -0.06104,-1.202685 -0.117969,-1.61085 -0.01271,-0.836213 -0.0477,-1.681683 0.107928,-2.507847 0.03784,-0.138002 0.06534,-0.279265 0.113532,-0.413999 0.3413,-0.954154 1.14951,-1.502916 2.070559,-1.840357 0.789042,-0.211879 1.053513,-0.310851 1.893852,-0.411779 1.854397,-0.222718 3.729414,-0.0516 5.590919,-0.09917 3.396837,-0.0058 6.797127,0.0074 10.189985,-0.177276 0.821886,-0.07506 1.225913,-0.09116 2.015842,-0.236722 0.921203,-0.169754 1.797796,-0.491178 2.644201,-0.887196 1.4952,-0.674521 3.013194,-1.306399 4.612296,-1.694942 1.535216,-0.359529 3.094331,-0.665631 4.547108,-1.298633 1.285023,-0.56419 2.570004,-1.134481 3.925027,-1.514242 1.111425,-0.345038 2.243738,-0.647655 3.281662,-1.187434 0,0 1.31065,0.154847 1.31065,0.154847 z"
       inkscape:connector-curvature="0" />
  </g>
</svg>
