<?xml version="1.0" encoding="UTF-8" standalone="no"?>
<!-- Created with Inkscape (http://www.inkscape.org/) -->

<svg
   xmlns:dc="http://purl.org/dc/elements/1.1/"
   xmlns:cc="http://creativecommons.org/ns#"
   xmlns:rdf="http://www.w3.org/1999/02/22-rdf-syntax-ns#"
   xmlns:svg="http://www.w3.org/2000/svg"
   xmlns="http://www.w3.org/2000/svg"
   xmlns:sodipodi="http://sodipodi.sourceforge.net/DTD/sodipodi-0.dtd"
   xmlns:inkscape="http://www.inkscape.org/namespaces/inkscape"
   width="102.52252mm"
   height="44.634525mm"
   viewBox="0 0 102.52252 44.634525"
   version="1.1"
   id="svg8"
   inkscape:version="0.92.4 (unknown)"
   sodipodi:docname="initium.svg">
  <defs
     id="defs2" />
  <sodipodi:namedview
     id="base"
     pagecolor="#ffffff"
     bordercolor="#666666"
     borderopacity="1.0"
     inkscape:pageopacity="0.0"
     inkscape:pageshadow="2"
     inkscape:zoom="0.98994949"
     inkscape:cx="117.39547"
     inkscape:cy="-58.621571"
     inkscape:document-units="mm"
     inkscape:current-layer="layer1"
     showgrid="false"
     fit-margin-top="0"
     fit-margin-left="0"
     fit-margin-right="0"
     fit-margin-bottom="0"
     inkscape:window-width="1736"
     inkscape:window-height="823"
     inkscape:window-x="476"
     inkscape:window-y="272"
     inkscape:window-maximized="0" />
  <metadata
     id="metadata5">
    <rdf:RDF>
      <cc:Work
         rdf:about="">
        <dc:format>image/svg+xml</dc:format>
        <dc:type
           rdf:resource="http://purl.org/dc/dcmitype/StillImage" />
        <dc:title></dc:title>
      </cc:Work>
    </rdf:RDF>
  </metadata>
  <g
     inkscape:label="Layer 1"
     inkscape:groupmode="layer"
     id="layer1"
     transform="translate(-15.044671,-14.185086)">
    <path
       style="fill:#000000;fill-opacity:1;fill-rule:nonzero;stroke:none;stroke-width:0.26458332"
       id="path3713"
       d="m 15.044701,16.934412 c 0.188693,-0.65398 0.529235,-1.157013 1.118725,-1.496089 0.717749,-0.321852 1.505168,-0.328457 2.276767,-0.349437 1.338521,-0.0066 2.679522,-0.03824 4.016952,-0.0053 0.250826,0.0062 0.635179,0.136603 0.846106,0.265585 0.141279,0.08639 0.258845,0.206622 0.388267,0.309932 0.941514,0.723501 1.822513,1.516326 2.728395,2.284346 0.57468,0.512433 1.285071,0.581635 2.019115,0.624013 -0.73882,-0.01374 -1.480924,0.02971 -2.216459,-0.04121 -0.133525,-0.01288 0.258299,-0.07696 0.378763,-0.135974 0.562272,-0.275454 1.005555,-0.718679 1.380469,-1.206585 0.473125,-0.670181 0.574231,-1.474558 0.632563,-2.270567 0.04053,-1.138531 -0.29999,-0.744376 2.662576,-0.150305 0.119367,0.02394 -0.01109,0.243245 -0.01487,0.364931 -0.01254,0.405183 -0.01611,0.746759 -0.02252,1.156337 -0.02077,2.061289 -0.04161,4.122592 -0.06058,6.183907 -0.03824,3.614484 -0.04251,7.229126 -0.01482,10.843683 0.01119,1.280838 0.04374,2.612734 -0.692346,3.73234 -0.708851,1.078169 -1.750693,1.546638 -2.869028,2.06502 -1.006295,0.389919 -2.056496,0.636045 -3.120451,0.802322 -0.360332,0.05631 -1.078261,0.15294 -1.471625,0.142568 -1.024312,-0.02701 -2.047375,-0.08964 -3.071063,-0.134461 -0.560668,-0.375973 -0.745371,-0.950465 -0.854115,-1.582261 0,0 2.622314,-0.04496 2.622314,-0.04496 v 0 c 0.09618,0.551931 0.266856,1.030438 0.814841,1.276246 -0.689723,0.02998 -1.379869,0.05144 -2.06917,0.08993 -0.223503,0.01249 0.448125,0.0035 0.671448,-0.01188 1.35474,-0.09321 2.69508,-0.393067 3.979047,-0.826352 1.065187,-0.457245 2.136999,-0.9071 2.841743,-1.890265 0.762648,-1.063937 0.747511,-2.372003 0.758208,-3.618243 0.02769,-3.614592 0.0232,-7.229256 -0.01318,-10.843788 -0.01725,-2.061619 -0.03749,-4.12321 -0.04247,-6.184902 -0.0026,-0.357971 -0.004,-0.793355 -0.0123,-1.156142 -0.0028,-0.120591 -0.130894,-0.339317 -0.01236,-0.361653 3.156321,-0.594765 2.703444,-0.951761 2.618356,0.168672 -0.07101,0.838127 -0.173302,1.699692 -0.654513,2.414642 -0.09526,0.136343 -0.179982,0.280689 -0.285779,0.409028 -0.186692,0.226472 -1.202496,1.12449 -1.482717,1.14703 -0.987343,0.07942 -1.980753,0.0352 -2.97113,0.0528 -0.763719,-0.07386 -1.460694,-0.236044 -2.031061,-0.789644 -0.887723,-0.778041 -1.762602,-1.575617 -2.725182,-2.260499 -0.362599,-0.227315 -0.375806,-0.281178 -0.793812,-0.369079 -0.137725,-0.02896 -0.560301,-0.0427 -0.419621,-0.04669 4.069358,-0.115328 2.048295,0.03659 1.147381,0.0013 -0.754986,0.01156 -1.524096,-0.0016 -2.249635,0.238159 -0.626318,0.251721 -0.907524,0.639936 -1.085898,1.288655 0,0 -2.645361,-0.08514 -2.645361,-0.08514 z"
       inkscape:connector-curvature="0" />
    <path
       style="fill:#000000;fill-opacity:1;fill-rule:nonzero;stroke:none;stroke-width:0.26458332"
       id="path3715"
       d="m 29.681836,32.129663 c 1.165342,-0.541305 2.036697,-1.447821 2.803525,-2.453362 0.683737,-0.962086 1.023012,-2.097775 1.27762,-3.236257 0.287269,-1.602748 0.216453,-1.496138 2.967527,-0.691838 0.164613,0.04812 0.0395,0.34083 0.05196,0.51188 0.01535,0.210704 0.02096,0.422005 0.03144,0.633008 0.04627,2.073296 0.0021,4.147534 -0.0021,6.221174 0.0011,0.397526 7.94e-4,0.795054 0.0031,1.192572 0.0027,0.456941 0.0092,1.248802 0.02572,1.739255 0.0042,0.126008 0.14736,0.379753 0.0213,0.377634 -2.853767,-0.048 -2.640547,0.360156 -2.607532,-1.094769 0.05419,-1.588788 0.171018,-3.171386 0.334661,-4.75216 0.150743,-0.816348 0.425307,-1.305938 1.232675,-1.542822 1.578827,-0.193072 3.181633,-0.08537 4.771273,-0.06202 0.524656,0.05337 1.320575,-0.198512 1.658758,0.350853 0.08983,0.145923 0.133831,0.3155 0.200747,0.47325 0.426945,1.659514 0.449935,3.396038 0.501806,5.10038 0.07801,1.364928 -0.03453,2.740401 0.08764,4.102413 0.155601,0.861295 0.408188,0.980238 1.230048,1.137652 -3.851341,-0.06288 -2.409108,0.166434 -1.553226,-0.203403 0.464783,-0.200838 1.014862,-0.607145 1.424416,-0.886511 0,0 2.547892,0.245764 2.547892,0.245764 v 0 c -2.13986,1.526712 -1.716484,1.310015 -5.021056,1.191538 -0.831125,-0.252431 -1.136663,-0.592053 -1.244994,-1.466665 -0.07085,-1.368494 0.04369,-2.74356 -0.02619,-4.113236 -0.04781,-1.667177 -0.0529,-3.382915 -0.556622,-4.98696 -0.07136,-0.119165 -0.120542,-0.254814 -0.214077,-0.357499 -0.301268,-0.330735 -1.222447,-0.116047 -1.624767,-0.181102 -0.913214,-0.01191 -2.736813,-0.0053 1.407443,-0.01177 0.479793,-7.94e-4 -0.488576,-0.0043 -0.705289,0.0049 -0.09119,0.0039 -0.182046,0.01352 -0.273068,0.02027 -0.786905,0.09997 -1.068337,0.429705 -1.248482,1.215165 -0.204083,1.566807 -0.336573,3.140226 -0.343336,4.72163 0.03683,1.453486 0.248909,1.045789 -2.602955,1.094129 -0.126,0.0021 0.01916,-0.251362 0.02413,-0.377283 0.01918,-0.486793 0.02908,-1.287084 0.03351,-1.739101 0.0039,-0.397483 0.0051,-0.794991 0.0076,-1.192485 0.0021,-2.068078 0.0028,-4.137517 -0.08131,-6.204188 -0.01622,-0.20524 -0.02511,-0.411186 -0.04862,-0.61572 -0.01778,-0.154703 -0.224406,-0.416896 -0.07509,-0.461088 0.817641,-0.241987 1.695905,-0.179707 2.543857,-0.269561 -0.03062,0.04815 -0.07157,0.09112 -0.09187,0.144451 -0.07785,0.204538 -0.142827,0.590785 -0.182036,0.7897 -0.263202,1.172482 -0.618363,2.342671 -1.299633,3.346384 -0.768168,1.022686 -1.620451,1.968497 -2.766555,2.577052 0,0 -2.619838,-0.291245 -2.619838,-0.291245 z"
       inkscape:connector-curvature="0" />
    <path
       style="fill:#000000;fill-opacity:1;fill-rule:nonzero;stroke:none;stroke-width:0.26458332"
       id="path3717"
       d="m 49.163223,29.419724 c -0.05066,1.66166 -0.04998,3.324612 -0.05459,4.986925 -0.01789,2.217719 -0.01291,4.435409 0.01418,6.653006 0.02853,0.164584 -0.01095,0.357447 0.08561,0.493747 0.04463,0.06301 0.300995,-0.04221 0.224917,-0.05541 -0.700217,-0.121494 -1.49682,0.07891 -2.114561,-0.272455 -0.261461,-0.14872 0.504682,-0.327938 0.747927,-0.504886 0.711711,-0.517739 0.89925,-0.708117 1.560576,-1.286843 0.875064,-0.78985 0.450527,-0.41356 1.272133,-1.13053 0,0 2.561849,0.221821 2.561849,0.221821 v 0 c -0.844712,0.706861 -0.410226,0.333251 -1.300906,1.123786 -0.724712,0.646681 -0.782696,0.72036 -1.547238,1.315506 -0.232426,0.180927 -0.421418,0.463401 -0.708901,0.527513 -1.012301,0.225747 -2.058175,0.291237 -3.094919,0.320754 -0.10238,0.0029 -0.175135,-0.129522 -0.207367,-0.22674 -0.05538,-0.167045 -0.02818,-0.35084 -0.04227,-0.526259 0.02708,-2.217597 0.03206,-4.435287 0.01418,-6.653006 -0.0046,-1.662313 -0.0039,-3.325265 -0.05459,-4.986925 0,0 2.643957,0 2.643957,0 z"
       inkscape:connector-curvature="0" />
    <path
       style="fill:#000000;fill-opacity:1;fill-rule:nonzero;stroke:none;stroke-width:0.26458332"
       id="path3719"
       d="m 56.640613,23.635704 c -0.08752,2.597845 -0.08227,5.197876 -0.08399,7.79688 0.0063,2.388542 0.0096,4.777073 0.05923,7.165179 0.04129,0.138774 -0.02556,0.949679 0.28652,1.000799 0.08315,0.01363 0.30988,-0.10207 0.226288,-0.112662 -0.761058,-0.09641 -1.569199,0.09423 -2.296557,-0.149608 -0.211908,-0.07104 0.328149,-0.303525 0.492223,-0.455287 0.784209,-0.920369 1.52319,-1.87687 2.300848,-2.803324 0,0 2.557042,0.18117 2.557042,0.18117 v 0 c -0.795991,0.914342 -1.545246,1.860373 -2.279722,2.824433 -0.153082,0.166933 -0.238894,0.448397 -0.459247,0.500798 -0.953985,0.226851 -1.946834,0.251251 -2.92599,0.304194 -0.488797,0.02643 -0.483878,-1.037921 -0.483526,-1.290513 0.04961,-2.388106 0.05294,-4.776637 0.05923,-7.165179 -0.0019,-2.599004 0.0035,-5.199035 -0.084,-7.79688 0,0 2.631644,0 2.631644,0 z"
       inkscape:connector-curvature="0" />
    <path
       style="fill:#000000;fill-opacity:1;fill-rule:nonzero;stroke:none;stroke-width:0.26458332"
       id="path3723"
       d="m 61.718734,30.317442 c -0.03106,1.351574 -0.02911,2.70374 -0.02733,4.05561 0.0011,1.11896 0.01236,2.237854 0.02148,3.356769 -0.03781,0.772615 0.179713,1.047012 0.867466,1.315424 0.608203,0.151974 1.247147,0.117398 1.869633,0.117842 -4.196816,-0.04091 -1.93592,0.03924 -0.982771,-0.02767 0,0 2.603058,0.383866 2.603058,0.383866 v 0 c -1.38919,0.19794 -2.831288,-0.233344 -4.209032,0.05274 -0.637772,-0.0047 -1.304488,0.02755 -1.902719,-0.228177 -0.687874,-0.373753 -0.911545,-0.825388 -0.865589,-1.614024 0.0091,-1.118915 0.02056,-2.237809 0.02148,-3.356769 0.0019,-1.35187 0.0037,-2.704036 -0.02733,-4.05561 0,0 2.631644,0 2.631644,0 z"
       inkscape:connector-curvature="0" />
    <path
       style="fill:#000000;fill-opacity:1;fill-rule:nonzero;stroke:none;stroke-width:0.26458332"
       id="path3727"
       d="m 68.404578,31.58985 c -0.03785,1.283782 -0.0285,2.568363 -0.02945,3.852542 0.0034,1.388409 -1.43e-4,2.776821 0.0013,4.16523 -0.02964,1.163648 0.06266,1.794325 1.103146,2.390976 0.784368,0.327358 1.638551,0.347136 2.475275,0.369951 -0.753335,-0.01371 -1.509583,0.02653 -2.259999,-0.04111 -0.110361,-0.0099 0.214108,-0.06999 0.30368,-0.135226 0.100764,-0.07338 0.186637,-0.168994 0.256128,-0.272481 0.321167,-0.478295 0.377129,-1.08803 0.467524,-1.63781 0.175866,-1.509133 0.163181,-3.031464 0.164954,-4.548344 0.0024,-1.448141 -0.03305,-2.896759 0.0218,-4.344122 0.183655,-1.789364 0.455835,-1.532364 3.049018,-0.892109 0.139931,0.03455 0.06549,0.280953 0.08858,0.423225 0.02909,0.179348 0.04521,0.360561 0.06782,0.540843 0.109148,1.571709 0.126089,3.148491 0.139483,4.723447 -0.02368,1.308968 0.172206,2.664521 0.8955,3.785092 0.127368,0.197329 0.284383,0.373859 0.426575,0.560787 0.748326,0.875514 1.578306,1.157827 2.682237,1.279306 0.969285,-0.04046 2.776723,0.478311 -1.455769,-0.02103 -0.10845,-0.01281 0.197154,-0.100576 0.276709,-0.175384 0.255659,-0.240406 0.359246,-0.520221 0.518049,-0.828757 0.700148,-1.566236 1.199269,-3.206247 1.523077,-4.888328 0.1861,-1.319072 0.318145,-2.643513 0.538461,-3.957831 0.377336,-1.587751 0.346898,-1.361215 3.019272,-0.766175 0.137501,0.03062 0.03488,0.279691 0.04533,0.420172 0.01445,0.194291 0.01955,0.389165 0.02932,0.583747 0.05549,1.854195 0.03563,3.709453 0.03622,5.564177 0.0652,1.460765 -0.09656,2.943278 0.05495,4.400714 -0.885502,-0.02943 -1.781035,0.04784 -2.656509,-0.08828 -0.105701,-0.01643 0.02461,-0.21277 0.04562,-0.317658 0.03473,-0.173313 0.08138,-0.344025 0.121472,-0.516179 0.152334,-0.654145 0.28076,-1.304663 0.389041,-1.967595 0.259638,-1.015354 0.502981,-2.046425 0.914477,-3.014583 0.120573,-0.283676 0.548775,-1.107773 0.694743,-1.392637 0.547854,-0.938003 1.294799,-1.765763 2.256581,-2.281057 1.153112,-0.275651 1.238255,-0.332912 3.220227,0.154572 0.182108,0.04479 0.148233,0.345247 0.204198,0.524235 0.264263,0.8452 0.372348,1.748954 0.522174,2.618091 0.275262,1.667233 0.470463,3.346006 0.639558,5.026853 0.01431,0.05858 0.103281,0.176189 0.04298,0.175729 -0.869868,-0.0066 -1.761778,0.0286 -2.602362,-0.1953 -0.15594,-0.04154 0.04543,-0.319566 0.07156,-0.478814 0.138769,-0.845841 0.317921,-1.669761 0.531257,-2.499823 0.40748,-1.69029 0.738611,-3.142149 1.732677,-4.593923 1.300906,-1.498423 2.28451,-1.044617 4.403855,-1.031581 0.395631,0.805505 0.309017,1.753513 0.328308,2.623674 0.02656,1.198121 0.0489,1.778371 0.08863,2.993536 0.06163,1.334764 0.06806,2.681671 0.230021,4.010355 0.04406,0.361485 0.167831,1.098394 0.337944,1.466282 0.06861,0.148383 0.186973,0.268218 0.280461,0.402328 0.317281,0.316584 0.713127,0.420986 1.145569,0.47911 0.158637,0.02132 0.638676,0.03938 0.478613,0.03887 -2.412748,-0.0077 -2.784681,0.139274 -1.717048,-0.159533 0.452819,-0.278479 0.249397,-0.115975 0.613439,-0.483515 0,0 2.613472,0.193429 2.613472,0.193429 v 0 c -0.374446,0.443232 -0.165253,0.238368 -0.630877,0.6112 -1.330389,0.56673 -0.430893,0.246936 -3.46147,0.217401 -0.632407,-0.0062 -1.239459,-0.271357 -1.643914,-0.752097 -0.08863,-0.158885 -0.201031,-0.306673 -0.265885,-0.476652 -0.149681,-0.392298 -0.245118,-1.13833 -0.278908,-1.519635 -0.118285,-1.334735 -0.104961,-2.681089 -0.173808,-4.018195 -0.06494,-1.511893 -0.05844,-1.522365 -0.147751,-2.992379 -0.03126,-0.514549 -0.01117,-1.618358 -0.273592,-2.138328 -0.02812,-0.05572 -0.09539,-0.08052 -0.143079,-0.120777 0.80554,-0.01431 1.610958,-0.04571 2.416622,-0.04296 0.0877,2.65e-4 -0.173096,0.02927 -0.258228,0.05032 -0.528339,0.130643 -0.993606,0.396796 -1.352174,0.811017 -1.060061,1.398524 -1.365414,2.815995 -1.770925,4.495564 -0.205007,0.816253 -0.387901,1.624373 -0.475036,2.463202 -0.01789,0.172247 0.136348,0.476536 -0.03165,0.518555 -0.872935,0.218326 -1.794748,0.172071 -2.69453,0.163279 -0.06323,-5.29e-4 -0.0034,-0.126436 -0.0051,-0.189653 -0.0974,-1.675884 -0.272402,-3.347847 -0.564751,-5.001673 -0.109942,-0.568513 -0.2482,-1.338754 -0.396528,-1.910802 -0.05594,-0.215741 -0.112271,-0.432718 -0.196107,-0.639226 -0.05417,-0.133429 -0.355766,-0.342167 -0.215429,-0.374472 0.794795,-0.182952 3.351898,-0.07417 1.999441,-0.126535 -0.999067,0.440434 -1.698107,1.203124 -2.285492,2.112299 -0.103717,0.198424 -0.612336,1.163542 -0.698297,1.360572 -0.414036,0.949026 -0.645247,1.96615 -0.905205,2.963627 -0.123632,0.829043 -0.336632,1.643049 -0.45584,2.4712 -0.01376,0.09551 0.07787,0.27545 -0.01768,0.288949 -0.876993,0.123897 -1.770417,0.05914 -2.655625,0.08872 0.161576,-1.455772 -0.0065,-2.939963 0.0617,-4.399556 -0.0033,-1.848649 -0.0028,-3.69929 -0.100856,-5.545764 -0.01775,-0.187775 -0.02799,-0.376415 -0.05328,-0.563324 -0.01572,-0.116137 -0.184652,-0.322673 -0.06954,-0.344633 0.842967,-0.160806 1.714058,-0.08838 2.571085,-0.13257 -0.03518,0.02376 -0.08501,0.0341 -0.105545,0.07125 -0.06926,0.125355 -0.206819,0.655529 -0.235436,0.758201 -0.242364,1.313823 -0.373597,2.641671 -0.580491,3.961051 -0.325559,1.70036 -0.841703,3.348971 -1.487397,4.955841 -0.08306,0.185994 -0.509564,1.193641 -0.783008,1.228003 -1.267317,0.15925 -2.489859,0.189238 -3.736176,0.05476 -1.128488,-0.181364 -1.948432,-0.567272 -2.673411,-1.490101 -0.140597,-0.199599 -0.296421,-0.389298 -0.421791,-0.598792 -0.701426,-1.172104 -0.923443,-2.561537 -0.899041,-3.908184 -0.0084,-1.56328 -0.0016,-3.131704 -0.169455,-4.687906 -0.02812,-0.171183 -0.04699,-0.344144 -0.08435,-0.513549 -0.0264,-0.119795 -0.226819,-0.327906 -0.106585,-0.352242 0.825029,-0.16701 1.681721,-0.08025 2.521596,-0.136626 0.04619,-0.0031 -0.106678,-0.05851 -0.136898,-0.02344 -0.159285,0.184849 -0.195218,0.770655 -0.217385,0.92719 -0.0644,1.443707 -0.0021,2.889271 -0.02032,4.33409 -0.0052,1.529709 -0.0089,3.063562 -0.159908,4.587184 -0.102712,0.715891 -0.163301,1.58546 -0.695386,2.142323 -0.08962,0.0938 -0.184182,0.218689 -0.313344,0.230836 -0.974674,0.09168 -1.957321,0.04986 -2.935983,0.07479 -0.852998,-0.04087 -1.723821,-0.09027 -2.489388,-0.510307 -1.009719,-0.729652 -1.127535,-1.433489 -1.079775,-2.651366 0.0016,-1.388409 -0.0021,-2.776821 0.0013,-4.16523 -0.0011,-1.284179 0.0084,-2.56876 -0.02945,-3.852542 0,0 2.639854,0 2.639854,0 z"
       inkscape:connector-curvature="0" />
    <path
       style="fill:#000000;fill-opacity:1;fill-rule:nonzero;stroke:none;stroke-width:0.26458332"
       id="path3729"
       d="m 53.97093,27.625328 c 1.022183,-0.183864 1.879055,-0.774679 2.744764,-1.310344 0.536892,-0.318131 1.053401,-0.660881 1.545328,-1.043707 0.221041,-0.135657 0.110342,-0.07547 0.331089,-0.182409 0,0 2.63366,0.286526 2.63366,0.286526 v 0 c -0.211567,0.121535 -0.102577,0.07585 -0.325316,0.14095 -0.518973,0.377504 -1.030539,0.756502 -1.59929,1.062131 -0.858187,0.533598 -1.703567,1.175811 -2.709471,1.387486 0,0 -2.620764,-0.340633 -2.620764,-0.340633 z"
       inkscape:connector-curvature="0" />
    <path
       style="fill:#000000;fill-opacity:1;fill-rule:nonzero;stroke:none;stroke-width:0.26458332"
       id="path3733"
       d="m 46.649864,24.917407 c 0.105101,-0.161974 0.651119,-1.032243 0.441926,-1.203712 -0.03177,-0.02604 -0.081,-0.01379 -0.121497,-0.02069 -0.918697,0.36535 0.105294,-0.06274 2.314678,0.09913 0.06866,0.005 -0.118358,0.07363 -0.164904,0.12435 -0.179088,0.195162 -0.258741,0.463391 -0.340902,0.707305 -0.117438,0.378614 -0.141192,0.773803 -0.151696,1.167159 0,0 -2.652729,-0.0076 -2.652729,-0.0076 v 0 c 0.01281,-0.417968 0.04968,-0.839237 0.168786,-1.241784 0.438936,-1.418239 1.375881,-2.338937 3.468492,-1.080902 0.384119,0.56163 -0.05737,1.083532 -0.323631,1.612085 0,0 -2.638523,-0.155325 -2.638523,-0.155325 z"
       inkscape:connector-curvature="0" />
    <path
       style="fill:#000000;fill-opacity:1;fill-rule:nonzero;stroke:none;stroke-width:0.26458332"
       id="path3735"
       d="m 61.755681,26.267477 c 0.06745,-0.698636 -0.039,-1.320144 -0.660302,-1.716425 -0.982398,-0.261949 -0.550283,-0.127922 2.197457,6.1e-5 0.04679,0.0022 -0.143595,-0.0545 -0.272611,0.193408 -0.0956,0.183686 -0.119327,0.409327 -0.156173,0.606772 -0.03147,0.598847 -0.165722,1.234082 -0.04633,1.830146 0.05929,0.156882 0.02548,0.08725 0.09619,0.211373 0,0 -2.655885,0.1137 -2.655885,0.1137 v 0 c -0.06433,-0.171704 -0.0339,-0.07785 -0.087,-0.282922 -0.08174,-0.633487 0.03119,-1.282565 0.06811,-1.915897 0.03907,-0.259853 0.05479,-0.458361 0.142835,-0.705081 0.43062,-1.206686 2.369577,-0.908437 3.337967,-0.289756 0.572807,0.53276 0.729179,1.1853 0.675595,1.954621 0,0 -2.639853,0 -2.639853,0 z"
       inkscape:connector-curvature="0" />
    <path
       style="fill:#000000;fill-opacity:1;fill-rule:nonzero;stroke:none;stroke-width:0.26458332"
       id="path3739"
       d="m 95.129685,44.080125 c 2.004306,-1.617154 4.137591,-3.059742 6.402185,-4.284313 2.07835,-1.075425 4.32162,-1.552826 6.6259,-1.80802 2.09693,-0.08282 4.07778,-0.342878 5.85557,0.867188 1.16633,0.793872 1.68776,1.737342 2.33943,2.935539 0.92978,2.114142 1.1101,4.426495 1.20816,6.704528 -0.004,0.313592 0.0233,0.629185 -0.0123,0.940779 -0.28536,2.498236 -2.35319,3.500919 -4.32737,4.589251 -3.55244,1.859812 -7.42241,2.937002 -11.36153,3.597905 -0.8999,0.150984 -1.80636,0.259754 -2.709542,0.38963 -6.214941,0.701744 -12.48075,0.721863 -18.727287,0.77533 -3.923361,-0.08166 -7.900265,0.275878 -11.798065,-0.330338 -0.545893,-0.0849 -2.998515,-0.62884 -3.536987,-0.746378 -3.756885,-1.051722 -7.397694,-2.469275 -11.069896,-3.777563 -2.817749,-0.996058 -5.656078,-1.926539 -8.434631,-3.029238 -1.807065,-0.786556 -3.60127,-1.618652 -5.473208,-2.242095 -1.572998,-0.498837 -3.18384,-0.778327 -4.820745,-0.951746 -0.272119,-0.0199 -0.54405,-0.04255 -0.816351,-0.05971 -0.430496,-0.02713 -0.985501,-0.0512 -1.421765,-0.06338 -0.231238,-0.0065 -0.924438,-0.03238 -0.693846,-0.01392 1.937957,0.155056 2.43667,-0.06933 0.960827,0.322112 -1.542627,0.548486 -3.035875,1.191686 -4.256453,2.302502 -0.83098,0.934212 -1.177941,2.117087 -1.396937,3.319946 -0.104076,0.724477 -0.143562,1.456129 -0.166544,2.187004 -0.01029,0.32707 -0.09608,0.920901 0.173797,1.218909 0.162859,0.179832 0.418692,0.24525 0.628038,0.367874 0.423082,0.09787 0.84074,0.223202 1.269249,0.293624 1.267886,0.208367 2.947906,0.315838 4.202335,0.382727 2.42547,0.129331 4.854577,0.156425 7.282693,0.187579 -0.135879,-0.01696 -0.541319,-0.02119 -0.407641,-0.0509 1.745216,-0.387641 1.582944,0.02738 3.195804,-0.745016 1.564884,-0.749419 2.143493,-1.469821 3.484634,-2.668334 0,0 2.339488,0.193048 2.339488,0.193048 v 0 c -1.267087,1.218544 -1.857311,1.997184 -3.377559,2.77839 -2.303405,1.183645 -5.14781,0.796115 -7.586041,0.861764 -2.426036,-0.03849 -4.85358,-0.06996 -7.276912,-0.201393 -1.163603,-0.06311 -3.140176,-0.185142 -4.334044,-0.408803 -0.459703,-0.08612 -0.901172,-0.250735 -1.351757,-0.376102 -0.220711,-0.178226 -0.495144,-0.305351 -0.662131,-0.534681 -0.255162,-0.350427 -0.170628,-0.929727 -0.156586,-1.309494 0.02743,-0.741847 0.05943,-1.484752 0.154343,-2.221696 0.217396,-1.255331 0.572838,-2.49007 1.407226,-3.486348 0.164338,-0.157073 0.317585,-0.326639 0.493017,-0.471218 1.10649,-0.911876 2.500159,-1.397108 3.801107,-1.949503 0.274432,-0.08439 0.537454,-0.226168 0.823296,-0.253164 2.079154,-0.196365 4.155414,-0.171783 6.228668,0.02479 1.640184,0.192527 3.258836,0.488511 4.831241,1.00729 1.845231,0.653486 3.620415,1.482825 5.414838,2.261071 2.756784,1.090324 5.566018,2.033045 8.357235,3.030294 3.666064,1.31767 7.30517,2.739837 11.073302,3.745187 0.775438,0.167291 2.737554,0.603671 3.526605,0.721942 2.362496,0.354124 4.768072,0.351968 7.148454,0.331711 6.227625,-0.04594 12.473635,-0.06555 18.670889,-0.752856 0.899435,-0.126682 1.802087,-0.232312 2.698305,-0.38005 3.900567,-0.642985 7.737227,-1.69033 11.252147,-3.535955 1.83471,-1.00801 3.90658,-2.009315 4.19351,-4.334317 0.0378,-0.306583 0.0128,-0.617683 0.0192,-0.926526 -0.0785,-2.24052 -0.23443,-4.515043 -1.17195,-6.587662 -0.65298,-1.162637 -1.16031,-2.050497 -2.33366,-2.783445 -0.33409,-0.20869 -0.69662,-0.375195 -1.0689,-0.503907 -0.35579,-0.12301 -1.33297,0.05068 -1.10211,-0.246687 0.2688,-0.346234 0.87647,-0.0181 1.31469,-0.02714 -2.34383,0.235418 -4.49505,0.664882 -6.63144,1.710467 -2.24298,1.165379 -4.339344,2.56581 -6.269723,4.202332 0,0 -2.622267,-0.18882 -2.622267,-0.18882 z"
       inkscape:connector-curvature="0" />
  </g>
</svg>
