<?xml version="1.0" encoding="UTF-8" standalone="no"?>
<!-- Created with Inkscape (http://www.inkscape.org/) -->

<svg
   xmlns:dc="http://purl.org/dc/elements/1.1/"
   xmlns:cc="http://creativecommons.org/ns#"
   xmlns:rdf="http://www.w3.org/1999/02/22-rdf-syntax-ns#"
   xmlns:svg="http://www.w3.org/2000/svg"
   xmlns="http://www.w3.org/2000/svg"
   xmlns:sodipodi="http://sodipodi.sourceforge.net/DTD/sodipodi-0.dtd"
   xmlns:inkscape="http://www.inkscape.org/namespaces/inkscape"
   width="43.160614mm"
   height="24.886616mm"
   viewBox="0 0 43.160614 24.886616"
   version="1.1"
   id="svg8"
   inkscape:version="0.92.2 (unknown)"
   sodipodi:docname="lvl_icon.svg">
  <defs
     id="defs2" />
  <sodipodi:namedview
     id="base"
     pagecolor="#ffffff"
     bordercolor="#666666"
     borderopacity="1.0"
     inkscape:pageopacity="0.0"
     inkscape:pageshadow="2"
     inkscape:zoom="0.98994949"
     inkscape:cx="269.06817"
     inkscape:cy="-120.83285"
     inkscape:document-units="mm"
     inkscape:current-layer="layer1"
     showgrid="false"
     fit-margin-top="0"
     fit-margin-left="0"
     fit-margin-right="0"
     fit-margin-bottom="0"
     inkscape:window-width="1855"
     inkscape:window-height="1056"
     inkscape:window-x="65"
     inkscape:window-y="24"
     inkscape:window-maximized="1" />
  <metadata
     id="metadata5">
    <rdf:RDF>
      <cc:Work
         rdf:about="">
        <dc:format>image/svg+xml</dc:format>
        <dc:type
           rdf:resource="http://purl.org/dc/dcmitype/StillImage" />
        <dc:title></dc:title>
      </cc:Work>
    </rdf:RDF>
  </metadata>
  <g
     inkscape:label="Layer 1"
     inkscape:groupmode="layer"
     id="layer1"
     transform="translate(-35.706745,-40.17431)">
    <path
       style="fill:#000000;fill-opacity:1;fill-rule:nonzero;stroke:none;stroke-width:0.26458332"
       id="path815"
       d="m 39.920256,40.836863 c -0.101457,2.734241 -0.11507,5.470966 -0.172437,8.206512 -0.04299,1.800916 -0.07867,3.602157 -0.08781,5.403599 -0.0062,0.742124 0.0011,1.484267 -0.0019,2.226389 0.0052,0.682911 -0.0016,1.365792 -0.0019,2.048698 0.01079,0.826905 -0.04495,1.658249 0.0313,2.482569 0.02671,0.09881 0.03059,0.20687 0.08013,0.296439 0.258037,0.466482 1.658493,0.465146 2.095889,0.498155 0.237347,0.0096 0.474601,0.02175 0.712038,0.02871 0.526095,0.01543 1.155534,0.02088 1.680573,0.0236 0.287073,0.0016 1.148315,0.0016 0.861234,0.0016 -4.020322,0.0019 -3.659124,0.0016 -2.096658,-0.0034 1.242139,-0.01725 2.48567,0.02842 3.724655,-0.07564 0,0 3.881634,0.577448 3.881634,0.577448 v 0 c -1.26065,0.131482 -2.523599,0.09972 -3.790199,0.101553 -2.941613,0.0063 -5.888389,0.06632 -8.827439,-0.08048 -0.945258,-0.105714 -2.111507,-0.181779 -2.263053,-1.335347 -0.06268,-0.836668 -0.0087,-1.676776 -0.03342,-2.515137 -0.0011,-0.683017 -0.0092,-1.366004 -0.0049,-2.049039 -0.0024,-0.7453 0.0081,-1.490885 0.03655,-2.23565 0.07731,-1.802196 0.188722,-3.602656 0.25995,-5.40513 0.102349,-2.731172 0.109879,-5.464842 -0.02024,-8.19558 0,0 3.935968,0 3.935968,0 z"
       inkscape:connector-curvature="0" />
    <path
       style="fill:#000000;fill-opacity:1;fill-rule:nonzero;stroke:none;stroke-width:0.26458332"
       id="path817"
       d="m 47.926773,50.051766 c 0.956037,0.903867 1.759481,1.929347 2.451753,3.044534 0.744011,1.131419 1.349155,2.343065 1.992672,3.531891 0.536581,0.940731 1.078741,1.872596 1.732886,2.736876 0.588005,0.642356 1.367288,1.028515 1.971503,1.65027 0.488548,0.676259 0.840933,1.456994 1.141609,2.234168 0.06558,0.157279 0.155688,0.506976 0.374009,0.574394 0.09466,0.02923 0.390515,-0.0503 0.291677,-0.05704 -1.181764,-0.08059 -2.392625,0.08837 -3.549687,-0.165137 -0.238149,-0.05218 0.374174,-0.314762 0.538885,-0.494504 0.24389,-0.266147 0.455885,-0.559855 0.683826,-0.839782 1.899113,-2.499188 3.619397,-5.113655 5.191934,-7.828002 0.862449,-1.523902 1.744303,-3.044978 2.419551,-4.663689 0.237879,-0.626088 0.10985,-0.31605 0.384308,-0.930026 0,0 3.918712,0.170238 3.918712,0.170238 v 0 c -0.283435,0.588767 -0.152062,0.282763 -0.390835,0.919419 -0.729927,1.635221 -1.680922,3.15799 -2.575801,4.705461 -1.629359,2.680423 -3.338732,5.304282 -5.137396,7.874813 -0.209457,0.294865 -0.410281,0.596056 -0.628366,0.884597 -0.15557,0.205827 -0.238316,0.550119 -0.491916,0.597598 -1.406512,0.26333 -2.851979,0.266312 -4.282618,0.296294 -0.122832,0.0026 -0.222639,-0.113228 -0.309567,-0.200051 -0.201549,-0.201301 -0.269161,-0.444093 -0.37087,-0.698011 -0.287504,-0.728654 -0.620905,-1.469636 -1.137009,-2.065919 -0.64007,-0.584954 -1.42285,-1.008243 -1.950929,-1.715511 -0.643811,-0.88751 -1.19439,-1.832472 -1.717358,-2.795728 -0.623186,-1.188823 -1.242605,-2.381869 -1.984285,-3.502972 -0.697553,-1.078156 -1.478743,-2.105337 -2.502537,-2.898161 0,0 3.935849,-0.366019 3.935849,-0.36602 z"
       inkscape:connector-curvature="0" />
    <path
       style="fill:#000000;fill-opacity:1;fill-rule:nonzero;stroke:none;stroke-width:0.26458332"
       id="path821"
       d="m 73.87473,40.174444 c 0.0311,1.550183 -0.251188,3.072503 -0.46468,4.60103 -0.351795,2.188734 -0.617061,4.388413 -0.870307,6.5903 -0.09384,1.589659 -0.368808,3.154883 -0.605997,4.726829 -0.13885,0.893122 -0.164473,1.795658 -0.280786,2.691167 -0.06256,0.740806 -0.28756,1.456986 -0.229312,2.202897 0.126474,0.709734 0.168222,1.432726 0.293045,2.141823 0.245499,0.730596 0.866447,0.949846 1.555461,1.115144 1.251516,0.19462 2.52462,0.191138 3.788283,0.202177 1.396341,0.0021 4.155374,0.0021 -2.226691,-0.0011 0,0 3.875916,0.613241 3.875916,0.613241 v 0 c -1.832409,-1.1e-5 -3.665209,0.01045 -5.497666,-0.0078 -1.281351,-0.02175 -2.583773,-0.01111 -3.838001,-0.304401 -0.839226,-0.296786 -1.352912,-0.662141 -1.603975,-1.552085 -0.114848,-0.723927 -0.172757,-1.456852 -0.29146,-2.180765 -0.04438,-0.772686 0.14506,-1.517721 0.236188,-2.282317 0.126982,-0.89893 0.152572,-1.807832 0.314836,-2.702033 0.280403,-1.562743 0.570595,-3.12242 0.683239,-4.708972 0.279008,-2.199577 0.547856,-4.399984 0.862015,-6.594848 0.190164,-1.511576 0.477975,-3.019923 0.341437,-4.550421 0,0 3.958455,0 3.958455,0 z"
       inkscape:connector-curvature="0" />
  </g>
</svg>
