<?xml version="1.0" encoding="UTF-8" standalone="no"?>
<!-- Created with Inkscape (http://www.inkscape.org/) -->

<svg
   xmlns:dc="http://purl.org/dc/elements/1.1/"
   xmlns:cc="http://creativecommons.org/ns#"
   xmlns:rdf="http://www.w3.org/1999/02/22-rdf-syntax-ns#"
   xmlns:svg="http://www.w3.org/2000/svg"
   xmlns="http://www.w3.org/2000/svg"
   xmlns:sodipodi="http://sodipodi.sourceforge.net/DTD/sodipodi-0.dtd"
   xmlns:inkscape="http://www.inkscape.org/namespaces/inkscape"
   width="38.936794mm"
   height="36.223915mm"
   viewBox="0 0 38.936794 36.223915"
   version="1.1"
   id="svg8"
   inkscape:version="0.92.2 (unknown)"
   sodipodi:docname="menu_select.svg">
  <defs
     id="defs2" />
  <sodipodi:namedview
     id="base"
     pagecolor="#ffffff"
     bordercolor="#666666"
     borderopacity="1.0"
     inkscape:pageopacity="0.0"
     inkscape:pageshadow="2"
     inkscape:zoom="0.98994949"
     inkscape:cx="183.69478"
     inkscape:cy="-72.339959"
     inkscape:document-units="mm"
     inkscape:current-layer="layer1"
     showgrid="false"
     inkscape:window-width="1482"
     inkscape:window-height="975"
     inkscape:window-x="134"
     inkscape:window-y="243"
     inkscape:window-maximized="0" />
  <metadata
     id="metadata5">
    <rdf:RDF>
      <cc:Work
         rdf:about="">
        <dc:format>image/svg+xml</dc:format>
        <dc:type
           rdf:resource="http://purl.org/dc/dcmitype/StillImage" />
        <dc:title></dc:title>
      </cc:Work>
    </rdf:RDF>
  </metadata>
  <g
     inkscape:label="Layer 1"
     inkscape:groupmode="layer"
     id="layer1"
     transform="translate(-9.8566164,-9.6395729)">
    <path
       style="fill:#000000;fill-opacity:1;fill-rule:nonzero;stroke:none;stroke-width:0.26458332"
       id="path815"
       d="m 30.407649,11.321106 c -2.032129,0.700039 -3.978422,1.685692 -5.753094,2.899766 -0.620814,0.424707 -1.202429,0.904052 -1.803643,1.356078 -3.061858,2.59512 -5.671332,5.724692 -7.386085,9.371681 -0.25869,0.550189 -0.465053,1.123495 -0.697579,1.685242 -1.030949,2.761192 -1.181208,5.694709 -1.236947,8.608031 -0.0471,1.852047 0.255028,3.714306 1.514969,5.161651 0.978881,1.124481 1.704497,1.478078 2.946541,2.300904 2.249334,1.238805 4.726037,1.934419 7.245078,2.360493 0.504123,0.08527 1.009073,0.174064 1.518725,0.214871 0.479895,0.03842 0.962744,0.0149 1.444117,0.02236 -0.765432,-0.05411 -1.653406,0.256609 -2.296299,-0.162319 -0.398313,-0.259554 0.917748,-0.260305 1.352501,-0.452689 0.522573,-0.231246 1.018484,-0.520414 1.509008,-0.813573 0.576969,-0.344823 1.130316,-0.727781 1.690807,-1.098785 0.174807,-0.115708 4.093575,-2.754376 4.115948,-2.769439 2.867784,-2.131629 5.990733,-4.113895 8.26276,-6.926355 0.272839,-0.337735 0.5064,-0.705392 0.759598,-1.05809 0.875289,-1.299387 1.237107,-2.746065 1.314032,-4.285215 0.01426,-1.051211 0.05187,-2.066466 -0.263835,-3.077436 -0.65954,-1.397325 -1.641234,-2.601252 -2.490292,-3.883835 -0.884926,-1.215412 -1.971326,-2.224933 -3.118239,-3.184001 -1.098429,-0.8317 -2.271827,-1.559787 -3.48406,-2.2149 -0.941877,-0.5328 -1.751103,-1.258018 -2.684603,-1.802631 -0.202044,-0.117875 -1.059444,-0.56765 -1.285544,-0.686952 -1.113277,-0.501432 -2.08779,-1.215181 -3.071437,-1.922621 -0.347932,-0.114097 -0.5623,-0.474584 -0.899509,-0.60137 -0.02717,-0.01022 -0.357444,-0.07157 -0.386162,-0.07701 -0.480449,-0.03296 -0.9625,-0.03319 -1.443859,-0.03409 0,0 3.884656,-0.6112991 3.884656,-0.6112991 v 0 c 0.496644,0.00897 1.00511,-3.704e-4 1.48667,0.1370087 0.472141,0.1852327 0.829244,0.5502364 1.250675,0.8247084 0.933537,0.730085 1.923391,1.365936 2.998882,1.872618 0.393756,0.218765 0.878301,0.482506 1.258483,0.717491 0.915612,0.565925 1.736405,1.273661 2.694149,1.77398 1.229024,0.666608 2.416159,1.420832 3.510844,2.291647 1.148963,0.983586 2.211752,2.048537 3.081869,3.293334 0.887299,1.309413 1.902968,2.549458 2.571628,3.99174 0.05656,0.184662 0.12637,0.365778 0.169691,0.553988 0.199305,0.865886 0.04695,1.783608 0.08675,2.660959 -0.102005,1.694341 -0.519986,3.077509 -1.502241,4.49817 -0.77243,1.01871 -0.976249,1.360403 -1.936559,2.292496 -2.250155,2.184035 -4.90972,3.901188 -7.400311,5.784889 -7.123991,4.978837 2.481482,-1.73854 -3.971026,2.786648 -0.82532,0.578802 -2.142651,1.540933 -3.074082,2.013399 -0.429461,0.217845 -0.863669,0.479391 -1.342025,0.534811 -1.645738,0.190661 -3.31091,0.130685 -4.966366,0.196029 -0.477808,-0.02273 -0.957754,-0.01762 -1.433426,-0.06815 -0.493392,-0.05241 -0.981625,-0.147182 -1.468999,-0.240186 -2.510268,-0.479028 -4.970053,-1.230085 -7.198887,-2.505517 -1.23633,-0.839232 -2.088196,-1.294932 -3.073328,-2.434349 -1.304953,-1.509332 -1.5943119,-3.460118 -1.5460212,-5.381096 0.06822,-2.970895 0.2041042,-5.952871 1.3467842,-8.744516 0.253036,-0.570943 0.481058,-1.153641 0.759106,-1.71283 1.810104,-3.64034 4.434879,-6.793944 7.433036,-9.516083 0.586186,-0.46372 1.15483,-0.950523 1.758559,-1.391162 1.643622,-1.199616 3.438253,-2.222187 5.309268,-3.019605 0,0 3.93932,0.471121 3.93932,0.471121 z"
       inkscape:connector-curvature="0" />
    <path
       style="fill:#000000;fill-opacity:1;fill-rule:nonzero;stroke:none;stroke-width:0.26458332"
       id="path817"
       d="m 21.491993,28.051405 c -0.106942,1.091901 -0.311921,2.172422 -0.421323,3.265948 -0.160424,1.614374 0.989872,0.684062 -3.94172,0.159366 -0.07889,-0.0084 0.08233,-0.135651 0.121853,-0.204438 0.193348,-0.336465 0.21832,-0.390096 0.404712,-0.739426 0.390071,-0.644461 0.676243,-1.333177 0.852392,-2.064165 0.331028,-1.430113 0.02683,-0.310653 4.047807,-0.07112 0.02168,0.0013 0.02338,0.637095 0.02259,0.715068 0.05886,0.244819 -0.115413,0.643131 0.02638,0.860062 0.05676,0.05293 0.027,0.0301 0.08854,0.06948 0,0 -3.982962,0.254648 -3.982962,0.254648 v 0 c -0.0626,-0.129654 -0.03282,-0.05884 -0.08608,-0.213773 -0.05591,-0.320963 3.97e-4,-0.646303 -0.01213,-0.970936 -4.23e-4,-0.05292 -0.0013,-0.270102 -0.0048,-0.328467 -0.0028,-0.04709 -0.0056,-0.09443 -0.01425,-0.140803 -0.0038,-0.02064 -0.04393,-0.05792 -0.02295,-0.05866 4.029536,-0.142373 4.781948,-1.094047 3.885349,-0.0057 -0.243173,0.737643 -0.478426,1.478516 -0.900894,2.139617 -0.119182,0.240729 -0.253567,0.474369 -0.359492,0.721217 -0.03572,0.08323 0.0041,0.252775 -0.08638,0.25762 -3.8028,0.203702 -4.396976,1.207447 -3.932674,-0.433898 0.190701,-1.055095 0.365593,-2.140085 0.353413,-3.211698 0,0 3.962635,0 3.962635,0 z"
       inkscape:connector-curvature="0" />
    <path
       style="fill:#000000;fill-opacity:1;fill-rule:nonzero;stroke:none;stroke-width:0.26458332"
       id="path819"
       d="m 36.663357,28.362169 c -0.29483,0.523729 -0.463111,1.101238 -0.714814,1.644253 -0.206582,0.4006 -0.258329,0.83198 -0.291158,1.274162 -0.05586,1.788811 0.728027,0.867785 -3.979267,0.444304 -0.08504,-0.0076 0.01484,-0.170151 0.01947,-0.25541 0.0066,-0.122275 0.0096,-0.244724 0.01434,-0.367088 -0.01511,-0.556493 0.05895,-1.14331 -0.03893,-1.686198 4.571126,0.06443 3.966673,-0.990309 3.970864,1.506495 0.0016,0.0882 0.0031,0.176406 0.0046,0.26461 0,0 -3.945025,0 -3.945025,0 v 0 c 0.0016,-0.0882 0.0031,-0.1764 0.0046,-0.264599 0.004,-2.496093 -0.602488,-1.441911 3.969912,-1.499584 -0.103775,0.53467 -0.02635,1.127289 -0.04581,1.679985 0.0043,0.12225 0.0067,0.244588 0.01302,0.366752 0.0044,0.0842 0.103004,0.245044 0.019,0.252232 -4.634701,0.39664 -4.00657,1.329222 -3.944438,-0.462454 0.01664,-0.496496 0.05278,-0.978509 0.283078,-1.429385 0.260911,-0.52881 0.464241,-1.076246 0.695971,-1.619001 0,0 3.964519,0.150926 3.964519,0.150926 z"
       inkscape:connector-curvature="0" />
    <path
       style="fill:#000000;fill-opacity:1;fill-rule:nonzero;stroke:none;stroke-width:0.26458332"
       id="path825"
       d="m 28.979407,28.553976 c -0.01937,0.406212 -0.0026,0.812789 -5.29e-4,1.21911 0.02318,0.257487 -0.08805,0.493368 -0.187489,0.723731 -0.05052,0.218778 -0.08236,0.448172 -0.233894,0.624459 -0.08459,0.202517 -0.184462,0.398221 -0.269597,0.600924 -0.0569,0.229952 -0.189439,0.427699 -0.294704,0.637101 -0.0092,0.01643 -0.01836,0.03287 -0.02754,0.0493 0,0 -3.985602,-0.12776 -3.985602,-0.12776 v 0 c 0.0094,-0.03952 0.01878,-0.07904 0.02816,-0.118554 0.108445,-0.188929 0.234959,-0.373727 0.30601,-0.572884 0.06961,-0.236424 0.201557,-0.430316 0.261048,-0.664964 0.07941,-0.200504 0.270624,-0.298299 0.234304,-0.554797 0.05503,-0.205975 0.206849,-0.38069 0.19988,-0.596561 0.0021,-0.406321 0.01888,-0.812898 -4.77e-4,-1.21911 0,0 3.97037,0 3.97037,0 z"
       inkscape:connector-curvature="0" />
  </g>
</svg>
