<?xml version="1.0" encoding="UTF-8" standalone="no"?>
<!-- Created with Inkscape (http://www.inkscape.org/) -->

<svg
   xmlns:dc="http://purl.org/dc/elements/1.1/"
   xmlns:cc="http://creativecommons.org/ns#"
   xmlns:rdf="http://www.w3.org/1999/02/22-rdf-syntax-ns#"
   xmlns:svg="http://www.w3.org/2000/svg"
   xmlns="http://www.w3.org/2000/svg"
   xmlns:sodipodi="http://sodipodi.sourceforge.net/DTD/sodipodi-0.dtd"
   xmlns:inkscape="http://www.inkscape.org/namespaces/inkscape"
   width="52.560616mm"
   height="30.050129mm"
   viewBox="0 0 52.560616 30.050129"
   version="1.1"
   id="svg8"
   sodipodi:docname="menu_schem.svg"
   inkscape:version="0.92.2 (unknown)">
  <defs
     id="defs2" />
  <sodipodi:namedview
     id="base"
     pagecolor="#ffffff"
     bordercolor="#666666"
     borderopacity="1.0"
     inkscape:pageopacity="0.0"
     inkscape:pageshadow="2"
     inkscape:zoom="0.98994949"
     inkscape:cx="36.056222"
     inkscape:cy="-47.192709"
     inkscape:document-units="mm"
     inkscape:current-layer="layer1"
     showgrid="false"
     inkscape:window-width="1174"
     inkscape:window-height="905"
     inkscape:window-x="190"
     inkscape:window-y="385"
     inkscape:window-maximized="0" />
  <metadata
     id="metadata5">
    <rdf:RDF>
      <cc:Work
         rdf:about="">
        <dc:format>image/svg+xml</dc:format>
        <dc:type
           rdf:resource="http://purl.org/dc/dcmitype/StillImage" />
        <dc:title></dc:title>
      </cc:Work>
    </rdf:RDF>
  </metadata>
  <g
     inkscape:label="Layer 1"
     inkscape:groupmode="layer"
     id="layer1"
     transform="translate(-12.19174,-14.496328)">
    <path
       style="fill:#000000;fill-opacity:1;fill-rule:nonzero;stroke:none;stroke-width:0.26458332"
       id="path937"
       d="m 24.121078,19.291424 c -0.05389,0.190987 -0.09843,0.384866 -0.161681,0.572962 -0.498054,1.481172 -1.157643,2.912716 -1.717367,4.370559 -2.908778,7.576136 1.302181,-3.241093 -1.91259,4.99066 -1.619432,4.076679 -3.095833,8.219016 -4.238069,12.456361 -0.04952,0.289475 -0.337217,1.157427 0.01471,1.497869 0.305588,0.295619 1.893423,0.498428 2.033669,0.515732 1.420948,0.17532 2.661888,0.19178 4.102217,0.250025 4.684282,0.09901 8.380595,0.04215 13.368933,0.01201 3.851368,-0.02363 7.702722,-0.0496 11.554084,-0.07423 2.701941,-0.02861 5.404115,-0.0083 8.106079,-0.02405 0.500864,-0.0032 1.001713,-0.0056 1.502585,-0.0047 -1.234559,-0.003 -2.469692,0.02891 -3.703675,-0.0089 -0.01503,-5.3e-4 0.130834,0.0098 0.297477,-0.283136 0.171722,-0.301893 0.257061,-0.63862 0.345191,-0.97096 0.143124,-0.778068 0.211656,-1.567355 0.321374,-2.351313 0.116443,-0.876395 0.140774,-1.762503 0.153495,-2.645568 0.01254,-1.051589 -0.0036,-1.335514 -1.006787,-1.726438 C 52.130361,35.537324 51.056568,35.297 49.992877,35.012533 48.04828,34.447769 46.049551,34.144507 44.04089,33.925709 c -1.378728,-0.03128 -4.579527,-0.541062 1.749314,-0.05386 0.137805,0.01061 -0.271415,0.07863 -0.38173,0.161902 -0.285703,0.215651 -0.351939,0.492744 -0.485588,0.804661 -0.185549,0.771332 -0.477911,1.711277 0.11248,2.367309 0.413322,0.269415 0.922822,0.261636 1.399588,0.263054 1.450631,-0.02172 0.207983,-0.0019 -3.434271,-0.0063 -0.0797,-9.6e-5 0.159393,-5.3e-4 0.239086,-0.0011 0.251817,-0.0021 0.503634,-0.0067 0.755438,-0.01 0.348443,-0.0038 0.173786,-0.0021 0.52397,-0.0052 0,0 3.880565,0.611775 3.880565,0.611775 v 0 c -0.348769,0.0019 -0.174874,7.93e-4 -0.521687,0.0036 -1.778723,0.01945 -3.559884,0.09241 -5.337352,0.0042 -0.544375,-0.0528 -1.068372,-0.161229 -1.416905,-0.624967 -0.484526,-0.889579 -0.253548,-1.801119 -0.04173,-2.744888 0.11902,-0.334293 0.243567,-0.780214 0.481703,-1.059844 1.144886,-1.344382 4.294333,-0.330718 6.170564,-0.250534 2.019774,0.260734 4.027004,0.603224 5.996244,1.130893 1.111142,0.273037 2.24844,0.480145 3.309742,0.919636 0.959689,0.56257 1.063652,1.095346 1.013907,2.165083 -0.01624,0.899064 -0.0319,1.798576 -0.127905,2.693701 -0.112884,0.798156 -0.21132,1.596499 -0.317915,2.395043 -0.651232,2.604942 -0.776997,1.670143 -4.728186,1.781456 -0.479306,7.93e-4 -0.958583,-0.0019 -1.437878,-0.0056 -1.55022,-0.01037 -0.107879,2.64e-4 2.81746,-0.0052 0.219927,-5.3e-4 -0.439846,-0.0016 -0.65977,-0.0024 -0.957818,-0.0039 -1.915626,-0.01069 -2.873457,-0.01125 -3.994531,-0.01061 -7.989062,-0.01188 -11.983585,0.0052 -6.588762,0.02736 -13.178579,0.09906 -19.766886,-0.0024 -1.26901,-0.04861 -3.086068,-0.08034 -4.372793,-0.265494 -0.687546,-0.09893 -1.830284,-0.224687 -2.30018,-0.931312 -0.29632,-0.445603 0.08069,-1.315172 0.184744,-1.681001 1.506044,-4.174358 3.149968,-8.29808 4.692228,-12.45902 1.152418,-3.225872 0.711724,-1.890805 1.686174,-4.992556 0.444195,-1.41391 0.984564,-2.865067 1.26099,-4.328403 0.03459,-0.183111 0.03631,-0.370927 0.05446,-0.55639 0,0 3.939355,0.0559 3.939355,0.0559 z"
       inkscape:connector-curvature="0" />
    <path
       style="fill:#000000;fill-opacity:1;fill-rule:nonzero;stroke:none;stroke-width:0.26458332"
       id="path939"
       d="m 24.941929,19.534813 c 1.962095,0.02412 3.924409,0.02059 5.886614,0.02456 2.232242,-0.0016 4.464476,-0.0066 6.696715,-0.0077 1.671413,-0.0032 3.342828,-0.0035 5.014241,-0.0063 1.007483,-0.0016 2.01495,-0.0052 3.02242,-0.0099 0.507653,-0.0033 1.015285,-0.0017 1.522934,-3.44e-4 0.397121,-6.62e-4 0.794242,1.86e-4 1.191365,1.37e-4 0,0 -3.867282,0.612518 -3.867282,0.612518 v 0 c -0.3977,-4.9e-5 -0.795401,7.93e-4 -1.193101,1.37e-4 -0.506214,0.0013 -1.012413,0.003 -1.518629,-3.44e-4 -0.965827,-0.0047 -1.931646,-0.0083 -2.897484,-0.0099 -1.644915,-0.0028 -3.289829,-0.0031 -4.934744,-0.0063 -2.199645,-0.0011 -4.399285,-0.0062 -6.598933,-0.0077 -2.065568,0.0041 -4.131221,0.0014 -6.196694,0.02456 0,0 3.872578,-0.613356 3.872578,-0.613356 z"
       inkscape:connector-curvature="0" />
    <path
       style="fill:#000000;fill-opacity:1;fill-rule:nonzero;stroke:none;stroke-width:0.26458332"
       id="path947"
       d="m 41.852177,32.777848 c 0.03714,-1.49365 0.224076,-2.955986 0.581933,-4.40653 0.447707,-1.492242 0.999651,-2.951427 1.354653,-4.469899 0.267973,-1.132033 0.739969,-2.193299 1.13855,-3.280625 0.183653,-0.66137 0.386109,-1.318876 0.558723,-1.983597 0.08541,-0.481654 0.217551,-0.948405 0.403897,-1.400698 0.253754,-0.49762 0.337863,-1.055755 0.614323,-1.539489 0.281308,-0.418749 0.581451,-0.727432 1.067287,-0.875174 0.821899,-0.122326 1.658292,-0.101002 2.487231,-0.10218 2.246683,-0.01 4.4933,0.0041 6.739951,0.0089 0.914514,3.96e-4 1.829025,-7.41e-4 2.743536,-0.0019 1.361742,-0.0021 3.550068,0.0021 -2.725327,-7.41e-4 -0.103794,-4.7e-5 0.207597,-0.0024 0.311385,-0.0012 4.204227,0.05055 2.948655,-0.649122 4.340276,0.17838 0.05013,0.06245 0.10873,0.118949 0.150375,0.187345 0.111149,0.182544 0.163719,0.384709 0.305533,0.552254 0.04134,0.04885 0.09334,0.08758 0.140007,0.131367 0.05491,0.06696 0.109824,0.133917 0.164735,0.200875 0.393264,0.479318 0.920083,0.778068 1.411724,1.13884 0.484418,0.391065 0.662403,0.990495 0.900552,1.540031 0.195691,0.631202 0.199438,1.297554 0.200091,1.95215 0.01476,0.926554 -5.29e-4,1.853089 -5.29e-4,2.779616 -0.0024,0.87431 0.01169,1.748514 0.0096,2.622831 0.02421,0.741619 -0.217162,1.481558 -0.527672,2.147768 -0.339355,0.695492 -0.849918,1.285592 -1.310674,1.901277 -0.520859,0.64383 -1.060514,1.269278 -1.439783,2.008844 -0.420246,1.055272 -0.981644,2.043671 -1.457302,3.073897 -0.501234,0.96936 -0.815739,2.003309 -1.135642,3.040955 -0.249801,0.743635 -0.343593,1.522476 -0.496609,2.287658 0,0 -3.898183,-0.09088 -3.898183,-0.09088 v 0 c 0.211878,-0.763121 0.308927,-1.556393 0.560742,-2.310614 0.320701,-1.057068 0.609187,-2.115542 1.141325,-3.093101 0.476007,-1.027041 1.043474,-2.012177 1.423752,-3.081914 0.35229,-0.771041 0.859589,-1.441762 1.4087,-2.083607 0.444915,-0.605107 0.969105,-1.161171 1.319392,-1.829792 0.31088,-0.598524 0.505963,-1.296985 0.527828,-1.970702 -0.0011,-0.874452 0.01482,-1.748732 0.0154,-2.623169 0.0028,-0.922837 -0.004,-1.845944 -0.0205,-2.768627 -0.03247,-0.607355 -0.03974,-1.231444 -0.253323,-1.808785 -0.196831,-0.503919 -0.38114,-1.007676 -0.852943,-1.32226 -0.526325,-0.361077 -1.031308,-0.736346 -1.444654,-1.229752 -0.154188,-0.167974 -0.195937,-0.202139 -0.324421,-0.384067 -0.130966,-0.185444 -0.1974,-0.426583 -0.434433,-0.497241 -1.372719,-0.216584 -0.226988,-0.02607 3.439782,-0.03772 0.108754,-3.44e-4 -0.217506,-0.0011 -0.326258,-0.0012 -1.65396,-5.03e-4 -3.30794,0.0013 -4.961903,-7.94e-4 -0.901271,-0.0013 -1.802543,-0.003 -2.703814,-0.005 -1.589498,-0.0013 -5.991003,-0.0098 0.881129,-0.0047 -0.807749,-0.0011 -1.616689,-0.0099 -2.423271,0.04038 -0.53934,0.02426 -0.691198,0.142911 -1.027751,0.574031 -0.363566,0.384631 -0.349154,1.006788 -0.627761,1.454354 -0.191415,0.435454 -0.283228,0.892159 -0.374821,1.356664 -0.220761,0.668761 -0.465995,1.328651 -0.650659,2.009198 -0.4139,1.069216 -0.898236,2.113427 -1.167251,3.233596 -0.388768,1.520348 -1.003234,2.968292 -1.46081,4.46844 -0.35383,1.418613 -0.531373,2.856936 -0.336089,4.316208 0,0 -3.960048,0 -3.960048,0 z"
       inkscape:connector-curvature="0" />
    <path
       style="fill:#000000;fill-opacity:1;fill-rule:nonzero;stroke:none;stroke-width:0.26458332"
       id="path949"
       d="m 29.776054,26.95035 c -0.05645,1.286232 -0.535191,2.496994 -0.879631,3.724693 -0.05945,0.184785 -0.11575,0.370615 -0.178355,0.554355 -0.09112,0.267438 -0.14015,0.406714 -0.259787,0.64077 -0.03083,0.06032 -0.03243,0.179941 -0.10011,0.176863 -4.11998,-0.187346 -4.343176,0.89811 -3.885832,-0.641125 0.509893,-0.917228 1.540547,-1.202301 2.47401,-1.50395 1.246291,-0.377314 2.479619,-0.798208 3.733678,-1.149069 0.715815,-0.162631 1.436259,-0.30426 2.157825,-0.438716 0,0 3.820211,0.537832 3.820211,0.537832 v 0 c -0.730293,0.118123 -1.453947,0.267067 -2.181167,0.402137 -1.27005,0.315952 -2.50594,0.751832 -3.759772,1.12553 -0.807092,0.257291 -1.755301,0.455276 -2.299533,1.1622 -0.674574,1.262632 0.06029,-0.04207 -3.996849,-0.04979 -0.05955,-1.14e-4 0.05077,0.145188 0.110144,0.140645 0.116815,-0.0089 0.299836,-0.406723 0.357416,-0.535406 0.07805,-0.174418 0.1413,-0.355087 0.211949,-0.53263 0.370932,-1.167783 0.860174,-2.36851 0.715756,-3.61434 0,0 3.960047,0 3.960047,0 z"
       inkscape:connector-curvature="0" />
    <path
       style="fill:#000000;fill-opacity:1;fill-rule:nonzero;stroke:none;stroke-width:0.26458332"
       id="path951"
       d="m 34.171739,25.099448 c 0.595349,0.611213 1.119716,1.274121 1.734142,1.871301 0.644652,0.505275 1.473386,0.538594 2.258764,0.583187 0.438552,0.01254 0.452432,0.01545 0.888908,0.01794 0.129833,7.94e-4 0.519342,-2.64e-4 0.389506,-5.29e-4 -6.165265,-0.0048 -4.207478,0.0057 -2.879474,-0.0065 0.101629,-7.94e-4 0.203261,-0.0013 0.304893,-0.0021 0,0 3.868507,0.6095 3.868507,0.6095 v 0 c -0.100237,7.93e-4 -0.200475,0.0019 -0.300715,0.0027 -2.034894,0.01537 -4.072302,0.06533 -6.104797,-0.04536 -0.842425,-0.08697 -1.676831,-0.22316 -2.296036,-0.8572 -0.583591,-0.619125 -1.104132,-1.31797 -1.806731,-1.806312 0,0 3.943033,-0.366688 3.943033,-0.366688 z"
       inkscape:connector-curvature="0" />
    <path
       style="fill:#000000;fill-opacity:1;fill-rule:nonzero;stroke:none;stroke-width:0.26458332"
       id="path953"
       d="m 31.034865,37.440338 c 0.116766,0.0013 0.233527,0.0026 0.350293,0.0036 0.355168,0.0028 0.678614,0.0041 1.035386,0.0046 0.188036,2.62e-4 0.752125,0.0029 0.56411,-5e-5 -3.396438,-0.0525 -4.33296,0.22366 -2.801654,-0.158798 0.772091,-0.32711 1.21522,-1.008544 1.689142,-1.660141 0.427196,-0.587354 0.374443,-0.511826 0.804561,-1.077074 0.780841,-1.139164 1.760728,-1.737916 3.031984,-2.201336 1.019075,-0.318529 2.07485,-0.459169 3.137178,-0.512355 0.169643,-0.0038 0.339286,-0.0077 0.508932,-0.01148 0,0 3.808695,0.596638 3.808695,0.596638 v 0 c -0.165031,0.0019 -0.330065,0.0037 -0.495099,0.0055 -1.072218,0.02736 -2.143246,0.117284 -3.18407,0.394425 -1.252288,0.387524 -2.223452,0.888137 -3.006614,1.98044 -0.323762,0.406525 -0.510325,0.629619 -0.813546,1.056651 -0.493199,0.694581 -0.913595,1.44625 -1.656535,1.914194 -1.829636,0.703604 -0.34155,0.194789 -4.811977,0.273487 -0.684019,0.01204 -1.368668,-0.0081 -2.052719,0.0081 0,0 3.891933,-0.616424 3.891933,-0.616424 z"
       inkscape:connector-curvature="0" />
    <path
       style="fill:#000000;fill-opacity:1;fill-rule:nonzero;stroke:none;stroke-width:0.26458332"
       id="path955"
       d="m 29.679294,32.658243 c 1.116515,1.218821 2.261089,2.412725 3.39268,3.618465 0.687102,0.917464 1.649632,1.582687 2.327365,2.501845 0.372504,0.559202 0.742979,1.119317 1.104186,1.686594 0.127085,0.196577 0.325268,0.144092 0.507717,0.203155 0.0963,0.03117 0.177763,0.09825 0.272354,0.134279 0.04395,0.01617 0.0879,0.03234 0.131852,0.04851 0,0 -3.937875,0.472434 -3.937875,0.472434 v 0 c -0.04287,-0.01818 -0.08574,-0.03636 -0.128609,-0.05455 -0.320974,-0.142007 -0.618712,-0.242446 -0.782042,-0.59272 -0.311571,-0.566856 -0.670158,-1.10718 -1.035206,-1.640578 -0.705443,-0.846987 -1.51733,-1.601422 -2.186165,-2.480979 -1.126855,-1.245545 -2.279007,-2.491764 -3.583683,-3.552391 0,0 3.917426,-0.344072 3.917426,-0.344072 z"
       inkscape:connector-curvature="0" />
    <path
       style="fill:#000000;fill-opacity:1;fill-rule:nonzero;stroke:none;stroke-width:0.26458332"
       id="path961"
       d="m 46.242099,38.77592 c 0.828212,0.008 1.656474,0.0083 2.484713,0.0052 0.477723,-0.0016 0.245173,-7.93e-4 0.697648,-0.0021 0,0 -3.861456,0.611595 -3.861456,0.611595 v 0 c -0.436645,-0.0011 -0.212696,-5.3e-4 -0.671852,-0.0021 -0.850225,-0.0033 -1.700463,-0.0024 -2.550668,0.0052 0,0 3.901615,-0.617956 3.901615,-0.617956 z"
       inkscape:connector-curvature="0" />
    <path
       style="fill:#000000;fill-opacity:1;fill-rule:nonzero;stroke:none;stroke-width:0.26458332"
       id="path963"
       d="m 45.118758,40.110735 c 1.445532,-0.02611 2.881169,0.06281 4.320217,0.189592 1.347832,0.09401 2.679343,0.329663 4.011906,0.54238 -1.202447,-0.02029 -2.406634,0.0069 -3.60734,-0.06091 -0.08946,-0.0051 0.16859,-0.06996 0.235538,-0.129511 0.08053,-0.07163 0.142446,-0.163303 0.197688,-0.255841 0.199512,-0.334206 0.264692,-0.71994 0.335669,-1.095164 0.05973,-0.493257 0.0379,-0.254539 0.06829,-0.715883 0,0 3.90433,0.03503 3.90433,0.03503 v 0 c -0.05447,0.4816 -0.02434,0.231145 -0.09128,0.751247 -0.513914,2.887144 -1.110692,1.953139 -4.909571,2.0154 -1.255599,-0.238125 -2.516754,-0.454218 -3.793673,-0.540509 -1.52989,-0.12482 -3.058118,-0.165407 -4.592743,-0.114811 0,0 3.920969,-0.621019 3.920969,-0.621019 z"
       inkscape:connector-curvature="0" />
    <path
       style="fill:#000000;fill-opacity:1;fill-rule:nonzero;stroke:none;stroke-width:0.26458332"
       id="path965"
       d="m 45.501324,35.573213 c 0.607867,-0.342691 1.155218,-0.765728 1.702657,-1.194893 0,0 3.876413,0.361995 3.876413,0.361995 v 0 c -0.553262,0.390491 -1.054116,0.855798 -1.648605,1.186037 0,0 -3.930465,-0.353139 -3.930465,-0.353139 z"
       inkscape:connector-curvature="0" />
  </g>
</svg>
