<?xml version="1.0" encoding="UTF-8" standalone="no"?>
<!-- Created with Inkscape (http://www.inkscape.org/) -->

<svg
   xmlns:dc="http://purl.org/dc/elements/1.1/"
   xmlns:cc="http://creativecommons.org/ns#"
   xmlns:rdf="http://www.w3.org/1999/02/22-rdf-syntax-ns#"
   xmlns:svg="http://www.w3.org/2000/svg"
   xmlns="http://www.w3.org/2000/svg"
   xmlns:sodipodi="http://sodipodi.sourceforge.net/DTD/sodipodi-0.dtd"
   xmlns:inkscape="http://www.inkscape.org/namespaces/inkscape"
   width="48.025707mm"
   height="45.43544mm"
   viewBox="0 0 48.025707 45.43544"
   version="1.1"
   id="svg8"
   sodipodi:docname="menu_options.svg"
   inkscape:version="0.92.2 (unknown)">
  <defs
     id="defs2" />
  <sodipodi:namedview
     id="base"
     pagecolor="#ffffff"
     bordercolor="#666666"
     borderopacity="1.0"
     inkscape:pageopacity="0.0"
     inkscape:pageshadow="2"
     inkscape:zoom="0.98994949"
     inkscape:cx="-39.083065"
     inkscape:cy="139.24648"
     inkscape:document-units="mm"
     inkscape:current-layer="layer1"
     showgrid="false"
     inkscape:window-width="1174"
     inkscape:window-height="905"
     inkscape:window-x="190"
     inkscape:window-y="385"
     inkscape:window-maximized="0" />
  <metadata
     id="metadata5">
    <rdf:RDF>
      <cc:Work
         rdf:about="">
        <dc:format>image/svg+xml</dc:format>
        <dc:type
           rdf:resource="http://purl.org/dc/dcmitype/StillImage" />
        <dc:title></dc:title>
      </cc:Work>
    </rdf:RDF>
  </metadata>
  <g
     inkscape:label="Layer 1"
     inkscape:groupmode="layer"
     id="layer1"
     transform="translate(-16.470877,-22.143469)">
    <path
       style="fill:#000000;fill-opacity:1;fill-rule:nonzero;stroke:none;stroke-width:0.26458332"
       id="path895"
       d="m 35.288706,35.331061 c -0.846645,1.524013 -1.404673,3.200148 -1.995662,4.836641 -0.763055,1.890409 -1.155284,3.876853 -1.369472,5.894523 -0.134623,1.746136 -0.188095,3.502985 -0.07849,5.251746 0.05275,0.183864 0.07717,0.378352 0.158268,0.551595 0.48963,1.045951 2.212761,1.096738 3.170484,1.213126 2.734175,0.207486 5.479936,0.185139 8.220167,0.181903 -0.723797,-0.0013 -1.451142,0.06765 -2.17139,-0.0039 -0.413928,-0.04114 0.832175,-0.03537 1.244777,-0.08816 1.298638,-0.16615 2.469115,-0.617272 3.618412,-1.219337 1.521513,-0.927166 1.74366,-2.358303 1.946379,-4.000331 0.154567,-1.82907 0.127066,-3.667694 0.101954,-5.501327 -0.0011,-0.73179 -0.02961,-1.463051 -0.04998,-2.194449 -0.01453,-0.521015 0.0072,-0.94845 -0.134567,-1.451129 -0.05665,-0.109167 -0.09714,-0.228385 -0.169971,-0.327498 -0.212323,-0.28897 -0.371658,-0.320982 -0.676288,-0.517655 -0.710666,-0.458817 -1.379966,-0.81271 -2.144252,-1.18319 -2.050537,-0.904785 -4.200128,-1.52863 -6.403872,-1.91506 -1.54723,-0.239082 -3.113087,-0.2902 -4.675817,-0.301926 -1.198642,0.0021 0.123894,0.03082 -1.012722,-0.08574 -0.136821,-0.01402 -0.550108,-0.007 -0.412578,-0.0056 6.961973,0.07298 4.10251,-0.597739 3.160178,0.270906 -0.137044,0.201743 -0.07997,0.09767 -0.173847,0.310764 0,0 -3.943517,-0.141999 -3.943517,-0.141999 v 0 c 0.102272,-0.30761 0.03713,-0.158271 0.196988,-0.447334 0.05436,-0.07521 0.325085,-0.479517 0.427019,-0.487241 1.964973,-0.148875 3.666275,-0.114019 5.539793,-0.0069 1.524905,0.03474 3.051733,0.114501 4.556077,0.384318 2.207014,0.439396 4.356968,1.112853 6.422631,2.010254 0.845182,0.399963 2.064718,0.900983 2.740157,1.573183 0.285446,0.284081 0.301662,0.426699 0.443738,0.783437 0.227322,1.224235 -0.02993,2.492724 0.05445,3.730757 -0.0051,1.849147 0.01974,3.701111 -0.113221,5.546849 -0.191783,1.731674 -0.372528,3.325776 -1.944076,4.363231 -0.630841,0.337373 -0.936413,0.526224 -1.623414,0.78192 -2.663881,0.991466 -5.541966,0.710531 -8.328205,0.681414 -2.7823,-0.0042 -5.571122,0.02643 -8.345792,-0.211056 -1.2006,-0.170966 -2.872113,-0.285985 -3.342142,-1.651862 -0.06917,-0.200989 -0.0835,-0.416828 -0.125254,-0.625243 -0.04635,-1.768715 0.04622,-3.542633 0.144859,-5.308129 0.220514,-2.049391 0.666038,-4.059951 1.432259,-5.980146 0.579731,-1.651236 1.18914,-3.293272 1.704101,-4.966026 0,0 3.951851,0.254654 3.951851,0.254654 z"
       inkscape:connector-curvature="0" />
    <path
       style="fill:#000000;fill-opacity:1;fill-rule:nonzero;stroke:none;stroke-width:0.26458332"
       id="path903"
       d="m 38.591048,58.520123 c -0.0853,1.146765 -0.07923,2.298986 -0.06362,3.448224 0.04817,0.673156 -0.177924,1.621439 0.440936,2.089722 0.596863,0.160729 1.226114,0.135649 1.839203,0.136049 -6.965603,0.0145 -2.363107,-0.006 -0.743394,-0.01233 0.815144,-0.0054 1.630302,-0.0079 2.445448,-0.01246 0.648677,0.05417 1.154745,-0.145579 1.591784,-0.621067 0.504716,-0.782349 0.599718,-1.726456 0.680588,-2.63167 0.06388,-0.891945 0.05805,-1.786207 0.04659,-2.67966 -0.02918,-0.572797 -0.116419,-0.961478 0.376251,-1.35186 0.371795,-0.214974 0.803519,-0.206809 1.219626,-0.212838 1.377993,5.29e-4 2.755982,2.64e-4 4.133972,0.0016 0.180073,1.77e-4 0.360124,0.0037 0.540186,0.0056 0.110784,7.94e-4 0.443135,0.0032 0.332349,0.0028 -3.596026,-0.01431 -4.607772,0.148228 -3.107254,-0.06647 0.666166,-0.172233 1.30592,-0.419499 1.973969,-0.590597 0.709216,-0.211913 1.446784,-0.28648 2.17201,-0.420899 0.526994,-0.11651 1.031541,-0.310693 1.558187,-0.428948 0.425193,-0.08049 0.858787,-0.09195 1.290193,-0.0978 1.73777,-0.0062 3.475614,-0.0066 5.213384,0.0027 1.358871,-0.01595 3.543416,0.149243 -2.660981,-0.01283 -0.109508,-0.0029 0.218551,-0.02909 0.3223,-0.06425 0.306731,-0.103968 0.310502,-0.163653 0.53358,-0.39338 0.541903,-0.726451 0.74396,-1.611847 1.058206,-2.443935 0.229902,-0.577567 0.433202,-1.167667 0.608777,-1.764178 0.165479,-0.606489 0.180933,-1.239703 0.19616,-1.864278 0.0052,-0.645234 0.06,-1.296123 -0.08939,-1.928689 -0.03703,-0.03724 -0.06231,-0.09226 -0.111093,-0.111728 -0.07356,-0.02936 -0.157726,-0.01532 -0.236088,-0.02683 -0.495032,-0.07265 -0.969017,-0.12156 -1.470488,-0.137996 -0.690319,-0.11616 -1.40009,-0.09123 -2.091687,-0.184507 -0.442809,-0.05973 -0.669332,-0.146476 -1.093076,-0.274696 -0.549748,-0.294447 -1.168082,-0.424309 -1.72344,-0.703376 -0.215413,-0.108244 -0.421103,-0.234926 -0.634304,-0.347464 -0.453398,-0.177491 -0.862272,-0.431144 -1.049689,-0.893675 -0.146572,-0.910032 0.118821,-1.813536 0.325445,-2.692866 0.176472,-0.744053 0.312563,-1.497505 0.379259,-2.25937 -0.0042,-0.593531 0.105405,-0.882607 0.678577,-1.11593 0.6849,-0.16909 1.401717,-0.151514 2.103115,-0.158083 1.395314,-1.11e-4 2.790631,-5.29e-4 4.185949,-2.65e-4 0.154715,3.4e-5 0.489487,0.0026 0.641744,0.0034 0.110524,5.29e-4 0.4421,0.0019 0.331573,0.0013 -3.66926,-0.01378 -4.697783,0.199943 -3.154204,-0.08412 0.907444,-0.352745 1.507575,-1.110152 1.968749,-1.934866 0.356825,-0.746101 0.45075,-1.562579 0.503039,-2.376628 -0.03798,-0.278358 0.111662,-1.220123 -0.03889,-1.436428 -0.029,-0.04166 -0.09186,-0.04324 -0.137787,-0.06485 -0.708911,-0.212688 -1.505841,-0.173599 -2.244566,-0.185021 0.366332,-0.0051 -1.64805,-0.005 -1.236035,-0.0051 1.029168,-2.25e-4 4.116263,0.02944 3.08751,1.77e-4 -2.051616,-0.05836 -3.843737,0.07333 -5.798174,-0.167889 -1.113952,-0.152421 -2.232875,-0.265451 -3.35574,-0.322315 -0.603866,-0.02827 -1.208408,-0.02652 -1.81274,-0.027 6.649765,-2.64e-4 3.693464,-0.0038 2.18753,0.0035 -0.474424,0.0045 -0.948864,2.65e-4 -1.423294,-5.29e-4 -1.943145,0.05984 -4.055803,0.856541 -4.887463,-1.006454 -0.140157,-0.313965 -0.235971,-0.645945 -0.359822,-0.966695 -0.313772,-0.744016 -0.59834,-1.460642 -0.710862,-2.263857 -0.09715,-0.976521 -0.07501,-1.961551 -0.09006,-2.942127 5.29e-4,-0.865888 -0.147558,-1.003829 -0.963136,-1.086694 -0.386144,-0.03645 -0.77416,-0.04344 -1.16173,-0.04571 -0.136644,-7.94e-4 -0.546592,3.17e-4 -0.409943,4.76e-4 3.480647,0.0037 4.625734,-0.0085 3.154865,0.0058 -0.566983,0.0086 -1.133985,0.01421 -1.701022,0.0175 -0.584054,0.01877 -1.190948,-0.09706 -1.715307,0.204624 -0.54919,0.435795 -0.825481,1.050896 -1.049369,1.695526 -0.185793,0.597747 -0.245957,1.21965 -0.274585,1.841632 0.04212,0.561535 -0.05876,1.069943 -0.249991,1.59163 -0.274172,0.971023 -0.517806,1.335656 -1.492205,1.661596 -1.787938,0.344001 -3.778165,0.153676 -5.508204,0.123571 -0.602028,-0.01048 -1.191033,-0.184531 -1.757339,-0.3679 -0.9379,-0.42255 -1.411875,-1.23494 -1.774264,-2.151658 -0.309081,-0.724024 -0.399309,-1.298785 -1.035698,-1.812415 -0.176919,-0.09808 -0.349835,-0.216871 -0.559536,-0.238282 -0.09604,-0.0098 -0.384148,0.03085 -0.287651,0.03359 1.201006,0.03409 2.405344,-0.02248 3.603965,0.06054 0.09821,0.0068 -0.170624,0.102369 -0.239752,0.172463 -0.08994,0.0912 -0.154834,0.204102 -0.232254,0.306153 -0.311891,0.701026 -0.618326,1.407693 -0.919483,2.115549 -0.232711,0.613571 -0.236479,1.277564 -0.25799,1.924637 -0.01042,0.6886 0.0039,1.377246 0.01188,2.065798 -0.0048,0.677206 -0.0061,1.354357 -0.0013,2.031571 0.0058,0.532686 0.01402,1.065253 0.01506,1.598007 0.02146,0.406016 0.05496,0.769072 -0.224816,1.090718 -0.453253,0.397608 -1.035204,0.597517 -1.576935,0.841431 -0.671366,0.282482 -1.326612,0.6086 -2.026164,0.816298 -0.521783,0.145012 -1.064254,0.152386 -1.600865,0.181379 -0.740859,0.200272 -1.170206,0.990177 -1.581704,1.585786 -0.482472,0.723249 -0.650194,1.552427 -0.738418,2.400975 -0.04064,0.801571 -0.149523,1.596929 -0.216152,2.396458 -0.04445,0.503224 -0.04217,1.008515 -0.06137,1.512771 0.033,0.266927 -0.126354,1.063493 0.119643,1.244864 0.04082,0.03009 0.09771,0.02719 0.146569,0.04078 0.669477,0.100126 1.353659,0.09437 2.029829,0.09671 1.755524,-5.29e-4 -1.021645,2.64e-4 -3.025827,-0.0019 -0.131843,-1.43e-4 0.263684,-7.94e-4 0.395525,-0.0016 0.344775,-0.0019 0.689541,-0.0046 1.034302,-0.0081 1.510839,0.05687 3.8187,-1.104186 4.57233,0.349466 0.170225,0.32834 0.209824,0.740892 0.265101,1.099701 0.108347,0.647333 0.08149,1.303722 0.07696,1.956732 -0.01525,0.76083 -0.02206,1.521957 -0.0035,2.282774 0.002,0.420299 0.06878,0.847003 -0.04457,1.254737 -0.166573,0.328228 -0.425774,0.59832 -0.656213,0.882314 -0.235714,0.293322 -0.302188,0.638749 -0.340421,1.00263 -0.05946,1.146355 -0.114073,2.292961 -0.160119,3.439956 0.0092,2.108349 -0.155788,4.247272 0.126213,6.344825 0.03643,0.09462 0.04056,0.209307 0.109274,0.283853 0.03753,0.04071 0.110328,0.0095 0.165493,0.01421 -1.238107,-0.04791 -2.477385,-0.07167 -3.714322,-0.143724 -0.07066,-0.0041 0.14342,-0.02331 0.203469,-0.06077 0.145025,-0.09051 0.349404,-0.355399 0.45071,-0.475401 0.635882,-0.632571 1.270773,-1.259911 1.960499,-1.834107 0.597582,-0.562526 1.287757,-0.967616 2.068851,-1.207474 0.808778,-0.225687 1.628926,-0.386353 2.431323,-0.637024 0.653864,-0.167577 1.307615,-0.338315 1.963036,-0.500975 0.445407,-0.108853 0.905864,-0.11665 1.354812,-0.198721 0.431091,-0.104854 0.870524,-0.158512 1.311299,-0.201179 0.371091,0.01262 0.690126,-0.08202 1.014468,-0.251449 0.331941,-0.145613 0.492855,-0.447641 0.650833,-0.75484 0.183104,-0.538978 0.261008,-1.107819 0.385198,-1.663499 0.01524,-0.07101 0.03049,-0.142021 0.04574,-0.21303 0,0 3.939468,0.08665 3.939468,0.08665 v 0 c -0.0173,0.07465 -0.03462,0.149297 -0.05194,0.223946 -0.161861,0.570923 -0.24924,1.150366 -0.387532,1.725356 -0.141682,0.391372 -0.328923,0.75529 -0.64719,1.024631 -0.330636,0.175056 -0.644258,0.425561 -1.035193,0.412726 -0.445018,0.0231 -0.894093,0.04307 -1.328697,0.148791 -0.45289,0.09961 -0.898496,0.162991 -1.364102,0.194225 -0.673778,0.114877 -1.321824,0.348999 -1.996906,0.460034 -0.425635,0.129638 -0.855318,0.292198 -1.287629,0.395504 -0.379087,0.09059 -0.781746,0.0959 -1.144487,0.258083 -0.80673,0.175138 -1.444755,0.479772 -2.067727,1.034055 -0.663556,0.569248 -1.310126,1.142331 -1.922933,1.766353 -0.065,0.08129 -0.592954,0.814896 -0.638544,0.816666 -2.186681,0.0849 -4.104922,1.167273 -4.308996,-0.680125 0.02705,-2.121829 0.172501,-4.244231 0.05439,-6.367378 -0.04778,-1.156729 -0.138919,-2.315107 -0.116565,-3.473116 0.02772,-0.427826 0.0805,-0.85878 0.340119,-1.216433 0.184085,-0.282927 0.414456,-0.544764 0.638807,-0.79384 0.180092,-0.203837 0.01599,-0.822007 0.08696,-1.097706 0.02337,-0.760624 0.02362,-1.521743 0.01671,-2.282642 -7.94e-4,-0.630545 -0.0051,-1.263571 -0.07489,-1.890855 -0.03775,-0.206516 -0.06609,-0.442212 -0.156866,-0.63627 -0.03293,-0.0704 -0.07489,-0.140317 -0.133963,-0.190823 -0.04498,-0.03846 -0.224401,-0.06369 -0.165231,-0.065 0.291019,-0.0064 5.149705,-0.01463 3.383678,-0.01159 -2.038629,0.0029 -4.077279,0.02611 -6.115926,0.0052 -0.702071,-0.01545 -1.516218,0.05183 -2.117578,-0.360606 -0.376311,-0.521462 -0.233858,-1.018334 -0.255289,-1.628876 -0.01109,-0.517276 0.0071,-1.035589 0.06739,-1.549741 0.09722,-0.795882 0.238904,-1.589201 0.26353,-2.391685 0.07324,-0.914688 0.24957,-1.804522 0.752652,-2.591911 0.44266,-0.691743 0.892851,-1.422601 1.554236,-1.925111 0.528335,-0.103304 1.072294,-0.02785 1.602508,-0.136983 0.719095,-0.130376 1.369463,-0.459399 2.042316,-0.73238 0.501087,-0.250838 1.029569,-0.425656 1.495172,-0.740431 0.05991,-0.03394 0.139506,-0.03747 0.187371,-0.08697 0.141651,-0.146486 -0.01494,-0.493133 0.0461,-0.667427 0.0011,-0.532665 0.0093,-1.065141 0.01452,-1.597739 0.0039,-0.676797 0.0014,-1.353524 -0.0086,-2.030262 0.0025,-0.692177 0.0073,-1.384342 0.01719,-2.076458 0.0096,-0.69705 0.0041,-1.409068 0.227399,-2.077823 0.327708,-0.724578 0.726373,-1.413209 0.961512,-2.177712 0.01716,-0.0302 0.373929,-0.695633 0.45917,-0.705485 1.694411,-0.195828 3.638524,-0.852483 5.026978,0.277444 0.555197,0.598508 0.728869,1.231875 1.009372,1.981008 0.346136,0.826339 0.837285,1.508993 1.719877,1.808887 0.509542,0.1353 0.539892,0.161724 1.090088,0.225489 0.204706,0.02373 0.822463,0.04189 0.616448,0.04688 -5.844008,0.141692 -3.373126,0.06712 -2.092688,-0.04158 0.905889,-0.175655 1.185421,-0.323123 1.422953,-1.256041 0.08952,-0.5036 0.327168,-0.968198 0.246393,-1.508188 0.02619,-0.659039 0.08297,-1.315388 0.295942,-1.945298 0.209839,-0.7122 0.499293,-1.387128 1.038963,-1.916881 0.08082,-0.08755 0.148561,-0.18929 0.242443,-0.262654 0.424088,-0.331401 1.007192,-0.1826 1.500796,-0.211616 0.569696,-0.002 1.139378,-0.0062 1.709023,-0.01443 2.041816,-0.01784 4.117983,-0.151726 6.149237,0.122147 0.873533,0.292438 0.998297,0.720218 0.953254,1.610719 -0.0067,0.962091 -0.0033,1.927614 0.118838,2.883573 0.131442,0.758859 0.4172,1.45928 0.677796,2.181506 0.161708,0.416022 0.295553,0.865565 0.616331,1.193469 0.905722,0.925832 4.475644,0.178427 -3.087608,0.3102 0.467453,-0.0011 0.9349,-0.0051 1.402353,-0.0021 1.857586,0.0029 3.715205,-0.01736 5.572781,-0.0019 0.590428,0.0016 1.180703,0.0163 1.769888,0.05712 1.098168,0.07949 2.19049,0.216683 3.282957,0.35215 0.225177,0.02199 0.449946,0.04866 0.675532,0.06593 0.229968,0.0176 0.921406,0.03282 0.69084,0.03866 -1.027541,0.02604 -4.111294,0.0064 -3.083539,0.02199 1.900664,0.02882 3.801883,-0.01923 5.702644,0.0062 0.78068,0.02191 1.771563,-0.07419 2.377681,0.505161 0.0489,0.09253 0.113845,0.178223 0.14669,0.277593 0.146095,0.44201 -0.06614,1.063503 -0.0049,1.52051 -0.05101,0.871069 -0.204931,1.733121 -0.545976,2.54159 -0.463666,0.910524 -1.092062,1.696778 -1.96632,2.248241 -0.12442,0.04784 -0.240075,0.137922 -0.373258,0.143513 -1.394838,0.05855 -2.791931,0.0336 -4.187923,0.04796 -0.221665,0.0024 -0.443349,-0.0016 -0.665022,-0.0024 -0.103066,-2.65e-4 -0.412261,-0.0011 -0.309195,-0.0011 1.176457,-7.93e-4 2.352913,-7.93e-4 3.529367,-0.0013 -0.686594,-0.0016 -1.376026,-0.0092 -2.059974,0.05758 -0.559245,0.08008 -0.618583,0.04479 -0.64941,0.648044 -0.09403,0.782471 -0.290295,1.542278 -0.468608,2.308892 -0.189535,0.774904 -0.452014,1.625089 -0.204454,2.415831 0.235405,0.329324 0.628022,0.47421 0.973833,0.659858 0.729131,0.39692 1.505027,0.685943 2.283605,0.971211 1.048486,0.251412 2.127004,0.280847 3.198395,0.373327 0.687009,0.04496 1.637355,0.03492 1.930312,0.788231 0.101193,0.667507 0.04472,1.338551 0.05208,2.01178 -0.01355,0.660075 -0.01175,1.327733 -0.16795,1.973459 -0.196381,0.605316 -0.390948,1.214821 -0.65855,1.792451 -0.353359,0.851223 -0.556358,1.765345 -1.055233,2.55256 -0.08024,0.126053 -0.143071,0.265054 -0.240718,0.378156 -0.111778,0.129471 -0.460843,0.393853 -0.650552,0.402047 -1.687613,0.07288 -3.375652,0.03655 -5.063559,0.04931 -0.232518,2.65e-4 -0.465023,-3.9e-5 -0.697539,-5.29e-4 -0.06738,-1.51e-4 -0.269526,-5.29e-4 -0.202144,-5.29e-4 3.563527,-0.0013 4.929094,0.0021 3.461273,-0.0013 -0.427482,-5.29e-4 -0.855728,-0.0033 -1.282057,0.03326 -0.550531,0.06661 -1.077708,0.236538 -1.600258,0.418047 -0.723167,0.134943 -1.453338,0.218679 -2.169308,0.390017 -0.33745,0.0956 -0.68177,0.161835 -1.016587,0.266237 -0.898703,0.280226 0.250306,-0.0703 -0.616374,0.250161 -0.11218,0.04148 -0.230222,0.06494 -0.345334,0.09741 -0.123309,0.03282 -0.24239,0.09448 -0.369932,0.09846 -1.412314,0.04412 -2.825832,0.03182 -4.238771,0.04551 -0.03756,2.65e-4 -0.581789,-0.0021 -0.644496,-0.0024 -0.08529,-2.65e-4 -0.341172,-0.0011 -0.255878,-0.0011 1.21303,-5.29e-4 2.42606,-2.65e-4 3.639092,-5.29e-4 -0.392491,-0.0034 -0.791149,-0.02736 -1.179695,0.03505 -0.622234,0.113813 -0.344784,0.359812 -0.403733,0.916043 -0.01617,0.904833 -0.03983,1.810448 -0.112808,2.712717 -0.08724,0.982573 -0.160387,1.977978 -0.614717,2.874092 -0.418261,0.520631 -0.901665,1.010111 -1.623578,0.956964 -0.841121,-0.0032 -1.682263,-0.0029 -2.523387,-0.0013 -2.298173,0.01154 -4.59617,0.04406 -6.894497,0.01826 -0.66136,-0.01582 -1.394901,0.01828 -1.916369,-0.452694 -0.480465,-0.710589 -0.347387,-1.55924 -0.339256,-2.377599 0.01561,-1.149239 0.02167,-2.301459 -0.06362,-3.448224 0,0 3.950248,0 3.950248,0 z"
       inkscape:connector-curvature="0" />
  </g>
</svg>
