<?xml version="1.0" encoding="UTF-8" standalone="no"?>
<!-- Created with Inkscape (http://www.inkscape.org/) -->

<svg
   xmlns:dc="http://purl.org/dc/elements/1.1/"
   xmlns:cc="http://creativecommons.org/ns#"
   xmlns:rdf="http://www.w3.org/1999/02/22-rdf-syntax-ns#"
   xmlns:svg="http://www.w3.org/2000/svg"
   xmlns="http://www.w3.org/2000/svg"
   xmlns:sodipodi="http://sodipodi.sourceforge.net/DTD/sodipodi-0.dtd"
   xmlns:inkscape="http://www.inkscape.org/namespaces/inkscape"
   width="99.611862mm"
   height="38.63047mm"
   viewBox="0 0 99.611862 38.63047"
   version="1.1"
   id="svg8"
   sodipodi:docname="victoria.svg"
   inkscape:version="0.92.4 (unknown)">
  <defs
     id="defs2" />
  <sodipodi:namedview
     id="base"
     pagecolor="#ffffff"
     bordercolor="#666666"
     borderopacity="1.0"
     inkscape:pageopacity="0.0"
     inkscape:pageshadow="2"
     inkscape:zoom="0.98994949"
     inkscape:cx="90.067043"
     inkscape:cy="-44.512751"
     inkscape:document-units="mm"
     inkscape:current-layer="layer1"
     showgrid="false"
     inkscape:window-width="1736"
     inkscape:window-height="823"
     inkscape:window-x="476"
     inkscape:window-y="272"
     inkscape:window-maximized="0"
     fit-margin-top="0"
     fit-margin-left="0"
     fit-margin-right="0"
     fit-margin-bottom="0" />
  <metadata
     id="metadata5">
    <rdf:RDF>
      <cc:Work
         rdf:about="">
        <dc:format>image/svg+xml</dc:format>
        <dc:type
           rdf:resource="http://purl.org/dc/dcmitype/StillImage" />
        <dc:title></dc:title>
      </cc:Work>
    </rdf:RDF>
  </metadata>
  <g
     inkscape:label="Layer 1"
     inkscape:groupmode="layer"
     id="layer1"
     transform="translate(-7.2306457,-16.214522)">
    <path
       style="fill:#000000;fill-opacity:1;fill-rule:nonzero;stroke:none;stroke-width:0.26458332"
       id="path3760"
       d="m 7.2306457,19.083162 c 0.032162,-0.800007 0.2687841,-1.526738 0.7365055,-2.174094 0.1731992,-0.166934 0.2888785,-0.304997 0.5071825,-0.414217 1.0002678,-0.50045 3.1433643,-0.189369 3.6902093,-0.134642 0.133329,0.01334 0.207699,0.16935 0.311548,0.254026 0.935121,1.007102 1.125591,2.408495 1.418082,3.698962 0.341978,1.932677 0.832431,3.835124 1.199849,5.762562 0.219677,1.152406 0.405425,2.387385 0.588485,3.545776 0.458849,2.361901 0.552435,4.819428 1.293442,7.123832 0.08629,0.268349 0.207794,0.524071 0.311691,0.786106 0.425357,0.826371 0.845493,1.33921 1.788935,1.408856 -0.768286,-0.0091 -1.537866,0.01818 -2.30486,-0.02729 -0.110207,-0.0065 0.221001,-0.03888 0.318606,-0.09046 0.283882,-0.150043 0.417519,-0.374095 0.544199,-0.66557 0.248736,-0.572313 0.300099,-0.98411 0.434859,-1.607416 0.652498,-3.411098 1.074459,-6.859936 1.578628,-10.294963 0.253093,-1.991299 0.453548,-4.009041 1.29348,-5.853423 0.551263,-1.218591 1.347026,-2.275186 2.229774,-3.268839 0.296796,-0.339696 0.65297,-0.609404 1.018208,-0.868581 0,0 2.614497,0.258539 2.614497,0.258539 v 0 c -0.37621,0.23213 -0.743927,0.47349 -1.047134,0.801316 -0.89375,0.958356 -1.67434,1.995196 -2.226042,3.192192 -0.889757,1.804887 -1.151812,3.803551 -1.437337,5.775987 -0.547679,3.428686 -0.957336,6.874662 -1.474144,10.307871 -0.146996,0.806122 -0.225412,1.956345 -0.919089,2.528565 -0.0962,0.07935 -0.200471,0.178239 -0.324974,0.185357 -0.966546,0.05524 -1.936246,-5.3e-4 -2.904369,-7.94e-4 -0.938471,-0.213336 -1.35963,-0.831633 -1.744611,-1.690201 -0.891058,-2.56386 -1.022906,-5.304732 -1.485222,-7.962723 -0.197689,-1.243782 -0.353537,-2.297292 -0.596173,-3.533143 -0.379134,-1.931098 -0.905296,-3.828618 -1.308788,-5.754319 -0.300121,-1.224961 -0.484348,-2.615417 -1.4726742,-3.498868 -0.9760254,-0.482328 -0.4370316,-0.1578 1.9619682,-0.202071 0.124482,-0.0023 -0.249631,0.0016 -0.37309,0.0177 -0.340529,0.0444 -0.6074,0.167612 -0.862609,0.395602 -0.492619,0.563859 -0.7087961,1.252337 -0.7150741,1.998344 0,0 -2.6439582,0 -2.6439582,0 z"
       inkscape:connector-curvature="0" />
    <path
       style="fill:#000000;fill-opacity:1;fill-rule:nonzero;stroke:none;stroke-width:0.26458332"
       id="path3762"
       d="m 19.525272,33.981117 c 1.292962,-0.620895 2.351996,-1.500661 3.274194,-2.586932 0.7737,-1.119203 1.284782,-2.38574 1.866692,-3.607813 0.08297,-0.162081 0.165268,-0.324506 0.248898,-0.486246 0.02255,-0.04361 0.411107,-0.815877 0.511636,-0.809384 2.867664,0.185161 2.625771,-0.569638 2.790366,0.769977 0.07322,1.784916 0.05734,3.572409 0.06454,5.35854 5.29e-4,0.78586 0.0033,1.571744 0.01127,2.35757 0.0042,0.416658 -0.02127,0.817994 0.08402,1.221353 0.113651,0.200142 0.307845,0.250357 0.52501,0.28057 0.09365,0.01302 0.377579,0.0209 0.283059,0.01844 -2.435029,-0.06334 -2.913728,0.119245 -1.681586,-0.210327 0.81448,-0.281546 1.585603,-0.674521 2.297697,-1.157807 0,0 2.608011,0.251251 2.608011,0.251251 v 0 c -0.714936,0.514422 -1.508511,0.909101 -2.324306,1.238716 -1.419987,0.47235 -0.565274,0.243374 -3.50828,0.250471 -0.384554,0.0011 -0.702592,-0.279075 -0.833006,-0.61595 -0.07489,-0.43039 -0.0428,-0.840068 -0.03593,-1.277403 0.01234,-0.785543 0.01883,-1.571194 0.02059,-2.356827 0.0063,-1.772134 0.03197,-3.550745 -0.129079,-5.317138 -0.247871,-1.218828 -0.200789,-0.342024 2.46286,-0.494874 0.04663,-0.0027 -0.09879,-0.05154 -0.137734,-0.02574 -0.123696,0.0819 -0.373653,0.577255 -0.40934,0.643303 -0.08598,0.159128 -0.168881,0.3199 -0.25332,0.479848 -0.618945,1.227783 -1.123967,2.518669 -1.89057,3.668197 -0.902745,1.107027 -1.942969,2.0238 -3.225205,2.674371 0,0 -2.620484,-0.266155 -2.620484,-0.266155 z"
       inkscape:connector-curvature="0" />
    <path
       style="fill:#000000;fill-opacity:1;fill-rule:nonzero;stroke:none;stroke-width:0.26458332"
       id="path3764"
       d="m 37.704664,26.828493 c -1.17086,0.977725 -1.797439,1.976866 -2.287727,3.406508 -0.398283,1.455343 -0.444394,2.971432 -0.461272,4.470889 0.02548,0.818788 -0.07552,1.655794 0.162708,2.448251 0.383233,1.027554 1.481465,1.194614 2.44452,1.33741 0.235476,-0.004 0.940022,0.01805 0.706429,-0.01193 -0.570719,-0.07328 -1.200758,0.124945 -1.722141,-0.118469 -0.254,-0.118584 0.533151,-0.183788 0.776428,-0.323051 0.866127,-0.495814 1.402019,-1.289344 1.942481,-2.093916 1.33046,-2.311384 1.795991,-4.951981 2.165217,-7.557029 0.273471,-2.141975 0.323149,-4.302116 0.331883,-6.458596 -5.29e-4,-1.037559 -0.02379,-2.074845 -0.04149,-3.112184 -0.103577,-0.999528 -0.100669,-0.525531 2.641354,-0.03679 0.121023,0.02157 -0.01408,0.245478 -0.01831,0.368334 -0.02677,0.774386 -0.02999,1.549858 -0.03888,2.324557 -0.01834,3.078649 -0.05785,6.157061 -0.07039,9.235742 0.01429,1.829443 -0.01617,3.660249 0.02862,5.489469 0.01712,0.698752 0.033,1.517232 0.180747,2.215261 0.04809,0.227177 0.141859,0.442222 0.212789,0.663335 0.07778,0.12487 0.12827,0.271637 0.23333,0.37461 0.07038,0.06898 0.180359,0.07949 0.270539,0.119237 -0.7851,-0.02864 -1.573167,-0.01196 -2.355297,-0.08593 -0.10125,-0.0096 0.195887,-0.06023 0.28461,-0.109942 0.226187,-0.126746 0.383694,-0.295667 0.570082,-0.470479 0.492794,-0.500015 0.731999,-1.143175 0.94162,-1.79764 0,0 2.612589,0.0786 2.612589,0.0786 v 0 c -0.208241,0.692907 -0.447972,1.376159 -0.938528,1.926151 -0.09703,0.101171 -0.750599,0.765503 -0.861213,0.771861 -0.182896,0.0105 -2.52349,0.587367 -3.135016,-0.302321 -0.09009,-0.131064 -0.135231,-0.287896 -0.202848,-0.431845 -0.0605,-0.235662 -0.142812,-0.466773 -0.181491,-0.70698 -0.115121,-0.71492 -0.10091,-1.532215 -0.09938,-2.243918 0.0039,-1.829747 0.04889,-3.659579 0.02851,-5.489469 -0.01259,-3.07871 -0.05248,-6.157145 -0.06983,-9.235828 -0.0084,-0.774977 -0.01204,-1.550515 -0.03576,-2.325247 -0.0038,-0.123886 -0.138136,-0.349642 -0.01614,-0.371482 2.734304,-0.489467 2.722959,-0.965577 2.64827,0.03881 -0.0027,1.039046 -0.01021,2.078112 -0.02786,3.117018 -0.04075,2.167832 -0.09889,4.340524 -0.394655,6.491568 -0.38867,2.632221 -0.835091,5.304655 -2.12902,7.668149 -0.538181,0.843563 -1.072814,1.676231 -1.930572,2.238878 -1.432092,0.939379 -3.233076,0.55051 -4.870154,0.523859 -1.061035,-0.198763 -2.121789,-0.495015 -2.501738,-1.625471 -0.234122,-0.826804 -0.137862,-1.676024 -0.128821,-2.527961 0.04637,-1.52491 0.0745,-3.065939 0.475176,-4.548947 0.491056,-1.490231 1.088882,-2.468152 2.235557,-3.549944 0,0 2.625061,0.226889 2.625061,0.226889 z"
       inkscape:connector-curvature="0" />
    <path
       style="fill:#000000;fill-opacity:1;fill-rule:nonzero;stroke:none;stroke-width:0.26458332"
       id="path3766"
       d="m 52.238618,28.953661 c -0.57531,1.068821 -0.946594,2.231255 -1.22134,3.409249 -0.165534,0.783034 -0.284811,1.582171 -0.232355,2.383226 0.214114,0.477562 0.597948,0.76432 0.98801,1.087456 0.178089,0.147532 0.340725,0.314362 0.527947,0.450117 0.383651,0.278183 0.931849,0.555506 1.345271,0.778492 1.049129,0.603294 2.159373,1.054557 3.360881,1.210651 0.189063,0.01482 0.377923,0.03251 0.56719,0.04445 0.184536,0.01164 0.738981,0.02833 0.554087,0.0263 -0.68816,-0.0076 -1.381082,0.04088 -2.064165,-0.04293 -0.179586,-0.02204 0.356687,-0.07435 0.522751,-0.146185 0.439597,-0.190172 0.545724,-0.361376 0.881718,-0.695854 0.912715,-1.257126 0.986954,-2.832018 1.083109,-4.32807 0.01249,-1.079432 0.133334,-2.170248 -0.01646,-3.245379 -0.06064,-0.435203 -0.164402,-0.822169 -0.267049,-1.246937 -0.471596,-1.229841 -1.695638,-1.607862 -2.866126,-1.905103 -0.578694,-0.130244 -1.16827,-0.201028 -1.759143,-0.2447 -0.159885,-0.01183 -0.640514,-0.02847 -0.480197,-0.02721 2.385348,0.01886 2.883053,-0.184376 1.873279,0.147648 0,0 -2.608559,-0.304003 -2.608559,-0.304003 v 0 c 0.112945,-0.06071 0.210923,-0.173089 0.338833,-0.182143 1.764157,-0.124875 3.484536,-0.13934 5.197679,0.273936 1.292421,0.372976 2.42412,0.812259 2.898135,2.182636 0.09386,0.424937 0.197606,0.851165 0.250962,1.283941 0.134337,1.089626 0.01148,2.190893 -0.0016,3.283331 -0.09491,1.553493 -0.164926,3.170193 -1.055712,4.507317 -0.325858,0.370568 -0.452289,0.580549 -0.887431,0.823913 -1.406162,0.786424 -3.193052,0.237117 -4.738793,0.163089 -1.194149,-0.21114 -2.291974,-0.695843 -3.338848,-1.304652 -1.126525,-0.630428 -2.383751,-1.348119 -2.93133,-2.574039 -0.04757,-0.829122 0.06408,-1.654257 0.263025,-2.459704 0.288005,-1.195925 0.672169,-2.363817 1.180145,-3.485811 0,0 2.636041,0.136972 2.636041,0.136972 z"
       inkscape:connector-curvature="0" />
    <path
       style="fill:#000000;fill-opacity:1;fill-rule:nonzero;stroke:none;stroke-width:0.26458332"
       id="path3770"
       d="m 63.511405,31.233155 c 0.09646,0.02829 0.192331,0.05864 0.28937,0.08486 0.113485,0.03066 0.22634,0.06515 0.342074,0.08573 0.108347,0.01926 0.438449,0.03595 0.328433,0.03347 -0.776269,-0.01746 -1.560936,0.04153 -2.328071,-0.07848 -0.123831,-0.01937 0.210817,-0.142565 0.289049,-0.24049 0.108442,-0.135731 0.175146,-0.300091 0.262718,-0.450136 0.515676,-1.365623 0.594135,-2.846025 0.662554,-4.290772 0.004,-0.156044 0.0093,-0.312062 0.01214,-0.468132 0.0021,-0.117456 0.0027,-0.23494 0.0029,-0.352416 1.06e-4,-0.08405 0.0021,-0.168197 -0.0021,-0.252147 -7.93e-4,-0.01571 -0.02826,-0.04636 -0.01257,-0.04547 2.79654,0.15852 2.690696,-0.684513 2.640205,0.611044 0.06509,0.835725 -0.02402,1.703339 0.236853,2.512686 0.113884,0.353324 0.231663,0.523282 0.410503,0.832199 0.734007,0.589137 1.730283,0.57078 2.627646,0.602665 0.920115,0.0065 3.055403,0.01887 -1.156782,0.0021 -0.12659,-5.29e-4 0.253264,7.94e-4 0.379748,-0.0043 0.314789,-0.01286 0.266589,-0.0141 0.544955,-0.0784 0.06379,0.194599 0.658384,-0.880917 0.389588,-0.805021 -0.06297,0.01778 -0.08275,0.101359 -0.124132,0.15204 0.784866,0.05532 1.598441,-0.05154 2.354596,0.165952 0.167757,0.04825 -0.220115,0.272439 -0.309867,0.422156 -0.505685,0.843542 -0.689136,1.81601 -0.862816,2.768291 -0.194215,1.285583 -0.235921,2.587159 -0.238028,3.885289 -0.0168,0.927362 -0.07649,1.261933 0.715563,1.835391 0.817187,0.367173 1.72747,0.416764 2.61029,0.454729 0.128989,0.0028 0.25796,0.0065 0.386969,0.0083 0.028,2.64e-4 0.929137,0.0067 0.883097,0.0033 -0.624158,-0.04665 -1.275189,0.07565 -1.874825,-0.103743 -0.25691,-0.07686 0.52146,-0.13067 0.772031,-0.22619 0.279424,-0.106518 0.542327,-0.25215 0.813488,-0.378227 1.611651,-0.920414 2.241597,-1.623039 2.745242,-3.395178 0.252638,-1.168445 0.274688,-2.366071 0.266968,-3.556119 -0.0127,-2.033027 -0.623674,-1.419939 2.602685,-1.13901 -0.09683,2.195642 -0.08054,4.394898 -0.06254,6.592088 0.05963,0.773859 -0.07685,1.571191 0.09667,2.337097 0.0269,0.118745 0.06105,0.242099 0.133369,0.340042 0.03719,0.05036 0.235132,0.07538 0.172534,0.07422 -0.798496,-0.01476 -1.595418,-0.07684 -2.393129,-0.11525 0.650528,-0.35746 1.070358,-1.038614 1.541801,-1.594596 0,0 2.564696,0.178429 2.564696,0.178429 v 0 c -0.489283,0.598096 -0.924994,1.245476 -1.489107,1.777212 -0.953013,-0.0069 -1.908929,0.05384 -2.85904,-0.0208 -0.0893,-0.007 -0.123668,-0.1342 -0.159469,-0.216313 -0.371631,-0.852382 -0.03691,-1.876391 -0.138187,-2.760099 0.01881,-2.198349 0.03332,-4.398232 -0.05046,-6.595475 3.174773,-0.280321 2.632925,-0.910154 2.653046,1.142854 -0.01167,1.214385 -0.05106,2.432273 -0.302268,3.625408 -0.500311,1.850105 -1.116769,2.619196 -2.781803,3.609647 -0.372377,0.193257 -1.115679,0.630513 -1.568992,0.677103 -1.502534,0.15443 -3.030011,0.18791 -4.54193,0.13103 -0.903359,-0.05908 -1.844738,-0.132437 -2.634438,-0.616633 -0.760674,-0.674676 -0.763323,-1.104053 -0.712538,-2.072843 0.03429,-1.312204 0.07921,-2.627347 0.278741,-3.927041 0.173021,-0.990968 0.367112,-1.972937 0.833927,-2.87551 0.08635,-0.16696 0.109561,-0.435626 0.291541,-0.482696 0.938726,-0.242805 1.92595,-0.226631 2.888922,-0.339947 0.0494,0.06048 0.116629,0.110009 0.148204,0.18143 0.153159,0.346416 -0.191497,0.949944 -0.421288,1.188191 -0.330793,0.140343 -0.597067,0.160226 -0.957813,0.16102 -1.335127,0.0029 -2.67254,0.02175 -4.007935,-0.01389 -0.954886,-0.05504 -1.995929,-0.08847 -2.663425,-0.86927 -0.17303,-0.3434 -0.27935,-0.518665 -0.388617,-0.904853 -0.236374,-0.835404 -0.16351,-1.715977 -0.263533,-2.570724 -0.03902,-1.296695 -0.152292,-0.452744 2.645963,-0.605041 0.01574,-8.47e-4 -0.01289,0.02942 -0.01421,0.04515 -0.0071,0.08488 -0.0068,0.170219 -0.0108,0.255303 -0.0056,0.118612 -0.01132,0.237217 -0.01783,0.35578 -0.0086,0.157409 -0.01842,0.314754 -0.02761,0.472131 -0.101275,1.478359 -0.206087,2.983383 -0.660413,4.401663 -0.02453,0.05146 -0.358254,0.854642 -0.535811,0.882166 -1.56438,0.242517 -2.556846,0.314058 -3.872812,-0.113315 0,0 2.626112,-0.329732 2.626112,-0.329732 z"
       inkscape:connector-curvature="0" />
    <path
       style="fill:#000000;fill-opacity:1;fill-rule:nonzero;stroke:none;stroke-width:0.26458332"
       id="path3772"
       d="m 87.113445,30.520764 c -0.03606,1.389846 -0.03574,2.780466 -0.03805,4.170709 0.04774,1.068586 -0.04697,2.149589 0.06391,3.214788 0.02611,0.148122 0.0236,0.338037 0.158615,0.446712 0.295738,0.23804 1.607778,0.228155 1.94347,0.244623 2.157233,0.03379 -0.644787,0.03435 -0.964657,0.0016 -0.234403,-0.02408 0.471278,-0.03757 0.701341,-0.08851 0.716193,-0.158562 1.081315,-0.525198 1.554835,-1.050853 0.921134,-1.262714 1.04707,-2.816762 1.154104,-4.325258 -0.03869,-0.777401 0.199962,-1.740511 -0.0687,-2.497436 -0.05552,-0.156419 -0.39543,-0.622665 -0.482618,-0.747451 -0.533268,-0.692197 -1.022183,-1.014227 -1.869763,-1.194705 -0.866658,-0.135874 -1.748583,-0.111119 -2.623058,-0.111418 0.681808,5.29e-4 1.363618,-2.62e-4 2.045425,0.0013 0.597268,0.0013 -0.65459,-0.03412 -0.887367,0.0491 -0.560507,0.200369 -0.624166,0.931846 -0.741752,1.405977 -0.257352,1.606605 -0.272219,3.239643 -0.255608,4.862896 0.01394,0.142378 0.02791,0.284753 0.04186,0.42713 0,0 -2.616256,0.01966 -2.616256,0.01966 v 0 c -0.008,-0.149419 -0.01606,-0.298839 -0.02408,-0.448257 0.03512,-1.641293 0.0625,-3.288485 0.282411,-4.917652 0.105857,-0.534477 0.168516,-1.392394 0.720043,-1.717987 0.122335,-0.07222 0.276066,-0.07209 0.41747,-0.08576 1.190739,-0.115171 2.427642,0.686281 3.588887,-0.0032 0.885545,0.0026 1.7837,-0.02336 2.652985,0.173038 0.843103,0.252965 1.362888,0.666565 1.876206,1.384662 0.169124,0.258112 0.393906,0.56166 0.484245,0.862981 0.244544,0.815679 -0.0047,1.728504 0.02548,2.555383 -0.111668,1.558639 -0.226819,3.162186 -1.14191,4.489447 -0.299617,0.369546 -0.534207,0.727358 -0.95177,0.980292 -0.353621,0.214204 -0.935035,0.359034 -1.340474,0.372732 -2.108467,0.07123 -2.570739,0.04443 -4.120729,-0.0094 -0.588299,-0.03697 -1.634091,0.06182 -2.038909,-0.508987 -0.120726,-0.170225 -0.120298,-0.350325 -0.147391,-0.546566 -0.08627,-1.075976 0.03823,-2.160749 -2.7e-5,-3.238825 -0.0024,-1.390243 -0.0021,-2.780864 -0.03805,-4.170709 0,0 2.639853,0 2.639853,0 z"
       inkscape:connector-curvature="0" />
    <path
       style="fill:#000000;fill-opacity:1;fill-rule:nonzero;stroke:none;stroke-width:0.26458332"
       id="path3774"
       d="m 94.062451,27.848068 c -0.0505,1.57468 -0.04197,3.150658 -0.04054,4.725958 -0.0011,1.45475 0.01172,2.909451 0.02008,4.364162 0.03201,0.651192 -0.07237,1.564984 0.209491,2.175481 0.05032,0.108976 0.139804,0.195151 0.209707,0.292727 0.506097,0.629166 1.27804,0.71139 2.032156,0.787243 0.137522,0.0074 0.27496,0.01664 0.412564,0.02231 0.260112,0.01071 0.535475,0.01423 0.79601,0.01579 0.141359,7.94e-4 0.565433,0.0024 0.424085,5.3e-4 -2.255719,-0.02977 -2.874936,0.09595 -1.788237,-0.0855 0.856422,-0.344988 1.368277,-1.213821 1.965883,-1.879984 0.32349,-0.371917 1.361525,-1.312643 1.88837,-1.319392 1.02809,-0.01318 2.05527,0.06665 3.0829,0.09997 1.485,0.982314 2.35283,2.215698 3.02242,3.838192 0.49268,1.492795 0.6094,3.066161 0.5153,4.625911 -0.127,0.308758 -0.1962,0.648224 -0.38099,0.926275 -1.12227,1.68866 -3.81435,2.926778 -5.56071,3.637115 -3.301461,1.342877 -4.807295,1.587027 -8.350785,2.490775 -1.634411,0.3117 -3.261585,0.664088 -4.903232,0.935098 -1.685073,0.278183 -3.378541,0.505807 -5.073933,0.711986 -1.671801,0.203308 -3.345137,0.410168 -5.025911,0.516265 -3.617,0.228323 -7.911036,0.133009 -11.432696,-0.405603 -1.37759,-0.210693 -2.686957,-0.740831 -4.030438,-1.111248 -3.276753,-1.195241 -6.159616,-3.046698 -8.75321,-5.352819 -1.431933,-1.273215 -2.689085,-2.719959 -3.936563,-4.167918 -0.6848,-0.642115 -0.87783,-0.946195 -1.757641,-1.301671 -0.798509,-0.322627 -1.907947,-0.472387 -2.737215,-0.556762 -1.3756,-0.139965 -2.660546,-0.155144 -4.045436,-0.19993 -0.78699,-0.01021 -1.574086,-0.04721 -2.360965,-0.03066 -0.07537,0.0016 -0.134995,0.07447 -0.209677,0.08473 -0.833392,0.114524 -1.677072,0.151915 -2.507117,0.288615 -1.559999,0.25691 -3.010556,0.626801 -4.467373,1.241949 -0.583261,0.246285 -1.125959,0.579324 -1.688939,0.868984 -1.494253,0.962729 -2.690847,2.247805 -3.295164,3.937439 -0.256481,0.717108 -0.290227,1.108951 -0.413408,1.844612 -0.132995,1.073745 -0.1654,2.324039 0.727988,3.108931 0.167762,0.147388 0.372144,0.246938 0.558215,0.370406 0.832049,0.301765 0.852361,0.35642 1.829432,0.470519 0.223425,0.02609 -0.865131,-0.05954 -0.658365,-0.148124 0.968928,-0.415105 2.045896,-0.520629 3.03969,-0.87207 3.829542,-1.354262 4.957444,-2.072537 8.676452,-3.934751 1.440436,-0.793218 2.880873,-1.586433 4.321307,-2.379649 0,0 2.026838,0.217178 2.026838,0.217178 v 0 c -1.444011,0.79512 -2.888023,1.590241 -4.332031,2.385362 -3.621021,1.863346 -4.745389,2.572048 -8.436044,4.00065 -0.943149,0.36508 -1.882634,0.795462 -2.882654,0.946391 -1.569262,0.236842 -3.694382,0.402521 -5.378218,-0.106251 -0.270378,-0.0817 -0.518896,-0.223293 -0.778344,-0.334942 -0.189751,-0.146949 -0.400374,-0.270322 -0.569254,-0.440848 -0.882923,-0.891527 -0.86931,-2.175256 -0.699485,-3.326255 0.131449,-0.747233 0.176074,-1.176287 0.437054,-1.905148 0.627586,-1.752714 1.867778,-3.093842 3.414981,-4.098282 1.697733,-0.880152 1.924476,-1.098346 3.850531,-1.648246 3.956212,-1.129519 8.087749,-0.976696 12.159059,-0.907052 2.034718,0.06838 5.049216,0.0067 6.938582,0.862047 0.851683,0.38558 1.078733,0.73723 1.723607,1.389504 1.17071,1.446779 2.357686,2.881731 3.737504,4.139795 2.524302,2.301563 5.360945,4.108903 8.587592,5.276263 0.677896,0.185306 5.171527,1.512506 6.470845,1.585301 1.620647,0.0908 3.248523,0.01056 4.868797,-0.08671 1.682892,-0.101032 3.358351,-0.306502 5.032226,-0.507688 4.870419,-0.585383 5.145588,-0.722061 9.914562,-1.632556 3.474434,-0.897596 4.922996,-1.127988 8.143872,-2.471124 1.629004,-0.67931 4.204564,-1.915313 5.277984,-3.484853 0.17202,-0.251524 0.24003,-0.560179 0.36004,-0.840269 0.0887,-1.518849 -0.0319,-3.057218 -0.51407,-4.509058 -0.63633,-1.50544 -1.52987,-2.84379 -3.03935,-3.588817 0.70024,-0.0402 1.39937,-0.113093 2.10073,-0.120594 0.13316,-0.0013 -0.26091,0.0571 -0.38619,0.102259 -0.58581,0.211169 -1.09866,0.623795 -1.51156,1.077457 -0.63324,0.695174 -1.140321,1.554332 -1.956931,2.04651 -1.61933,0.400642 -3.375737,0.127735 -5.037646,0.06766 -0.80655,-0.119319 -1.570288,-0.300337 -2.055293,-1.017191 -0.07195,-0.126045 -0.161521,-0.243549 -0.21584,-0.378132 -0.28227,-0.699384 -0.158059,-1.509323 -0.184774,-2.238195 0.0084,-1.454711 0.02122,-2.909411 0.02008,-4.364162 0.0013,-1.5753 0.0099,-3.151277 -0.04055,-4.725958 0,0 2.639854,0 2.639854,0 z"
       inkscape:connector-curvature="0" />
    <path
       style="fill:#000000;fill-opacity:1;fill-rule:nonzero;stroke:none;stroke-width:0.26458332"
       id="path3776"
       d="m 28.048931,22.203438 c -0.02842,0.557391 -0.05776,1.180313 0.426207,1.55072 0.750903,0.267117 3.163858,0.337869 -2.114429,0.03319 -0.0597,-0.0034 0.110115,-0.05176 0.15339,-0.09303 0.134083,-0.127861 0.176374,-0.269957 0.250862,-0.435298 0.163849,-0.479769 0.224467,-0.988746 0.234776,-1.493887 2.900703,-0.0664 2.670095,-0.622839 2.659028,0.865941 0,0 -2.646268,-0.0013 -2.646268,-0.0013 v 0 c 0.0041,-1.476045 -0.292367,-0.907966 2.646551,-0.838131 -0.09586,0.521049 -0.06857,1.066561 -0.261112,1.570319 -0.04686,0.1238 -0.217858,0.72196 -0.404522,0.738978 -1.334487,0.121661 -2.25103,0.553203 -3.154538,-0.137286 -0.420639,-0.505957 -0.452718,-1.123191 -0.433903,-1.760164 0,0 2.643958,0 2.643958,0 z"
       inkscape:connector-curvature="0" />
    <path
       style="fill:#000000;fill-opacity:1;fill-rule:nonzero;stroke:none;stroke-width:0.26458332"
       id="path3778"
       d="m 44.150883,23.074465 c 1.145508,-0.162441 1.94151,-0.583261 2.801334,-1.338652 0.996278,-1.003274 1.684631,-2.253268 2.594557,-3.328368 0,0 2.588085,0.186665 2.588085,0.186665 v 0 c -0.955098,1.050205 -1.634262,2.313214 -2.598764,3.356107 -0.810077,0.776707 -1.639966,1.318001 -2.774418,1.479428 0,0 -2.610794,-0.35518 -2.610794,-0.35518 z"
       inkscape:connector-curvature="0" />
    <path
       style="fill:#000000;fill-opacity:1;fill-rule:nonzero;stroke:none;stroke-width:0.26458332"
       id="path3780"
       d="m 79.899218,25.677942 c -0.03669,1.72951 0.452588,0.975077 -2.651625,0.853551 0.0173,-0.56433 0.01595,-1.129237 0.01101,-1.693776 -0.09906,0.02601 0.02635,-0.307948 -0.0838,-0.322769 -0.03742,-0.005 -0.07969,0.103983 -0.04196,0.105219 0.870429,0.02851 1.742295,-0.05295 2.612605,-0.02103 0.04028,0.0015 -0.02784,0.076 -0.03567,0.115539 -0.01413,0.07137 -0.02,0.144124 -0.02999,0.216186 0.0095,0.312121 -0.177834,0.831721 0.107524,1.066077 0.03696,0.008 0.07315,0.02642 0.110863,0.02387 0.04061,-0.0027 0.156348,-0.03827 0.115655,-0.03919 -0.841909,-0.01905 -1.685033,0.0221 -2.526323,-0.01537 -0.04306,-0.0019 0.06705,-0.05647 0.0897,-0.09314 0.06997,-0.113253 0.09404,-0.256464 0.125492,-0.381781 0.04936,-0.315026 0.02939,-0.159593 0.06073,-0.466189 0,0 2.642693,0.0279 2.642693,0.0279 v 0 c -0.03546,0.323726 -0.01516,0.157881 -0.06162,0.497451 -0.01516,0.07311 -0.108482,0.658061 -0.213828,0.670647 -1.024001,0.12233 -2.263349,0.716086 -2.994287,-0.06069 -0.19867,-0.395951 -0.13144,-0.829758 -0.09938,-1.258309 0.01461,-0.175839 0.03155,-0.425124 0.05002,-0.42758 2.241119,-0.297965 2.655279,-0.970868 2.808827,0.363166 -0.0049,0.564539 -0.0063,1.129446 0.01101,1.693776 -3.104214,0.121526 -2.614941,0.875959 -2.651628,-0.853551 0,0 2.643957,0 2.643957,0 z"
       inkscape:connector-curvature="0" />
  </g>
</svg>
